%TF.GenerationSoftware,KiCad,Pcbnew,9.0.1*%
%TF.CreationDate,2025-06-19T23:09:26+02:00*%
%TF.ProjectId,Night-Gogle,4e696768-742d-4476-9f67-6c652e6b6963,rev?*%
%TF.SameCoordinates,Original*%
%TF.FileFunction,Legend,Bot*%
%TF.FilePolarity,Positive*%
%FSLAX46Y46*%
G04 Gerber Fmt 4.6, Leading zero omitted, Abs format (unit mm)*
G04 Created by KiCad (PCBNEW 9.0.1) date 2025-06-19 23:09:26*
%MOMM*%
%LPD*%
G01*
G04 APERTURE LIST*
%ADD10C,0.300000*%
%ADD11C,0.100000*%
%ADD12C,0.150000*%
%ADD13C,0.000000*%
%ADD14C,0.127000*%
G04 APERTURE END LIST*
D10*
G36*
X54003173Y-87533051D02*
G01*
X54032351Y-87562229D01*
X54084885Y-87719831D01*
X54084885Y-88045489D01*
X53599171Y-88045489D01*
X53599171Y-87659470D01*
X53643878Y-87570055D01*
X53680882Y-87533051D01*
X53770295Y-87488346D01*
X53913761Y-87488346D01*
X54003173Y-87533051D01*
G37*
G36*
X54717460Y-87604481D02*
G01*
X54754463Y-87641485D01*
X54799171Y-87730899D01*
X54799171Y-88045489D01*
X54384885Y-88045489D01*
X54384885Y-87730899D01*
X54429592Y-87641484D01*
X54466596Y-87604480D01*
X54556010Y-87559774D01*
X54628047Y-87559774D01*
X54717460Y-87604481D01*
G37*
G36*
X54474828Y-84124060D02*
G01*
X54027742Y-84273089D01*
X54027742Y-83975030D01*
X54474828Y-84124060D01*
G37*
G36*
X54217460Y-79747339D02*
G01*
X54254464Y-79784343D01*
X54299171Y-79873756D01*
X54299171Y-80017221D01*
X54254463Y-80106635D01*
X54217458Y-80143640D01*
X54128047Y-80188346D01*
X53770295Y-80188346D01*
X53680882Y-80143640D01*
X53643878Y-80106636D01*
X53599171Y-80017221D01*
X53599171Y-79873756D01*
X53643878Y-79784342D01*
X53680882Y-79747338D01*
X53770295Y-79702632D01*
X54128047Y-79702632D01*
X54217460Y-79747339D01*
G37*
G36*
X53870600Y-75802935D02*
G01*
X53837367Y-75869399D01*
X53770904Y-75902631D01*
X53698867Y-75902631D01*
X53632403Y-75869399D01*
X53599171Y-75802935D01*
X53599171Y-75516613D01*
X53613305Y-75488346D01*
X53870600Y-75488346D01*
X53870600Y-75802935D01*
G37*
G36*
X55265838Y-88512156D02*
G01*
X52632560Y-88512156D01*
X52632560Y-87624060D01*
X53299171Y-87624060D01*
X53299171Y-88195489D01*
X53299893Y-88210192D01*
X53305630Y-88239032D01*
X53316883Y-88266199D01*
X53333219Y-88290648D01*
X53354012Y-88311441D01*
X53378461Y-88327777D01*
X53405628Y-88339030D01*
X53434468Y-88344767D01*
X53449171Y-88345489D01*
X54949171Y-88345489D01*
X54963874Y-88344767D01*
X54992714Y-88339030D01*
X55019881Y-88327777D01*
X55044330Y-88311441D01*
X55065123Y-88290648D01*
X55081459Y-88266199D01*
X55092712Y-88239032D01*
X55098449Y-88210192D01*
X55099171Y-88195489D01*
X55099171Y-87695489D01*
X55098449Y-87680786D01*
X55097408Y-87675556D01*
X55097031Y-87670241D01*
X55094547Y-87661171D01*
X55092712Y-87651946D01*
X55090671Y-87647020D01*
X55089264Y-87641880D01*
X55083335Y-87628406D01*
X55011906Y-87485550D01*
X55010493Y-87483040D01*
X55010031Y-87481924D01*
X55008976Y-87480345D01*
X55004685Y-87472722D01*
X54998918Y-87465291D01*
X54993695Y-87457474D01*
X54987822Y-87450994D01*
X54986656Y-87449492D01*
X54985740Y-87448698D01*
X54983809Y-87446567D01*
X54912381Y-87375138D01*
X54910248Y-87373205D01*
X54909454Y-87372289D01*
X54907949Y-87371121D01*
X54901474Y-87365252D01*
X54893657Y-87360028D01*
X54886224Y-87354260D01*
X54878603Y-87349970D01*
X54877024Y-87348915D01*
X54875906Y-87348451D01*
X54873396Y-87347039D01*
X54730539Y-87275610D01*
X54717066Y-87269680D01*
X54711919Y-87268270D01*
X54707000Y-87266233D01*
X54697779Y-87264398D01*
X54688705Y-87261914D01*
X54683389Y-87261536D01*
X54678160Y-87260496D01*
X54663457Y-87259774D01*
X54520600Y-87259774D01*
X54505897Y-87260496D01*
X54500667Y-87261536D01*
X54495352Y-87261914D01*
X54486279Y-87264398D01*
X54477057Y-87266233D01*
X54472135Y-87268271D01*
X54466992Y-87269680D01*
X54453518Y-87275610D01*
X54310660Y-87347039D01*
X54308149Y-87348451D01*
X54307032Y-87348915D01*
X54305452Y-87349970D01*
X54297832Y-87354260D01*
X54290398Y-87360028D01*
X54282582Y-87365252D01*
X54276106Y-87371121D01*
X54274602Y-87372289D01*
X54273807Y-87373205D01*
X54271675Y-87375138D01*
X54270546Y-87376266D01*
X54269523Y-87375137D01*
X54198094Y-87303708D01*
X54195957Y-87301771D01*
X54195167Y-87300860D01*
X54193669Y-87299698D01*
X54187187Y-87293822D01*
X54179368Y-87288598D01*
X54171938Y-87282831D01*
X54164311Y-87278537D01*
X54162737Y-87277486D01*
X54161622Y-87277024D01*
X54159110Y-87275610D01*
X54016253Y-87204182D01*
X54002779Y-87198252D01*
X53997635Y-87196843D01*
X53992714Y-87194805D01*
X53983489Y-87192970D01*
X53974418Y-87190486D01*
X53969104Y-87190108D01*
X53963874Y-87189068D01*
X53949171Y-87188346D01*
X53734885Y-87188346D01*
X53720182Y-87189068D01*
X53714952Y-87190108D01*
X53709638Y-87190486D01*
X53700566Y-87192970D01*
X53691342Y-87194805D01*
X53686420Y-87196843D01*
X53681277Y-87198252D01*
X53667804Y-87204182D01*
X53524946Y-87275610D01*
X53522435Y-87277022D01*
X53521318Y-87277486D01*
X53519738Y-87278541D01*
X53512118Y-87282831D01*
X53504687Y-87288598D01*
X53496868Y-87293823D01*
X53490386Y-87299697D01*
X53488889Y-87300860D01*
X53488097Y-87301772D01*
X53485961Y-87303709D01*
X53414533Y-87375138D01*
X53412601Y-87377269D01*
X53411686Y-87378063D01*
X53410519Y-87379565D01*
X53404647Y-87386045D01*
X53399423Y-87393862D01*
X53393657Y-87401293D01*
X53389365Y-87408916D01*
X53388311Y-87410495D01*
X53387848Y-87411612D01*
X53386436Y-87414121D01*
X53315007Y-87556978D01*
X53309077Y-87570451D01*
X53307667Y-87575597D01*
X53305630Y-87580517D01*
X53303795Y-87589737D01*
X53301311Y-87598812D01*
X53300933Y-87604127D01*
X53299893Y-87609357D01*
X53299171Y-87624060D01*
X52632560Y-87624060D01*
X52632560Y-86842430D01*
X52799227Y-86842430D01*
X52802904Y-86871603D01*
X52812203Y-86899500D01*
X52826765Y-86925045D01*
X52846031Y-86947260D01*
X52869261Y-86965289D01*
X52895562Y-86978440D01*
X52923923Y-86986206D01*
X52953255Y-86988290D01*
X52982428Y-86984613D01*
X53010325Y-86975314D01*
X53035870Y-86960752D01*
X53058085Y-86941486D01*
X53076114Y-86918256D01*
X53083335Y-86905428D01*
X53143878Y-86784341D01*
X53176322Y-86751897D01*
X53452176Y-86641555D01*
X54398720Y-86979607D01*
X54412810Y-86983872D01*
X54441899Y-86988170D01*
X54471268Y-86986709D01*
X54499787Y-86979548D01*
X54526362Y-86966960D01*
X54549970Y-86949430D01*
X54569704Y-86927630D01*
X54584807Y-86902400D01*
X54594697Y-86874707D01*
X54598995Y-86845618D01*
X54597534Y-86816249D01*
X54590373Y-86787730D01*
X54577785Y-86761155D01*
X54560255Y-86737547D01*
X54538455Y-86717812D01*
X54513225Y-86702710D01*
X54499621Y-86697085D01*
X53895151Y-86481203D01*
X54499621Y-86265321D01*
X54513225Y-86259696D01*
X54538455Y-86244594D01*
X54560255Y-86224859D01*
X54577785Y-86201251D01*
X54590373Y-86174676D01*
X54597534Y-86146157D01*
X54598995Y-86116788D01*
X54594697Y-86087699D01*
X54584807Y-86060006D01*
X54569704Y-86034776D01*
X54549970Y-86012976D01*
X54526362Y-85995446D01*
X54499787Y-85982858D01*
X54471268Y-85975697D01*
X54441899Y-85974236D01*
X54412810Y-85978534D01*
X54398720Y-85982799D01*
X53398721Y-86339942D01*
X53398614Y-86339986D01*
X53398555Y-86340001D01*
X53398394Y-86340076D01*
X53396131Y-86341012D01*
X53393463Y-86341931D01*
X53036319Y-86484788D01*
X53022936Y-86490919D01*
X53022163Y-86491421D01*
X53021318Y-86491772D01*
X53009860Y-86499427D01*
X52998290Y-86506957D01*
X52997634Y-86507597D01*
X52996868Y-86508109D01*
X52985961Y-86517995D01*
X52914533Y-86589424D01*
X52912601Y-86591555D01*
X52911686Y-86592349D01*
X52910519Y-86593851D01*
X52904647Y-86600331D01*
X52899423Y-86608148D01*
X52893657Y-86615579D01*
X52889365Y-86623202D01*
X52888311Y-86624781D01*
X52887848Y-86625898D01*
X52886436Y-86628407D01*
X52815007Y-86771264D01*
X52809077Y-86784737D01*
X52801311Y-86813098D01*
X52799227Y-86842430D01*
X52632560Y-86842430D01*
X52632560Y-83619977D01*
X53299227Y-83619977D01*
X53301311Y-83649308D01*
X53309077Y-83677669D01*
X53322228Y-83703970D01*
X53340256Y-83727199D01*
X53362471Y-83746465D01*
X53388017Y-83761028D01*
X53401737Y-83766362D01*
X53727742Y-83875030D01*
X53727742Y-84373089D01*
X53401737Y-84481758D01*
X53388017Y-84487092D01*
X53362471Y-84501655D01*
X53340256Y-84520921D01*
X53322228Y-84544150D01*
X53309077Y-84570451D01*
X53301311Y-84598812D01*
X53299227Y-84628143D01*
X53302904Y-84657317D01*
X53312203Y-84685214D01*
X53326766Y-84710760D01*
X53346032Y-84732975D01*
X53369261Y-84751003D01*
X53395562Y-84764154D01*
X53423923Y-84771920D01*
X53453254Y-84774004D01*
X53482428Y-84770327D01*
X53496605Y-84766362D01*
X54996605Y-84266362D01*
X55001104Y-84264612D01*
X55002780Y-84264154D01*
X55004510Y-84263288D01*
X55010326Y-84261028D01*
X55019561Y-84255763D01*
X55029081Y-84251003D01*
X55032319Y-84248489D01*
X55035871Y-84246465D01*
X55043898Y-84239503D01*
X55052310Y-84232975D01*
X55054993Y-84229881D01*
X55058086Y-84227199D01*
X55064608Y-84218794D01*
X55071577Y-84210760D01*
X55073603Y-84207204D01*
X55076114Y-84203970D01*
X55080872Y-84194452D01*
X55086139Y-84185214D01*
X55087433Y-84181332D01*
X55089265Y-84177668D01*
X55092075Y-84167404D01*
X55095438Y-84157317D01*
X55095950Y-84153255D01*
X55097031Y-84149308D01*
X55097785Y-84138699D01*
X55099116Y-84128143D01*
X55098825Y-84124060D01*
X55099116Y-84119977D01*
X55097785Y-84109420D01*
X55097031Y-84098812D01*
X55095950Y-84094864D01*
X55095438Y-84090803D01*
X55092075Y-84080715D01*
X55089265Y-84070452D01*
X55087433Y-84066788D01*
X55086139Y-84062906D01*
X55080872Y-84053667D01*
X55076114Y-84044150D01*
X55073603Y-84040915D01*
X55071577Y-84037360D01*
X55064608Y-84029325D01*
X55058086Y-84020921D01*
X55054993Y-84018238D01*
X55052310Y-84015145D01*
X55043898Y-84008616D01*
X55035871Y-84001655D01*
X55032319Y-83999630D01*
X55029081Y-83997117D01*
X55019561Y-83992356D01*
X55010326Y-83987092D01*
X55004510Y-83984831D01*
X55002780Y-83983966D01*
X55001104Y-83983507D01*
X54996605Y-83981758D01*
X53496605Y-83481758D01*
X53482428Y-83477793D01*
X53453254Y-83474116D01*
X53423923Y-83476200D01*
X53395562Y-83483966D01*
X53369261Y-83497117D01*
X53346032Y-83515145D01*
X53326766Y-83537360D01*
X53312203Y-83562906D01*
X53302904Y-83590803D01*
X53299227Y-83619977D01*
X52632560Y-83619977D01*
X52632560Y-83109358D01*
X53299893Y-83109358D01*
X53299893Y-83138764D01*
X53305630Y-83167604D01*
X53316883Y-83194771D01*
X53333219Y-83219220D01*
X53354012Y-83240013D01*
X53378461Y-83256349D01*
X53405628Y-83267602D01*
X53434468Y-83273339D01*
X53449171Y-83274061D01*
X54449171Y-83274061D01*
X54463874Y-83273339D01*
X54492714Y-83267602D01*
X54519881Y-83256349D01*
X54544330Y-83240013D01*
X54565123Y-83219220D01*
X54581459Y-83194771D01*
X54592712Y-83167604D01*
X54598449Y-83138764D01*
X54598449Y-83109358D01*
X54657036Y-83109358D01*
X54657036Y-83138764D01*
X54662773Y-83167604D01*
X54674026Y-83194771D01*
X54684329Y-83210191D01*
X54690362Y-83219220D01*
X54700248Y-83230127D01*
X54771676Y-83301555D01*
X54782583Y-83311441D01*
X54807032Y-83327777D01*
X54834199Y-83339030D01*
X54863038Y-83344767D01*
X54863039Y-83344767D01*
X54892445Y-83344767D01*
X54898181Y-83343625D01*
X54921283Y-83339031D01*
X54948450Y-83327778D01*
X54972900Y-83311442D01*
X54983807Y-83301556D01*
X55055236Y-83230128D01*
X55065122Y-83219221D01*
X55081459Y-83194771D01*
X55092712Y-83167604D01*
X55098449Y-83138765D01*
X55098449Y-83109359D01*
X55092712Y-83080520D01*
X55092712Y-83080519D01*
X55092712Y-83080518D01*
X55081459Y-83053351D01*
X55065123Y-83028902D01*
X55055237Y-83017995D01*
X54983808Y-82946566D01*
X54972901Y-82936680D01*
X54948451Y-82920344D01*
X54948452Y-82920344D01*
X54948450Y-82920343D01*
X54932536Y-82913751D01*
X54921284Y-82909091D01*
X54892445Y-82903354D01*
X54892444Y-82903354D01*
X54863038Y-82903354D01*
X54834199Y-82909091D01*
X54807032Y-82920344D01*
X54790696Y-82931259D01*
X54782585Y-82936679D01*
X54782582Y-82936681D01*
X54771675Y-82946567D01*
X54700247Y-83017996D01*
X54690361Y-83028903D01*
X54674025Y-83053353D01*
X54662772Y-83080520D01*
X54658832Y-83100329D01*
X54657036Y-83109358D01*
X54598449Y-83109358D01*
X54592712Y-83080518D01*
X54581459Y-83053351D01*
X54565123Y-83028902D01*
X54544330Y-83008109D01*
X54519881Y-82991773D01*
X54492714Y-82980520D01*
X54463874Y-82974783D01*
X54449171Y-82974061D01*
X53449171Y-82974061D01*
X53434468Y-82974783D01*
X53405628Y-82980520D01*
X53378461Y-82991773D01*
X53354012Y-83008109D01*
X53333219Y-83028902D01*
X53316883Y-83053351D01*
X53305630Y-83080518D01*
X53299893Y-83109358D01*
X52632560Y-83109358D01*
X52632560Y-82395072D01*
X53299893Y-82395072D01*
X53299893Y-82424478D01*
X53305630Y-82453318D01*
X53316883Y-82480485D01*
X53333219Y-82504934D01*
X53354012Y-82525727D01*
X53378461Y-82542063D01*
X53405628Y-82553316D01*
X53434468Y-82559053D01*
X53449171Y-82559775D01*
X54449171Y-82559775D01*
X54463874Y-82559053D01*
X54492714Y-82553316D01*
X54519881Y-82542063D01*
X54544330Y-82525727D01*
X54565123Y-82504934D01*
X54581459Y-82480485D01*
X54592712Y-82453318D01*
X54598449Y-82424478D01*
X54598449Y-82395072D01*
X54592712Y-82366232D01*
X54581459Y-82339065D01*
X54565123Y-82314616D01*
X54544330Y-82293823D01*
X54535083Y-82287644D01*
X54583335Y-82191142D01*
X54589265Y-82177668D01*
X54590673Y-82172524D01*
X54592712Y-82167603D01*
X54594546Y-82158380D01*
X54597031Y-82149308D01*
X54597408Y-82143992D01*
X54598449Y-82138763D01*
X54599171Y-82124060D01*
X54599171Y-81981203D01*
X54598449Y-81966500D01*
X54592712Y-81937660D01*
X54581459Y-81910493D01*
X54565123Y-81886044D01*
X54544330Y-81865251D01*
X54519881Y-81848915D01*
X54492714Y-81837662D01*
X54463874Y-81831925D01*
X54434468Y-81831925D01*
X54405628Y-81837662D01*
X54378461Y-81848915D01*
X54354012Y-81865251D01*
X54333219Y-81886044D01*
X54316883Y-81910493D01*
X54305630Y-81937660D01*
X54299893Y-81966500D01*
X54299171Y-81981203D01*
X54299171Y-82088650D01*
X54254464Y-82178064D01*
X54217460Y-82215067D01*
X54128047Y-82259775D01*
X53449171Y-82259775D01*
X53434468Y-82260497D01*
X53405628Y-82266234D01*
X53378461Y-82277487D01*
X53354012Y-82293823D01*
X53333219Y-82314616D01*
X53316883Y-82339065D01*
X53305630Y-82366232D01*
X53299893Y-82395072D01*
X52632560Y-82395072D01*
X52632560Y-81124061D01*
X53299171Y-81124061D01*
X53299171Y-81409775D01*
X53299893Y-81424478D01*
X53300933Y-81429707D01*
X53301311Y-81435023D01*
X53303795Y-81444097D01*
X53305630Y-81453318D01*
X53307667Y-81458237D01*
X53309077Y-81463384D01*
X53315007Y-81476857D01*
X53386436Y-81619714D01*
X53393657Y-81632542D01*
X53411686Y-81655772D01*
X53433901Y-81675038D01*
X53459446Y-81689600D01*
X53487343Y-81698899D01*
X53516516Y-81702576D01*
X53545848Y-81700492D01*
X53574209Y-81692725D01*
X53600510Y-81679575D01*
X53623740Y-81661545D01*
X53643006Y-81639331D01*
X53657568Y-81613786D01*
X53666867Y-81585889D01*
X53670544Y-81556715D01*
X53668460Y-81527384D01*
X53660693Y-81499023D01*
X53654764Y-81485549D01*
X53599171Y-81374364D01*
X53599171Y-81159471D01*
X53632403Y-81093006D01*
X53698867Y-81059775D01*
X53699475Y-81059775D01*
X53765939Y-81093007D01*
X53799171Y-81159471D01*
X53799171Y-81338347D01*
X53799893Y-81353050D01*
X53800933Y-81358279D01*
X53801311Y-81363595D01*
X53803795Y-81372669D01*
X53805630Y-81381890D01*
X53807667Y-81386809D01*
X53809077Y-81391956D01*
X53815007Y-81405429D01*
X53886436Y-81548286D01*
X53893657Y-81561114D01*
X53896166Y-81564347D01*
X53898194Y-81567904D01*
X53905160Y-81575936D01*
X53911686Y-81584344D01*
X53914781Y-81587028D01*
X53917461Y-81590118D01*
X53925864Y-81596640D01*
X53933901Y-81603610D01*
X53937453Y-81605635D01*
X53940690Y-81608147D01*
X53953518Y-81615368D01*
X54096376Y-81686796D01*
X54109849Y-81692726D01*
X54114992Y-81694134D01*
X54119914Y-81696173D01*
X54129138Y-81698007D01*
X54138210Y-81700492D01*
X54143524Y-81700869D01*
X54148754Y-81701910D01*
X54163457Y-81702632D01*
X54234885Y-81702632D01*
X54249588Y-81701910D01*
X54254818Y-81700869D01*
X54260132Y-81700492D01*
X54269203Y-81698007D01*
X54278428Y-81696173D01*
X54283349Y-81694134D01*
X54288493Y-81692726D01*
X54301967Y-81686796D01*
X54444824Y-81615368D01*
X54457652Y-81608147D01*
X54460888Y-81605635D01*
X54464441Y-81603610D01*
X54472477Y-81596640D01*
X54480881Y-81590118D01*
X54483560Y-81587028D01*
X54486656Y-81584344D01*
X54493181Y-81575936D01*
X54500148Y-81567904D01*
X54502174Y-81564348D01*
X54504685Y-81561114D01*
X54511906Y-81548286D01*
X54583335Y-81405430D01*
X54589264Y-81391956D01*
X54590671Y-81386815D01*
X54592712Y-81381890D01*
X54594547Y-81372664D01*
X54597031Y-81363595D01*
X54597408Y-81358279D01*
X54598449Y-81353050D01*
X54599171Y-81338347D01*
X54599171Y-81124061D01*
X54598449Y-81109358D01*
X54597408Y-81104128D01*
X54597031Y-81098813D01*
X54594547Y-81089743D01*
X54592712Y-81080518D01*
X54590671Y-81075592D01*
X54589264Y-81070452D01*
X54583335Y-81056978D01*
X54511906Y-80914122D01*
X54504685Y-80901294D01*
X54486656Y-80878064D01*
X54464441Y-80858798D01*
X54438896Y-80844236D01*
X54410999Y-80834937D01*
X54381826Y-80831260D01*
X54352494Y-80833344D01*
X54324133Y-80841110D01*
X54297832Y-80854261D01*
X54274602Y-80872290D01*
X54255336Y-80894505D01*
X54240774Y-80920050D01*
X54231475Y-80947947D01*
X54227798Y-80977120D01*
X54229882Y-81006452D01*
X54237648Y-81034813D01*
X54243578Y-81048286D01*
X54299171Y-81159471D01*
X54299171Y-81302936D01*
X54265938Y-81369400D01*
X54199475Y-81402632D01*
X54198867Y-81402632D01*
X54132403Y-81369400D01*
X54099171Y-81302936D01*
X54099171Y-81124061D01*
X54098449Y-81109358D01*
X54097408Y-81104128D01*
X54097031Y-81098813D01*
X54094547Y-81089743D01*
X54092712Y-81080518D01*
X54090671Y-81075592D01*
X54089264Y-81070452D01*
X54083335Y-81056978D01*
X54011906Y-80914122D01*
X54004685Y-80901294D01*
X54002173Y-80898057D01*
X54000148Y-80894505D01*
X53993182Y-80886473D01*
X53986656Y-80878064D01*
X53983563Y-80875382D01*
X53980882Y-80872290D01*
X53972472Y-80865763D01*
X53964441Y-80858798D01*
X53960888Y-80856772D01*
X53957652Y-80854261D01*
X53944824Y-80847040D01*
X53801967Y-80775611D01*
X53788494Y-80769681D01*
X53783347Y-80768271D01*
X53778428Y-80766234D01*
X53769207Y-80764399D01*
X53760133Y-80761915D01*
X53754817Y-80761537D01*
X53749588Y-80760497D01*
X53734885Y-80759775D01*
X53663457Y-80759775D01*
X53648754Y-80760497D01*
X53643524Y-80761537D01*
X53638209Y-80761915D01*
X53629139Y-80764398D01*
X53619914Y-80766234D01*
X53614988Y-80768274D01*
X53609848Y-80769682D01*
X53596374Y-80775611D01*
X53453518Y-80847040D01*
X53440690Y-80854261D01*
X53437453Y-80856772D01*
X53433901Y-80858798D01*
X53425869Y-80865763D01*
X53417460Y-80872290D01*
X53414778Y-80875382D01*
X53411686Y-80878064D01*
X53405159Y-80886473D01*
X53398194Y-80894505D01*
X53396168Y-80898057D01*
X53393657Y-80901294D01*
X53386436Y-80914122D01*
X53315007Y-81056979D01*
X53309077Y-81070452D01*
X53307667Y-81075598D01*
X53305630Y-81080518D01*
X53303795Y-81089738D01*
X53301311Y-81098813D01*
X53300933Y-81104128D01*
X53299893Y-81109358D01*
X53299171Y-81124061D01*
X52632560Y-81124061D01*
X52632560Y-79838346D01*
X53299171Y-79838346D01*
X53299171Y-80052632D01*
X53299893Y-80067335D01*
X53300933Y-80072564D01*
X53301311Y-80077880D01*
X53303795Y-80086954D01*
X53305630Y-80096175D01*
X53307667Y-80101094D01*
X53309077Y-80106241D01*
X53315007Y-80119714D01*
X53386436Y-80262571D01*
X53387848Y-80265079D01*
X53388311Y-80266197D01*
X53389365Y-80267775D01*
X53393657Y-80275399D01*
X53399423Y-80282829D01*
X53404647Y-80290647D01*
X53410519Y-80297126D01*
X53411686Y-80298629D01*
X53412601Y-80299422D01*
X53414533Y-80301554D01*
X53485961Y-80372983D01*
X53488097Y-80374919D01*
X53488889Y-80375832D01*
X53490386Y-80376994D01*
X53496868Y-80382869D01*
X53504687Y-80388093D01*
X53512118Y-80393861D01*
X53519738Y-80398150D01*
X53521318Y-80399206D01*
X53522435Y-80399669D01*
X53524946Y-80401082D01*
X53667804Y-80472510D01*
X53681277Y-80478440D01*
X53686420Y-80479848D01*
X53691342Y-80481887D01*
X53700566Y-80483721D01*
X53709638Y-80486206D01*
X53714952Y-80486583D01*
X53720182Y-80487624D01*
X53734885Y-80488346D01*
X54163457Y-80488346D01*
X54178160Y-80487624D01*
X54183390Y-80486583D01*
X54188704Y-80486206D01*
X54197775Y-80483721D01*
X54207000Y-80481887D01*
X54211921Y-80479848D01*
X54217065Y-80478440D01*
X54230539Y-80472510D01*
X54373396Y-80401082D01*
X54375906Y-80399669D01*
X54377024Y-80399206D01*
X54378603Y-80398150D01*
X54386224Y-80393861D01*
X54393654Y-80388093D01*
X54401474Y-80382869D01*
X54407955Y-80376994D01*
X54409453Y-80375832D01*
X54410244Y-80374919D01*
X54412381Y-80372983D01*
X54483809Y-80301554D01*
X54485740Y-80299422D01*
X54486656Y-80298629D01*
X54487822Y-80297126D01*
X54493695Y-80290647D01*
X54498918Y-80282829D01*
X54504685Y-80275399D01*
X54508976Y-80267775D01*
X54510031Y-80266197D01*
X54510493Y-80265080D01*
X54511906Y-80262571D01*
X54583335Y-80119715D01*
X54589264Y-80106241D01*
X54590671Y-80101100D01*
X54592712Y-80096175D01*
X54594547Y-80086949D01*
X54597031Y-80077880D01*
X54597408Y-80072564D01*
X54598449Y-80067335D01*
X54599171Y-80052632D01*
X54599171Y-79838346D01*
X54598449Y-79823643D01*
X54597408Y-79818413D01*
X54597031Y-79813098D01*
X54594547Y-79804028D01*
X54592712Y-79794803D01*
X54590671Y-79789877D01*
X54589264Y-79784737D01*
X54583335Y-79771263D01*
X54511906Y-79628407D01*
X54510493Y-79625896D01*
X54510030Y-79624779D01*
X54508974Y-79623199D01*
X54504685Y-79615579D01*
X54498917Y-79608147D01*
X54493694Y-79600330D01*
X54487823Y-79593852D01*
X54486656Y-79592349D01*
X54485740Y-79591554D01*
X54483808Y-79589423D01*
X54412380Y-79517995D01*
X54410248Y-79516062D01*
X54409454Y-79515147D01*
X54407950Y-79513979D01*
X54401473Y-79508109D01*
X54393657Y-79502886D01*
X54386224Y-79497118D01*
X54378597Y-79492824D01*
X54377023Y-79491773D01*
X54375908Y-79491311D01*
X54373396Y-79489897D01*
X54230539Y-79418468D01*
X54217066Y-79412538D01*
X54211919Y-79411128D01*
X54207000Y-79409091D01*
X54197779Y-79407256D01*
X54188705Y-79404772D01*
X54183389Y-79404394D01*
X54178160Y-79403354D01*
X54163457Y-79402632D01*
X53734885Y-79402632D01*
X53720182Y-79403354D01*
X53714952Y-79404394D01*
X53709637Y-79404772D01*
X53700567Y-79407255D01*
X53691342Y-79409091D01*
X53686416Y-79411131D01*
X53681276Y-79412539D01*
X53667802Y-79418468D01*
X53524946Y-79489897D01*
X53522435Y-79491309D01*
X53521318Y-79491773D01*
X53519738Y-79492828D01*
X53512118Y-79497118D01*
X53504686Y-79502885D01*
X53496869Y-79508109D01*
X53490391Y-79513979D01*
X53488888Y-79515147D01*
X53488093Y-79516062D01*
X53485962Y-79517995D01*
X53414534Y-79589423D01*
X53412601Y-79591554D01*
X53411686Y-79592349D01*
X53410518Y-79593852D01*
X53404648Y-79600330D01*
X53399425Y-79608145D01*
X53393657Y-79615579D01*
X53389363Y-79623205D01*
X53388312Y-79624780D01*
X53387850Y-79625894D01*
X53386436Y-79628407D01*
X53315007Y-79771264D01*
X53309077Y-79784737D01*
X53307667Y-79789883D01*
X53305630Y-79794803D01*
X53303795Y-79804023D01*
X53301311Y-79813098D01*
X53300933Y-79818413D01*
X53299893Y-79823643D01*
X53299171Y-79838346D01*
X52632560Y-79838346D01*
X52632560Y-77695489D01*
X53299171Y-77695489D01*
X53299171Y-77838346D01*
X53299893Y-77853049D01*
X53300933Y-77858278D01*
X53301311Y-77863594D01*
X53303795Y-77872668D01*
X53305630Y-77881889D01*
X53307667Y-77886808D01*
X53309077Y-77891955D01*
X53315007Y-77905428D01*
X53386436Y-78048285D01*
X53393657Y-78061113D01*
X53396168Y-78064349D01*
X53398194Y-78067902D01*
X53405159Y-78075933D01*
X53411686Y-78084343D01*
X53414778Y-78087024D01*
X53417460Y-78090117D01*
X53425869Y-78096643D01*
X53433901Y-78103609D01*
X53437453Y-78105634D01*
X53440690Y-78108146D01*
X53453518Y-78115367D01*
X53596374Y-78186796D01*
X53609848Y-78192725D01*
X53614988Y-78194132D01*
X53619914Y-78196173D01*
X53629139Y-78198008D01*
X53638209Y-78200492D01*
X53643524Y-78200869D01*
X53648754Y-78201910D01*
X53663457Y-78202632D01*
X54299171Y-78202632D01*
X54299171Y-78266917D01*
X54299893Y-78281620D01*
X54305630Y-78310460D01*
X54316883Y-78337627D01*
X54333219Y-78362076D01*
X54354012Y-78382869D01*
X54378461Y-78399205D01*
X54403977Y-78409774D01*
X54378461Y-78420344D01*
X54354012Y-78436680D01*
X54333219Y-78457473D01*
X54316883Y-78481922D01*
X54305630Y-78509089D01*
X54299893Y-78537929D01*
X54299171Y-78552632D01*
X54299171Y-78759775D01*
X53449171Y-78759775D01*
X53434468Y-78760497D01*
X53405628Y-78766234D01*
X53378461Y-78777487D01*
X53354012Y-78793823D01*
X53333219Y-78814616D01*
X53316883Y-78839065D01*
X53305630Y-78866232D01*
X53299893Y-78895072D01*
X53299893Y-78924478D01*
X53305630Y-78953318D01*
X53316883Y-78980485D01*
X53333219Y-79004934D01*
X53354012Y-79025727D01*
X53378461Y-79042063D01*
X53405628Y-79053316D01*
X53434468Y-79059053D01*
X53449171Y-79059775D01*
X54299171Y-79059775D01*
X54299171Y-79124060D01*
X54299893Y-79138763D01*
X54305630Y-79167603D01*
X54316883Y-79194770D01*
X54333219Y-79219219D01*
X54354012Y-79240012D01*
X54378461Y-79256348D01*
X54405628Y-79267601D01*
X54434468Y-79273338D01*
X54463874Y-79273338D01*
X54492714Y-79267601D01*
X54519881Y-79256348D01*
X54544330Y-79240012D01*
X54565123Y-79219219D01*
X54581459Y-79194770D01*
X54592712Y-79167603D01*
X54598449Y-79138763D01*
X54599171Y-79124060D01*
X54599171Y-79059775D01*
X54734885Y-79059775D01*
X54749588Y-79059053D01*
X54754817Y-79058012D01*
X54760133Y-79057635D01*
X54769207Y-79055150D01*
X54778428Y-79053316D01*
X54783347Y-79051278D01*
X54788494Y-79049869D01*
X54801967Y-79043939D01*
X54944824Y-78972510D01*
X54957652Y-78965289D01*
X54960888Y-78962777D01*
X54964441Y-78960752D01*
X54972472Y-78953786D01*
X54980882Y-78947260D01*
X54983563Y-78944167D01*
X54986656Y-78941486D01*
X54993182Y-78933076D01*
X55000148Y-78925045D01*
X55002173Y-78921492D01*
X55004685Y-78918256D01*
X55011906Y-78905428D01*
X55083335Y-78762572D01*
X55089264Y-78749098D01*
X55090671Y-78743957D01*
X55092712Y-78739032D01*
X55094547Y-78729806D01*
X55097031Y-78720737D01*
X55097408Y-78715421D01*
X55098449Y-78710192D01*
X55099171Y-78695489D01*
X55099171Y-78552632D01*
X55098449Y-78537929D01*
X55092712Y-78509089D01*
X55081459Y-78481922D01*
X55065123Y-78457473D01*
X55044330Y-78436680D01*
X55019881Y-78420344D01*
X54992714Y-78409091D01*
X54963874Y-78403354D01*
X54934468Y-78403354D01*
X54905628Y-78409091D01*
X54878461Y-78420344D01*
X54854012Y-78436680D01*
X54833219Y-78457473D01*
X54816883Y-78481922D01*
X54805630Y-78509089D01*
X54799893Y-78537929D01*
X54799171Y-78552632D01*
X54799171Y-78660078D01*
X54765939Y-78726542D01*
X54699475Y-78759775D01*
X54599171Y-78759775D01*
X54599171Y-78552632D01*
X54598449Y-78537929D01*
X54592712Y-78509089D01*
X54581459Y-78481922D01*
X54565123Y-78457473D01*
X54544330Y-78436680D01*
X54519881Y-78420344D01*
X54494364Y-78409774D01*
X54519881Y-78399205D01*
X54544330Y-78382869D01*
X54565123Y-78362076D01*
X54581459Y-78337627D01*
X54592712Y-78310460D01*
X54598449Y-78281620D01*
X54599171Y-78266917D01*
X54599171Y-78202632D01*
X54949171Y-78202632D01*
X54963874Y-78201910D01*
X54992714Y-78196173D01*
X55019881Y-78184920D01*
X55044330Y-78168584D01*
X55065123Y-78147791D01*
X55081459Y-78123342D01*
X55092712Y-78096175D01*
X55098449Y-78067335D01*
X55098449Y-78037929D01*
X55092712Y-78009089D01*
X55081459Y-77981922D01*
X55065123Y-77957473D01*
X55044330Y-77936680D01*
X55019881Y-77920344D01*
X54992714Y-77909091D01*
X54963874Y-77903354D01*
X54949171Y-77902632D01*
X54599171Y-77902632D01*
X54599171Y-77695489D01*
X54598449Y-77680786D01*
X54592712Y-77651946D01*
X54581459Y-77624779D01*
X54565123Y-77600330D01*
X54544330Y-77579537D01*
X54519881Y-77563201D01*
X54492714Y-77551948D01*
X54463874Y-77546211D01*
X54434468Y-77546211D01*
X54405628Y-77551948D01*
X54378461Y-77563201D01*
X54354012Y-77579537D01*
X54333219Y-77600330D01*
X54316883Y-77624779D01*
X54305630Y-77651946D01*
X54299893Y-77680786D01*
X54299171Y-77695489D01*
X54299171Y-77902632D01*
X53698867Y-77902632D01*
X53632403Y-77869400D01*
X53599171Y-77802935D01*
X53599171Y-77695489D01*
X53598449Y-77680786D01*
X53592712Y-77651946D01*
X53581459Y-77624779D01*
X53565123Y-77600330D01*
X53544330Y-77579537D01*
X53519881Y-77563201D01*
X53492714Y-77551948D01*
X53463874Y-77546211D01*
X53434468Y-77546211D01*
X53405628Y-77551948D01*
X53378461Y-77563201D01*
X53354012Y-77579537D01*
X53333219Y-77600330D01*
X53316883Y-77624779D01*
X53305630Y-77651946D01*
X53299893Y-77680786D01*
X53299171Y-77695489D01*
X52632560Y-77695489D01*
X52632560Y-76630616D01*
X53299314Y-76630616D01*
X53303473Y-76659726D01*
X53313230Y-76687464D01*
X53328212Y-76712767D01*
X53347842Y-76734661D01*
X53359171Y-76744060D01*
X53761076Y-77045489D01*
X53449171Y-77045489D01*
X53434468Y-77046211D01*
X53405628Y-77051948D01*
X53378461Y-77063201D01*
X53354012Y-77079537D01*
X53333219Y-77100330D01*
X53316883Y-77124779D01*
X53305630Y-77151946D01*
X53299893Y-77180786D01*
X53299893Y-77210192D01*
X53305630Y-77239032D01*
X53316883Y-77266199D01*
X53333219Y-77290648D01*
X53354012Y-77311441D01*
X53378461Y-77327777D01*
X53405628Y-77339030D01*
X53434468Y-77344767D01*
X53449171Y-77345489D01*
X54949171Y-77345489D01*
X54963874Y-77344767D01*
X54992714Y-77339030D01*
X55019881Y-77327777D01*
X55044330Y-77311441D01*
X55065123Y-77290648D01*
X55081459Y-77266199D01*
X55092712Y-77239032D01*
X55098449Y-77210192D01*
X55098449Y-77180786D01*
X55092712Y-77151946D01*
X55081459Y-77124779D01*
X55065123Y-77100330D01*
X55044330Y-77079537D01*
X55019881Y-77063201D01*
X54992714Y-77051948D01*
X54963874Y-77046211D01*
X54949171Y-77045489D01*
X54239874Y-77045489D01*
X54555237Y-76730126D01*
X54565123Y-76719219D01*
X54581460Y-76694769D01*
X54592713Y-76667602D01*
X54598449Y-76638763D01*
X54598449Y-76609357D01*
X54592713Y-76580518D01*
X54581460Y-76553350D01*
X54565123Y-76528901D01*
X54544330Y-76508108D01*
X54519881Y-76491771D01*
X54492713Y-76480518D01*
X54463874Y-76474782D01*
X54434468Y-76474782D01*
X54405629Y-76480518D01*
X54378462Y-76491771D01*
X54354012Y-76508108D01*
X54343105Y-76517994D01*
X54006524Y-76854574D01*
X53539171Y-76504060D01*
X53526975Y-76495816D01*
X53500461Y-76483101D01*
X53471976Y-76475804D01*
X53442615Y-76474203D01*
X53413505Y-76478362D01*
X53385767Y-76488119D01*
X53360464Y-76503101D01*
X53338570Y-76522731D01*
X53320927Y-76546256D01*
X53308212Y-76572770D01*
X53300915Y-76601255D01*
X53299314Y-76630616D01*
X52632560Y-76630616D01*
X52632560Y-75481203D01*
X53299171Y-75481203D01*
X53299171Y-75838346D01*
X53299893Y-75853049D01*
X53300933Y-75858278D01*
X53301311Y-75863594D01*
X53303795Y-75872668D01*
X53305630Y-75881889D01*
X53307667Y-75886808D01*
X53309077Y-75891955D01*
X53315007Y-75905428D01*
X53386436Y-76048285D01*
X53393657Y-76061113D01*
X53396166Y-76064346D01*
X53398194Y-76067903D01*
X53405160Y-76075935D01*
X53411686Y-76084343D01*
X53414781Y-76087027D01*
X53417461Y-76090117D01*
X53425864Y-76096639D01*
X53433901Y-76103609D01*
X53437453Y-76105634D01*
X53440690Y-76108146D01*
X53453518Y-76115367D01*
X53596376Y-76186795D01*
X53609849Y-76192725D01*
X53614992Y-76194133D01*
X53619914Y-76196172D01*
X53629138Y-76198006D01*
X53638210Y-76200491D01*
X53643524Y-76200868D01*
X53648754Y-76201909D01*
X53663457Y-76202631D01*
X53806314Y-76202631D01*
X53821017Y-76201909D01*
X53826247Y-76200868D01*
X53831561Y-76200491D01*
X53840632Y-76198006D01*
X53849857Y-76196172D01*
X53854778Y-76194133D01*
X53859922Y-76192725D01*
X53873396Y-76186795D01*
X54016253Y-76115367D01*
X54029081Y-76108146D01*
X54032317Y-76105634D01*
X54035870Y-76103609D01*
X54043906Y-76096639D01*
X54052310Y-76090117D01*
X54054989Y-76087027D01*
X54058085Y-76084343D01*
X54064610Y-76075935D01*
X54071577Y-76067903D01*
X54073603Y-76064347D01*
X54076114Y-76061113D01*
X54083335Y-76048285D01*
X54154764Y-75905429D01*
X54160693Y-75891955D01*
X54162100Y-75886814D01*
X54164141Y-75881889D01*
X54165976Y-75872663D01*
X54168460Y-75863594D01*
X54168837Y-75858278D01*
X54169878Y-75853049D01*
X54170600Y-75838346D01*
X54170600Y-75516612D01*
X54184733Y-75488346D01*
X54199475Y-75488346D01*
X54265938Y-75521577D01*
X54299171Y-75588041D01*
X54299171Y-75802935D01*
X54243578Y-75914121D01*
X54237648Y-75927594D01*
X54229882Y-75955955D01*
X54227798Y-75985287D01*
X54231475Y-76014460D01*
X54240774Y-76042357D01*
X54255336Y-76067902D01*
X54274602Y-76090117D01*
X54297832Y-76108146D01*
X54324133Y-76121297D01*
X54352494Y-76129063D01*
X54381826Y-76131147D01*
X54410999Y-76127470D01*
X54438896Y-76118171D01*
X54464441Y-76103609D01*
X54486656Y-76084343D01*
X54504685Y-76061113D01*
X54511906Y-76048285D01*
X54583335Y-75905429D01*
X54589264Y-75891955D01*
X54590671Y-75886814D01*
X54592712Y-75881889D01*
X54594547Y-75872663D01*
X54597031Y-75863594D01*
X54597408Y-75858278D01*
X54598449Y-75853049D01*
X54599171Y-75838346D01*
X54599171Y-75552631D01*
X54598449Y-75537928D01*
X54597408Y-75532698D01*
X54597031Y-75527383D01*
X54594547Y-75518313D01*
X54592712Y-75509088D01*
X54590671Y-75504162D01*
X54589264Y-75499022D01*
X54583335Y-75485548D01*
X54511906Y-75342692D01*
X54504685Y-75329864D01*
X54502174Y-75326629D01*
X54500148Y-75323074D01*
X54493181Y-75315041D01*
X54486656Y-75306634D01*
X54483560Y-75303949D01*
X54480881Y-75300860D01*
X54472477Y-75294337D01*
X54464441Y-75287368D01*
X54460888Y-75285342D01*
X54457652Y-75282831D01*
X54444824Y-75275610D01*
X54301967Y-75204182D01*
X54288493Y-75198252D01*
X54283349Y-75196843D01*
X54278428Y-75194805D01*
X54269203Y-75192970D01*
X54260132Y-75190486D01*
X54254818Y-75190108D01*
X54249588Y-75189068D01*
X54234885Y-75188346D01*
X53449171Y-75188346D01*
X53434468Y-75189068D01*
X53405628Y-75194805D01*
X53378461Y-75206058D01*
X53354012Y-75222394D01*
X53333219Y-75243187D01*
X53316883Y-75267636D01*
X53305630Y-75294803D01*
X53299893Y-75323643D01*
X53299893Y-75353049D01*
X53305630Y-75381889D01*
X53316883Y-75409056D01*
X53317258Y-75409618D01*
X53315007Y-75414121D01*
X53309077Y-75427594D01*
X53307667Y-75432740D01*
X53305630Y-75437660D01*
X53303795Y-75446880D01*
X53301311Y-75455955D01*
X53300933Y-75461270D01*
X53299893Y-75466500D01*
X53299171Y-75481203D01*
X52632560Y-75481203D01*
X52632560Y-75021679D01*
X55265838Y-75021679D01*
X55265838Y-88512156D01*
G37*
D11*
X115571427Y-64867419D02*
X115238094Y-65867419D01*
X115238094Y-65867419D02*
X114904761Y-64867419D01*
X114571427Y-65867419D02*
X114571427Y-64867419D01*
X114095237Y-65867419D02*
X114095237Y-64867419D01*
X114095237Y-64867419D02*
X113523809Y-65867419D01*
X113523809Y-65867419D02*
X113523809Y-64867419D01*
X113095237Y-64962657D02*
X113047618Y-64915038D01*
X113047618Y-64915038D02*
X112952380Y-64867419D01*
X112952380Y-64867419D02*
X112714285Y-64867419D01*
X112714285Y-64867419D02*
X112619047Y-64915038D01*
X112619047Y-64915038D02*
X112571428Y-64962657D01*
X112571428Y-64962657D02*
X112523809Y-65057895D01*
X112523809Y-65057895D02*
X112523809Y-65153133D01*
X112523809Y-65153133D02*
X112571428Y-65295990D01*
X112571428Y-65295990D02*
X113142856Y-65867419D01*
X113142856Y-65867419D02*
X112523809Y-65867419D01*
X121430951Y-65867419D02*
X121430951Y-64867419D01*
X120383333Y-65867419D02*
X120716666Y-65391228D01*
X120954761Y-65867419D02*
X120954761Y-64867419D01*
X120954761Y-64867419D02*
X120573809Y-64867419D01*
X120573809Y-64867419D02*
X120478571Y-64915038D01*
X120478571Y-64915038D02*
X120430952Y-64962657D01*
X120430952Y-64962657D02*
X120383333Y-65057895D01*
X120383333Y-65057895D02*
X120383333Y-65200752D01*
X120383333Y-65200752D02*
X120430952Y-65295990D01*
X120430952Y-65295990D02*
X120478571Y-65343609D01*
X120478571Y-65343609D02*
X120573809Y-65391228D01*
X120573809Y-65391228D02*
X120954761Y-65391228D01*
X119954761Y-65486466D02*
X119192857Y-65486466D01*
X118240476Y-65867419D02*
X118716666Y-65867419D01*
X118716666Y-65867419D02*
X118716666Y-64867419D01*
X117526190Y-65819800D02*
X117621428Y-65867419D01*
X117621428Y-65867419D02*
X117811904Y-65867419D01*
X117811904Y-65867419D02*
X117907142Y-65819800D01*
X117907142Y-65819800D02*
X117954761Y-65724561D01*
X117954761Y-65724561D02*
X117954761Y-65343609D01*
X117954761Y-65343609D02*
X117907142Y-65248371D01*
X117907142Y-65248371D02*
X117811904Y-65200752D01*
X117811904Y-65200752D02*
X117621428Y-65200752D01*
X117621428Y-65200752D02*
X117526190Y-65248371D01*
X117526190Y-65248371D02*
X117478571Y-65343609D01*
X117478571Y-65343609D02*
X117478571Y-65438847D01*
X117478571Y-65438847D02*
X117954761Y-65534085D01*
X116621428Y-65867419D02*
X116621428Y-64867419D01*
X116621428Y-65819800D02*
X116716666Y-65867419D01*
X116716666Y-65867419D02*
X116907142Y-65867419D01*
X116907142Y-65867419D02*
X117002380Y-65819800D01*
X117002380Y-65819800D02*
X117049999Y-65772180D01*
X117049999Y-65772180D02*
X117097618Y-65676942D01*
X117097618Y-65676942D02*
X117097618Y-65391228D01*
X117097618Y-65391228D02*
X117049999Y-65295990D01*
X117049999Y-65295990D02*
X117002380Y-65248371D01*
X117002380Y-65248371D02*
X116907142Y-65200752D01*
X116907142Y-65200752D02*
X116716666Y-65200752D01*
X116716666Y-65200752D02*
X116621428Y-65248371D01*
X116192856Y-64962657D02*
X116145237Y-64915038D01*
X116145237Y-64915038D02*
X116049999Y-64867419D01*
X116049999Y-64867419D02*
X115811904Y-64867419D01*
X115811904Y-64867419D02*
X115716666Y-64915038D01*
X115716666Y-64915038D02*
X115669047Y-64962657D01*
X115669047Y-64962657D02*
X115621428Y-65057895D01*
X115621428Y-65057895D02*
X115621428Y-65153133D01*
X115621428Y-65153133D02*
X115669047Y-65295990D01*
X115669047Y-65295990D02*
X116240475Y-65867419D01*
X116240475Y-65867419D02*
X115621428Y-65867419D01*
D12*
X67333332Y-51704819D02*
X67333332Y-50704819D01*
X67333332Y-50704819D02*
X66999999Y-51419104D01*
X66999999Y-51419104D02*
X66666666Y-50704819D01*
X66666666Y-50704819D02*
X66666666Y-51704819D01*
X65619047Y-51609580D02*
X65666666Y-51657200D01*
X65666666Y-51657200D02*
X65809523Y-51704819D01*
X65809523Y-51704819D02*
X65904761Y-51704819D01*
X65904761Y-51704819D02*
X66047618Y-51657200D01*
X66047618Y-51657200D02*
X66142856Y-51561961D01*
X66142856Y-51561961D02*
X66190475Y-51466723D01*
X66190475Y-51466723D02*
X66238094Y-51276247D01*
X66238094Y-51276247D02*
X66238094Y-51133390D01*
X66238094Y-51133390D02*
X66190475Y-50942914D01*
X66190475Y-50942914D02*
X66142856Y-50847676D01*
X66142856Y-50847676D02*
X66047618Y-50752438D01*
X66047618Y-50752438D02*
X65904761Y-50704819D01*
X65904761Y-50704819D02*
X65809523Y-50704819D01*
X65809523Y-50704819D02*
X65666666Y-50752438D01*
X65666666Y-50752438D02*
X65619047Y-50800057D01*
X65190475Y-50704819D02*
X65190475Y-51514342D01*
X65190475Y-51514342D02*
X65142856Y-51609580D01*
X65142856Y-51609580D02*
X65095237Y-51657200D01*
X65095237Y-51657200D02*
X64999999Y-51704819D01*
X64999999Y-51704819D02*
X64809523Y-51704819D01*
X64809523Y-51704819D02*
X64714285Y-51657200D01*
X64714285Y-51657200D02*
X64666666Y-51609580D01*
X64666666Y-51609580D02*
X64619047Y-51514342D01*
X64619047Y-51514342D02*
X64619047Y-50704819D01*
X63619047Y-51704819D02*
X64190475Y-51704819D01*
X63904761Y-51704819D02*
X63904761Y-50704819D01*
X63904761Y-50704819D02*
X63999999Y-50847676D01*
X63999999Y-50847676D02*
X64095237Y-50942914D01*
X64095237Y-50942914D02*
X64190475Y-50990533D01*
X72830475Y-55136953D02*
X72257141Y-55136953D01*
X72011427Y-56037905D02*
X72830475Y-56037905D01*
X72830475Y-56037905D02*
X72830475Y-54317905D01*
X72830475Y-54317905D02*
X72011427Y-54317905D01*
X71356189Y-55956001D02*
X71110475Y-56037905D01*
X71110475Y-56037905D02*
X70700951Y-56037905D01*
X70700951Y-56037905D02*
X70537142Y-55956001D01*
X70537142Y-55956001D02*
X70455237Y-55874096D01*
X70455237Y-55874096D02*
X70373332Y-55710286D01*
X70373332Y-55710286D02*
X70373332Y-55546477D01*
X70373332Y-55546477D02*
X70455237Y-55382667D01*
X70455237Y-55382667D02*
X70537142Y-55300762D01*
X70537142Y-55300762D02*
X70700951Y-55218858D01*
X70700951Y-55218858D02*
X71028570Y-55136953D01*
X71028570Y-55136953D02*
X71192380Y-55055048D01*
X71192380Y-55055048D02*
X71274285Y-54973143D01*
X71274285Y-54973143D02*
X71356189Y-54809334D01*
X71356189Y-54809334D02*
X71356189Y-54645524D01*
X71356189Y-54645524D02*
X71274285Y-54481715D01*
X71274285Y-54481715D02*
X71192380Y-54399810D01*
X71192380Y-54399810D02*
X71028570Y-54317905D01*
X71028570Y-54317905D02*
X70619047Y-54317905D01*
X70619047Y-54317905D02*
X70373332Y-54399810D01*
X69636190Y-56037905D02*
X69636190Y-54317905D01*
X69636190Y-54317905D02*
X68980952Y-54317905D01*
X68980952Y-54317905D02*
X68817142Y-54399810D01*
X68817142Y-54399810D02*
X68735237Y-54481715D01*
X68735237Y-54481715D02*
X68653333Y-54645524D01*
X68653333Y-54645524D02*
X68653333Y-54891239D01*
X68653333Y-54891239D02*
X68735237Y-55055048D01*
X68735237Y-55055048D02*
X68817142Y-55136953D01*
X68817142Y-55136953D02*
X68980952Y-55218858D01*
X68980952Y-55218858D02*
X69636190Y-55218858D01*
X68079999Y-54317905D02*
X67015237Y-54317905D01*
X67015237Y-54317905D02*
X67588571Y-54973143D01*
X67588571Y-54973143D02*
X67342856Y-54973143D01*
X67342856Y-54973143D02*
X67179047Y-55055048D01*
X67179047Y-55055048D02*
X67097142Y-55136953D01*
X67097142Y-55136953D02*
X67015237Y-55300762D01*
X67015237Y-55300762D02*
X67015237Y-55710286D01*
X67015237Y-55710286D02*
X67097142Y-55874096D01*
X67097142Y-55874096D02*
X67179047Y-55956001D01*
X67179047Y-55956001D02*
X67342856Y-56037905D01*
X67342856Y-56037905D02*
X67834285Y-56037905D01*
X67834285Y-56037905D02*
X67998094Y-55956001D01*
X67998094Y-55956001D02*
X68079999Y-55874096D01*
X66359999Y-54481715D02*
X66278095Y-54399810D01*
X66278095Y-54399810D02*
X66114285Y-54317905D01*
X66114285Y-54317905D02*
X65704761Y-54317905D01*
X65704761Y-54317905D02*
X65540952Y-54399810D01*
X65540952Y-54399810D02*
X65459047Y-54481715D01*
X65459047Y-54481715D02*
X65377142Y-54645524D01*
X65377142Y-54645524D02*
X65377142Y-54809334D01*
X65377142Y-54809334D02*
X65459047Y-55055048D01*
X65459047Y-55055048D02*
X66441904Y-56037905D01*
X66441904Y-56037905D02*
X65377142Y-56037905D01*
X64640000Y-55382667D02*
X63329524Y-55382667D01*
X61527619Y-55874096D02*
X61609523Y-55956001D01*
X61609523Y-55956001D02*
X61855238Y-56037905D01*
X61855238Y-56037905D02*
X62019047Y-56037905D01*
X62019047Y-56037905D02*
X62264761Y-55956001D01*
X62264761Y-55956001D02*
X62428571Y-55792191D01*
X62428571Y-55792191D02*
X62510476Y-55628381D01*
X62510476Y-55628381D02*
X62592380Y-55300762D01*
X62592380Y-55300762D02*
X62592380Y-55055048D01*
X62592380Y-55055048D02*
X62510476Y-54727429D01*
X62510476Y-54727429D02*
X62428571Y-54563620D01*
X62428571Y-54563620D02*
X62264761Y-54399810D01*
X62264761Y-54399810D02*
X62019047Y-54317905D01*
X62019047Y-54317905D02*
X61855238Y-54317905D01*
X61855238Y-54317905D02*
X61609523Y-54399810D01*
X61609523Y-54399810D02*
X61527619Y-54481715D01*
X60872380Y-55546477D02*
X60053333Y-55546477D01*
X61036190Y-56037905D02*
X60462857Y-54317905D01*
X60462857Y-54317905D02*
X59889523Y-56037905D01*
X59316190Y-56037905D02*
X59316190Y-54317905D01*
X59316190Y-54317905D02*
X58742856Y-55546477D01*
X58742856Y-55546477D02*
X58169523Y-54317905D01*
X58169523Y-54317905D02*
X58169523Y-56037905D01*
D13*
%TO.C,G\u002A\u002A\u002A*%
G36*
X71714620Y-65273728D02*
G01*
X71677722Y-65405745D01*
X71667352Y-65428406D01*
X71609810Y-65527114D01*
X71540590Y-65617761D01*
X71473381Y-65684081D01*
X71421871Y-65709803D01*
X71419194Y-65708868D01*
X71380604Y-65678546D01*
X71304129Y-65609665D01*
X71195771Y-65507916D01*
X71061532Y-65378993D01*
X70907415Y-65228590D01*
X70739421Y-65062401D01*
X70089209Y-64415001D01*
X69625356Y-64878028D01*
X69161504Y-65341053D01*
X69849706Y-66029789D01*
X69918125Y-66098440D01*
X70084420Y-66266879D01*
X70232904Y-66419493D01*
X70358034Y-66550446D01*
X70454272Y-66653898D01*
X70516077Y-66724011D01*
X70537910Y-66754949D01*
X70532676Y-66768836D01*
X70525880Y-66786867D01*
X70469892Y-66850168D01*
X70382184Y-66921226D01*
X70278287Y-66987953D01*
X70173742Y-67038262D01*
X70066344Y-67069748D01*
X69941317Y-67083141D01*
X69778304Y-67079441D01*
X69749779Y-67077457D01*
X69498239Y-67031492D01*
X69273450Y-66932601D01*
X69062367Y-66775246D01*
X68933375Y-66658711D01*
X68175102Y-67416487D01*
X68045366Y-67545664D01*
X67872964Y-67715773D01*
X67718117Y-67866774D01*
X67586330Y-67993394D01*
X67483100Y-68090364D01*
X67413930Y-68152412D01*
X67384319Y-68174267D01*
X67356245Y-68157598D01*
X67291417Y-68103342D01*
X67201550Y-68020382D01*
X67096999Y-67917954D01*
X66842189Y-67661642D01*
X63768732Y-70734486D01*
X63570876Y-70932238D01*
X63207534Y-71295043D01*
X62857834Y-71643791D01*
X62524404Y-71975876D01*
X62209876Y-72288693D01*
X61916881Y-72579639D01*
X61648051Y-72846111D01*
X61406016Y-73085503D01*
X61193409Y-73295209D01*
X61012863Y-73472628D01*
X60867007Y-73615153D01*
X60758473Y-73720183D01*
X60689893Y-73785109D01*
X60663897Y-73807331D01*
X60661191Y-73806382D01*
X60622861Y-73775923D01*
X60547554Y-73707272D01*
X60441647Y-73606798D01*
X60311511Y-73480877D01*
X60163518Y-73335876D01*
X60004044Y-73178168D01*
X59839463Y-73014126D01*
X59676148Y-72850121D01*
X59520471Y-72692523D01*
X59378807Y-72547706D01*
X59257528Y-72422039D01*
X59163011Y-72321897D01*
X59101626Y-72253648D01*
X59090997Y-72239082D01*
X59352448Y-72239082D01*
X59991944Y-72879178D01*
X60020713Y-72907959D01*
X60184233Y-73070893D01*
X60331973Y-73217042D01*
X60458068Y-73340681D01*
X60556649Y-73436083D01*
X60621852Y-73497523D01*
X60647808Y-73519277D01*
X60652024Y-73515844D01*
X60693176Y-73476652D01*
X60775884Y-73395827D01*
X60897504Y-73275999D01*
X61055391Y-73119801D01*
X61246899Y-72929862D01*
X61469386Y-72708812D01*
X61720203Y-72459282D01*
X61996708Y-72183903D01*
X62296257Y-71885307D01*
X62616201Y-71566122D01*
X62953899Y-71228981D01*
X63306704Y-70876513D01*
X63671973Y-70511351D01*
X66679769Y-67503426D01*
X66544449Y-67365544D01*
X66484192Y-67300886D01*
X66430011Y-67234448D01*
X66410288Y-67198789D01*
X66664841Y-67198789D01*
X67025456Y-67558381D01*
X67386071Y-67917973D01*
X68137580Y-67165953D01*
X68260875Y-67043181D01*
X68433879Y-66873043D01*
X68590075Y-66721929D01*
X68723840Y-66595151D01*
X68829544Y-66498018D01*
X68901560Y-66435841D01*
X68934260Y-66413935D01*
X68935542Y-66413993D01*
X68981787Y-66436744D01*
X69056770Y-66492751D01*
X69144904Y-66570431D01*
X69237087Y-66650776D01*
X69351249Y-66737017D01*
X69448136Y-66797206D01*
X69518765Y-66828302D01*
X69698781Y-66875603D01*
X69883181Y-66887617D01*
X70045212Y-66861467D01*
X70111021Y-66840542D01*
X70165895Y-66820644D01*
X70202630Y-66798347D01*
X70218257Y-66768836D01*
X70209819Y-66727299D01*
X70174351Y-66668925D01*
X70108889Y-66588896D01*
X70010472Y-66482403D01*
X69876140Y-66344631D01*
X69702926Y-66170770D01*
X69487870Y-65956004D01*
X68697140Y-65165748D01*
X67680991Y-66182270D01*
X66664841Y-67198789D01*
X66410288Y-67198789D01*
X66409130Y-67196696D01*
X66409254Y-67196107D01*
X66434405Y-67164823D01*
X66500272Y-67093256D01*
X66602480Y-66985899D01*
X66736652Y-66847252D01*
X66898417Y-66681813D01*
X67083399Y-66494076D01*
X67287220Y-66288538D01*
X67505510Y-66069696D01*
X67734054Y-65841221D01*
X67960492Y-65615533D01*
X68149329Y-65429319D01*
X68304772Y-65279571D01*
X68431037Y-65163278D01*
X68532339Y-65077430D01*
X68612887Y-65019020D01*
X68676896Y-64985035D01*
X68728580Y-64972469D01*
X68772149Y-64978311D01*
X68811819Y-64999551D01*
X68851801Y-65033179D01*
X68896310Y-65076186D01*
X69002087Y-65178709D01*
X69524146Y-64660108D01*
X69607680Y-64577683D01*
X69752324Y-64437693D01*
X69879875Y-64317693D01*
X69983360Y-64224070D01*
X70055805Y-64163211D01*
X70090239Y-64141506D01*
X70093310Y-64142336D01*
X70134464Y-64172214D01*
X70213329Y-64240785D01*
X70323774Y-64342338D01*
X70459666Y-64471150D01*
X70614875Y-64621510D01*
X70783272Y-64787699D01*
X71432272Y-65433893D01*
X71481185Y-65316828D01*
X71489585Y-65295276D01*
X71525126Y-65119945D01*
X71516829Y-64930380D01*
X71465469Y-64754316D01*
X71456656Y-64736999D01*
X71393835Y-64645011D01*
X71288770Y-64517298D01*
X71146004Y-64359160D01*
X70970077Y-64175903D01*
X70960211Y-64165869D01*
X70826750Y-64027904D01*
X70710826Y-63904086D01*
X70619404Y-63802164D01*
X70559445Y-63729885D01*
X70537910Y-63694998D01*
X70538011Y-63693764D01*
X70562050Y-63653354D01*
X70622324Y-63578824D01*
X70710126Y-63480379D01*
X70816751Y-63368221D01*
X71095591Y-63083269D01*
X70104616Y-62089641D01*
X69113641Y-61096013D01*
X68361500Y-60719418D01*
X68248856Y-60663120D01*
X67999760Y-60539225D01*
X67742922Y-60412170D01*
X67494567Y-60289953D01*
X67270917Y-60180565D01*
X67088200Y-60092004D01*
X66567042Y-59841185D01*
X66407539Y-59998291D01*
X66248034Y-60155398D01*
X67544812Y-61452465D01*
X67732450Y-61640458D01*
X67959596Y-61868910D01*
X68169490Y-62080983D01*
X68358114Y-62272566D01*
X68521452Y-62439548D01*
X68655486Y-62577820D01*
X68756199Y-62683269D01*
X68819574Y-62751786D01*
X68841590Y-62779263D01*
X68833452Y-62792646D01*
X68787301Y-62846976D01*
X68705866Y-62935674D01*
X68595450Y-63052045D01*
X68462346Y-63189401D01*
X68312855Y-63341050D01*
X67784121Y-63873108D01*
X67864281Y-63948414D01*
X67932702Y-64044763D01*
X67971170Y-64181824D01*
X67968894Y-64221109D01*
X67962854Y-64325331D01*
X67953840Y-64341810D01*
X67905206Y-64403238D01*
X67819634Y-64500321D01*
X67702530Y-64627593D01*
X67559300Y-64779585D01*
X67395352Y-64950833D01*
X67216091Y-65135869D01*
X67026922Y-65329228D01*
X66833255Y-65525441D01*
X66640492Y-65719045D01*
X66454042Y-65904569D01*
X66279311Y-66076550D01*
X66121705Y-66229520D01*
X65986630Y-66358013D01*
X65879492Y-66456561D01*
X65805699Y-66519700D01*
X65770656Y-66541960D01*
X65767411Y-66541645D01*
X65718490Y-66515691D01*
X65642294Y-66456249D01*
X65553856Y-66374905D01*
X65384702Y-66207849D01*
X65161436Y-66429404D01*
X64938171Y-66650959D01*
X65196151Y-66915259D01*
X65228012Y-66948186D01*
X65346349Y-67078862D01*
X65416509Y-67175442D01*
X65440315Y-67242354D01*
X65419585Y-67284034D01*
X65356142Y-67304912D01*
X65348089Y-67305664D01*
X65299967Y-67295371D01*
X65236577Y-67256259D01*
X65149011Y-67181828D01*
X65028366Y-67065576D01*
X64776741Y-66815427D01*
X64488858Y-67101976D01*
X64200976Y-67388524D01*
X64376878Y-67566283D01*
X64449252Y-67641309D01*
X64518602Y-67723896D01*
X64545719Y-67780599D01*
X64534292Y-67820983D01*
X64488004Y-67854616D01*
X64481957Y-67857696D01*
X64443362Y-67866433D01*
X64398186Y-67849918D01*
X64333958Y-67801068D01*
X64238206Y-67712803D01*
X64053186Y-67536324D01*
X63767569Y-67823269D01*
X63481953Y-68110214D01*
X63745317Y-68374952D01*
X63843012Y-68475899D01*
X63929007Y-68570496D01*
X63987251Y-68641307D01*
X64008679Y-68677903D01*
X63994581Y-68709019D01*
X63942887Y-68751328D01*
X63936009Y-68754767D01*
X63902778Y-68761853D01*
X63862539Y-68748497D01*
X63805914Y-68708314D01*
X63723522Y-68634914D01*
X63605983Y-68521914D01*
X63334872Y-68257288D01*
X63048747Y-68542088D01*
X62762623Y-68826887D01*
X62939102Y-69011908D01*
X62955272Y-69028917D01*
X63037116Y-69119097D01*
X63080618Y-69179641D01*
X63092857Y-69223019D01*
X63080914Y-69261706D01*
X63058537Y-69296539D01*
X63021407Y-69319749D01*
X62971082Y-69305618D01*
X62897994Y-69250457D01*
X62792581Y-69150581D01*
X62614823Y-68974678D01*
X62328274Y-69262559D01*
X62041726Y-69550442D01*
X62289063Y-69799239D01*
X62382623Y-69897147D01*
X62482841Y-70019176D01*
X62532444Y-70110329D01*
X62532877Y-70173646D01*
X62485584Y-70212156D01*
X62462469Y-70211233D01*
X62398716Y-70174892D01*
X62300698Y-70093164D01*
X62165503Y-69963792D01*
X61896241Y-69695927D01*
X61608374Y-69982459D01*
X61320509Y-70268991D01*
X61483146Y-70433673D01*
X61490889Y-70441547D01*
X61580794Y-70541542D01*
X61626512Y-70615427D01*
X61635006Y-70674227D01*
X61632807Y-70687221D01*
X61602304Y-70746559D01*
X61543741Y-70752591D01*
X61455322Y-70704888D01*
X61335257Y-70603028D01*
X61157368Y-70434787D01*
X60870701Y-70720127D01*
X60584033Y-71005466D01*
X60843231Y-71266016D01*
X60897606Y-71321506D01*
X61010538Y-71445744D01*
X61074521Y-71533451D01*
X61090909Y-71586377D01*
X61090611Y-71587897D01*
X61065141Y-71644408D01*
X61017201Y-71656648D01*
X60942857Y-71622846D01*
X60838176Y-71541229D01*
X60699219Y-71410027D01*
X60438669Y-71150829D01*
X60152164Y-71438668D01*
X59865658Y-71726507D01*
X60035901Y-71898891D01*
X60137788Y-72014906D01*
X60188937Y-72106918D01*
X60184304Y-72169404D01*
X60123713Y-72201751D01*
X60085442Y-72194886D01*
X60002783Y-72142493D01*
X59891662Y-72042811D01*
X59719119Y-71872411D01*
X59535783Y-72055746D01*
X59352448Y-72239082D01*
X59090997Y-72239082D01*
X59079748Y-72223667D01*
X59086086Y-72215278D01*
X59131336Y-72166257D01*
X59217908Y-72076052D01*
X59343197Y-71947293D01*
X59504601Y-71782614D01*
X59699512Y-71584648D01*
X59925328Y-71356023D01*
X60179443Y-71099374D01*
X60459256Y-70817332D01*
X60762158Y-70512529D01*
X61085548Y-70187597D01*
X61426819Y-69845168D01*
X61783369Y-69487873D01*
X62152592Y-69118347D01*
X65225437Y-66044890D01*
X64969124Y-65790080D01*
X64879322Y-65697831D01*
X64793031Y-65602180D01*
X64734421Y-65528776D01*
X64712812Y-65488585D01*
X64722747Y-65469691D01*
X64771528Y-65408399D01*
X64855412Y-65313530D01*
X64968156Y-65191909D01*
X65103509Y-65050364D01*
X65255231Y-64895721D01*
X65797646Y-64349545D01*
X65127207Y-63041726D01*
X65009556Y-62811674D01*
X64880331Y-62557626D01*
X64763016Y-62325529D01*
X64660513Y-62121209D01*
X64575732Y-61950486D01*
X64511576Y-61819186D01*
X64470951Y-61733130D01*
X64467675Y-61725050D01*
X64683943Y-61725050D01*
X65354502Y-63034219D01*
X65471577Y-63263586D01*
X65600949Y-63518995D01*
X65718406Y-63752984D01*
X65821036Y-63959645D01*
X65905929Y-64133069D01*
X65970170Y-64267348D01*
X66010850Y-64356574D01*
X66025059Y-64394839D01*
X66017560Y-64410966D01*
X65972091Y-64470126D01*
X65890920Y-64562966D01*
X65780427Y-64682491D01*
X65646996Y-64821705D01*
X65497007Y-64973615D01*
X64968959Y-65500938D01*
X65360503Y-65893424D01*
X65467389Y-65999921D01*
X65583564Y-66114029D01*
X65677689Y-66204625D01*
X65742120Y-66264366D01*
X65769209Y-66285911D01*
X65783182Y-66274503D01*
X65838176Y-66222809D01*
X65930327Y-66133583D01*
X66054991Y-66011396D01*
X66207522Y-65860825D01*
X66383277Y-65686444D01*
X66577612Y-65492826D01*
X66785881Y-65284548D01*
X67035709Y-65032874D01*
X67255389Y-64808673D01*
X67440181Y-64616839D01*
X67587830Y-64459768D01*
X67696084Y-64339858D01*
X67762689Y-64259505D01*
X67785391Y-64221109D01*
X67784682Y-64217901D01*
X67754077Y-64173918D01*
X67679461Y-64087429D01*
X67562499Y-63960175D01*
X67404855Y-63793894D01*
X67208192Y-63590328D01*
X66974175Y-63351215D01*
X66704466Y-63078295D01*
X66400730Y-62773306D01*
X65016073Y-61387579D01*
X64850008Y-61556314D01*
X64683943Y-61725050D01*
X64467675Y-61725050D01*
X64456764Y-61698141D01*
X64457037Y-61696088D01*
X64483112Y-61655600D01*
X64543896Y-61584160D01*
X64628296Y-61492971D01*
X64725219Y-61393236D01*
X64823576Y-61296163D01*
X64912271Y-61212951D01*
X64980214Y-61154809D01*
X65016313Y-61132938D01*
X65032449Y-61144640D01*
X65090694Y-61197084D01*
X65186907Y-61287941D01*
X65316937Y-61413168D01*
X65476632Y-61568714D01*
X65661849Y-61750535D01*
X65868435Y-61954584D01*
X66092240Y-62176814D01*
X66329116Y-62413180D01*
X66502265Y-62586080D01*
X66730005Y-62812570D01*
X66941629Y-63021990D01*
X67132992Y-63210291D01*
X67299950Y-63373429D01*
X67438356Y-63507358D01*
X67544066Y-63608029D01*
X67612932Y-63671399D01*
X67640814Y-63693423D01*
X67643634Y-63692560D01*
X67682906Y-63662800D01*
X67758390Y-63595621D01*
X67862775Y-63497846D01*
X67988750Y-63376299D01*
X68129004Y-63237801D01*
X68585439Y-62782180D01*
X67286040Y-61481354D01*
X67207375Y-61402581D01*
X66940561Y-61134953D01*
X66715187Y-60907935D01*
X66528029Y-60718064D01*
X66375862Y-60561874D01*
X66255462Y-60435901D01*
X66163605Y-60336683D01*
X66097066Y-60260751D01*
X66052622Y-60204646D01*
X66027049Y-60164900D01*
X66017120Y-60138050D01*
X66019612Y-60120630D01*
X66040614Y-60091706D01*
X66102069Y-60021139D01*
X66190331Y-59927225D01*
X66294036Y-59822319D01*
X66535489Y-59583901D01*
X67839620Y-60222394D01*
X69143750Y-60860886D01*
X70240906Y-61948041D01*
X70502045Y-62207856D01*
X70757829Y-62465119D01*
X70966926Y-62678905D01*
X71129419Y-62849298D01*
X71245385Y-62976384D01*
X71314906Y-63060245D01*
X71338062Y-63100966D01*
X71328715Y-63129708D01*
X71278071Y-63204848D01*
X71188790Y-63309595D01*
X71066916Y-63436473D01*
X70795770Y-63706210D01*
X71179782Y-64097868D01*
X71296317Y-64218656D01*
X71452015Y-64390814D01*
X71567147Y-64537776D01*
X71647220Y-64669198D01*
X71697732Y-64794729D01*
X71724187Y-64924023D01*
X71732090Y-65066734D01*
X71731512Y-65107765D01*
X71730272Y-65119945D01*
X71714620Y-65273728D01*
G37*
D14*
%TO.C,MCU1*%
X52340000Y-48750000D02*
X52340000Y-88750000D01*
X52340000Y-88750000D02*
X78660000Y-88750000D01*
X78660000Y-48750000D02*
X52340000Y-48750000D01*
X78660000Y-88750000D02*
X78660000Y-48750000D01*
%TD*%
M02*
