%TF.GenerationSoftware,KiCad,Pcbnew,9.0.1*%
%TF.CreationDate,2025-06-19T23:09:26+02:00*%
%TF.ProjectId,Night-Gogle,4e696768-742d-4476-9f67-6c652e6b6963,rev?*%
%TF.SameCoordinates,Original*%
%TF.FileFunction,Copper,L2,Bot*%
%TF.FilePolarity,Positive*%
%FSLAX46Y46*%
G04 Gerber Fmt 4.6, Leading zero omitted, Abs format (unit mm)*
G04 Created by KiCad (PCBNEW 9.0.1) date 2025-06-19 23:09:26*
%MOMM*%
%LPD*%
G01*
G04 APERTURE LIST*
G04 Aperture macros list*
%AMRoundRect*
0 Rectangle with rounded corners*
0 $1 Rounding radius*
0 $2 $3 $4 $5 $6 $7 $8 $9 X,Y pos of 4 corners*
0 Add a 4 corners polygon primitive as box body*
4,1,4,$2,$3,$4,$5,$6,$7,$8,$9,$2,$3,0*
0 Add four circle primitives for the rounded corners*
1,1,$1+$1,$2,$3*
1,1,$1+$1,$4,$5*
1,1,$1+$1,$6,$7*
1,1,$1+$1,$8,$9*
0 Add four rect primitives between the rounded corners*
20,1,$1+$1,$2,$3,$4,$5,0*
20,1,$1+$1,$4,$5,$6,$7,0*
20,1,$1+$1,$6,$7,$8,$9,0*
20,1,$1+$1,$8,$9,$2,$3,0*%
G04 Aperture macros list end*
%TA.AperFunction,ComponentPad*%
%ADD10R,1.800000X1.800000*%
%TD*%
%TA.AperFunction,ComponentPad*%
%ADD11C,1.800000*%
%TD*%
%TA.AperFunction,ComponentPad*%
%ADD12O,5.550000X2.775000*%
%TD*%
%TA.AperFunction,ComponentPad*%
%ADD13C,2.775000*%
%TD*%
%TA.AperFunction,SMDPad,CuDef*%
%ADD14RoundRect,0.525000X1.225000X1.225000X-1.225000X1.225000X-1.225000X-1.225000X1.225000X-1.225000X0*%
%TD*%
%TA.AperFunction,ComponentPad*%
%ADD15O,2.844800X1.422400*%
%TD*%
%TA.AperFunction,ViaPad*%
%ADD16C,1.000000*%
%TD*%
%TA.AperFunction,Conductor*%
%ADD17C,0.500000*%
%TD*%
%TA.AperFunction,Conductor*%
%ADD18C,1.000000*%
%TD*%
G04 APERTURE END LIST*
D10*
%TO.P,D2,1,K*%
%TO.N,Net-(D1-A)*%
X106250000Y-79250000D03*
D11*
%TO.P,D2,2,A*%
%TO.N,Net-(D2-A)*%
X106250000Y-76710000D03*
%TD*%
D10*
%TO.P,D7,1,K*%
%TO.N,Net-(D7-K)*%
X118500000Y-71500000D03*
D11*
%TO.P,D7,2,A*%
%TO.N,Net-(D7-A)*%
X121040000Y-71500000D03*
%TD*%
D10*
%TO.P,D6,1,K*%
%TO.N,IR-In*%
X120780000Y-91500000D03*
D11*
%TO.P,D6,2,A*%
%TO.N,Net-(D5-K)*%
X118240000Y-91500000D03*
%TD*%
D10*
%TO.P,D1,1,K*%
%TO.N,IR-In*%
X106250000Y-85990000D03*
D11*
%TO.P,D1,2,A*%
%TO.N,Net-(D1-A)*%
X106250000Y-83450000D03*
%TD*%
D10*
%TO.P,D3,1,K*%
%TO.N,Net-(D3-K)*%
X126250000Y-83740000D03*
D11*
%TO.P,D3,2,A*%
%TO.N,Net-(D3-A)*%
X126250000Y-86280000D03*
%TD*%
D12*
%TO.P,SW2,1*%
%TO.N,unconnected-(SW2-Pad1)*%
X64025000Y-87200000D03*
%TO.P,SW2,2*%
%TO.N,VBAT*%
X64025000Y-82500000D03*
%TO.P,SW2,3*%
%TO.N,+5V*%
X64025000Y-77800000D03*
D13*
%TO.P,SW2,4*%
%TO.N,GND*%
X73555000Y-89105000D03*
%TO.P,SW2,5*%
X73555000Y-75895000D03*
%TD*%
D10*
%TO.P,D4,1,K*%
%TO.N,IR-In*%
X126250000Y-76960000D03*
D11*
%TO.P,D4,2,A*%
%TO.N,Net-(D3-K)*%
X126250000Y-79500000D03*
%TD*%
D10*
%TO.P,D5,1,K*%
%TO.N,Net-(D5-K)*%
X114000000Y-91500000D03*
D11*
%TO.P,D5,2,A*%
%TO.N,Net-(D5-A)*%
X111460000Y-91500000D03*
%TD*%
D10*
%TO.P,D8,1,K*%
%TO.N,IR-In*%
X111750000Y-71500000D03*
D11*
%TO.P,D8,2,A*%
%TO.N,Net-(D7-K)*%
X114290000Y-71500000D03*
%TD*%
D14*
%TO.P,VIN2,1,1*%
%TO.N,+5V*%
X114000000Y-67750000D03*
%TD*%
%TO.P,IR-Led2,1,1*%
%TO.N,IR-In*%
X118750000Y-67750000D03*
%TD*%
D15*
%TO.P,MCU1,P$1,5V*%
%TO.N,+5V*%
X76930000Y-54020000D03*
%TO.P,MCU1,P$2,GND*%
%TO.N,GND*%
X76930000Y-56560000D03*
%TO.P,MCU1,P$3,IO12*%
%TO.N,MOSI*%
X76930000Y-59100000D03*
%TO.P,MCU1,P$4,IO13*%
%TO.N,SCLK*%
X76930000Y-61640000D03*
%TO.P,MCU1,P$5,IO15*%
%TO.N,CS*%
X76930000Y-64180000D03*
%TO.P,MCU1,P$6,IO14*%
%TO.N,DC*%
X76930000Y-66720000D03*
%TO.P,MCU1,P$7,IO2*%
%TO.N,RST*%
X76930000Y-69260000D03*
%TO.P,MCU1,P$8,IO4*%
%TO.N,unconnected-(MCU1-IO4-PadP$8)*%
X76930000Y-71800000D03*
%TO.P,MCU1,P$9,.GND*%
%TO.N,GND*%
X54070000Y-71800000D03*
%TO.P,MCU1,P$10,IO1/U0T*%
%TO.N,unconnected-(MCU1-IO1{slash}U0T-PadP$10)*%
X54070000Y-69260000D03*
%TO.P,MCU1,P$11,IO3/U0R*%
%TO.N,unconnected-(MCU1-IO3{slash}U0R-PadP$11)*%
X54070000Y-66720000D03*
%TO.P,MCU1,P$12,3V3.*%
%TO.N,unconnected-(MCU1-3V3.-PadP$12)*%
X54070000Y-64180000D03*
%TO.P,MCU1,P$13,GND.*%
%TO.N,GND*%
X54070000Y-61640000D03*
%TO.P,MCU1,P$14,IO0*%
%TO.N,Button1*%
X54070000Y-59100000D03*
%TO.P,MCU1,P$15,IO16*%
%TO.N,IR-Led*%
X54070000Y-56560000D03*
%TO.P,MCU1,P$16,3V3*%
%TO.N,unconnected-(MCU1-3V3-PadP$16)*%
X54070000Y-54020000D03*
%TD*%
D16*
%TO.N,MOSI*%
X67000000Y-49750000D03*
%TO.N,DC*%
X64000000Y-49000000D03*
%TO.N,CS*%
X65000000Y-49750000D03*
%TO.N,SCLK*%
X66000000Y-49000000D03*
%TO.N,RST*%
X63000000Y-49750000D03*
%TO.N,Button1*%
X63750000Y-68000000D03*
X73250000Y-68000000D03*
%TO.N,+5V*%
X108801000Y-70149000D03*
%TD*%
D17*
%TO.N,RST*%
X76510000Y-69260000D02*
X76930000Y-69260000D01*
X63000000Y-55750000D02*
X76510000Y-69260000D01*
X63000000Y-49750000D02*
X63000000Y-55750000D01*
%TO.N,SCLK*%
X76140000Y-61640000D02*
X76930000Y-61640000D01*
X66000000Y-51500000D02*
X76140000Y-61640000D01*
X66000000Y-49000000D02*
X66000000Y-51500000D01*
%TO.N,DC*%
X64000000Y-54750000D02*
X64000000Y-49000000D01*
X76930000Y-66720000D02*
X75970000Y-66720000D01*
X75970000Y-66720000D02*
X64000000Y-54750000D01*
%TO.N,CS*%
X75930000Y-64180000D02*
X76930000Y-64180000D01*
X65000000Y-53250000D02*
X75930000Y-64180000D01*
X65000000Y-49750000D02*
X65000000Y-53250000D01*
%TO.N,RST*%
X76010000Y-69260000D02*
X76930000Y-69260000D01*
%TO.N,Button1*%
X54850000Y-59100000D02*
X54070000Y-59100000D01*
X63750000Y-68000000D02*
X54850000Y-59100000D01*
X73250000Y-68000000D02*
X63750000Y-68000000D01*
%TO.N,DC*%
X76470000Y-66720000D02*
X76930000Y-66720000D01*
%TO.N,unconnected-(MCU1-3V3-PadP$16)*%
X54090000Y-54000000D02*
X54070000Y-54020000D01*
%TO.N,+5V*%
X114000000Y-67750000D02*
X111200000Y-67750000D01*
X111200000Y-67750000D02*
X108801000Y-70149000D01*
D18*
%TO.N,Net-(D1-A)*%
X106250000Y-79250000D02*
X106250000Y-83450000D01*
D17*
%TO.N,IR-In*%
X126250000Y-76960000D02*
X126250000Y-73500000D01*
X121500000Y-68750000D02*
X119750000Y-68750000D01*
X119750000Y-68750000D02*
X118750000Y-67750000D01*
X126250000Y-73500000D02*
X121500000Y-68750000D01*
D18*
%TO.N,Net-(D3-K)*%
X126250000Y-79500000D02*
X126250000Y-83740000D01*
%TO.N,Net-(D5-K)*%
X118240000Y-91500000D02*
X114000000Y-91500000D01*
%TO.N,Net-(D7-K)*%
X118500000Y-71500000D02*
X114290000Y-71500000D01*
D17*
%TO.N,MOSI*%
X76350000Y-59100000D02*
X76930000Y-59100000D01*
X67000000Y-49750000D02*
X76350000Y-59100000D01*
%TD*%
%TA.AperFunction,Conductor*%
%TO.N,GND*%
G36*
X62699925Y-48554396D02*
G01*
X62728824Y-48565838D01*
X62753971Y-48584108D01*
X62773784Y-48608057D01*
X62787018Y-48636182D01*
X62792842Y-48666714D01*
X62790891Y-48697735D01*
X62781286Y-48727297D01*
X62764631Y-48753541D01*
X62741972Y-48774818D01*
X62714734Y-48789792D01*
X62701192Y-48794271D01*
X62699497Y-48794725D01*
X62698860Y-48794896D01*
X62698853Y-48794898D01*
X62616747Y-48824783D01*
X62537589Y-48861695D01*
X62537582Y-48861698D01*
X62461915Y-48905386D01*
X62390353Y-48955493D01*
X62323424Y-49011653D01*
X62261653Y-49073424D01*
X62205493Y-49140353D01*
X62155386Y-49211915D01*
X62111698Y-49287582D01*
X62111695Y-49287589D01*
X62074783Y-49366747D01*
X62044898Y-49448853D01*
X62044898Y-49448855D01*
X62022285Y-49533244D01*
X62022284Y-49533251D01*
X62007117Y-49619271D01*
X62007114Y-49619288D01*
X61999500Y-49706315D01*
X61999500Y-49793684D01*
X62007114Y-49880711D01*
X62007115Y-49880716D01*
X62022285Y-49966754D01*
X62044897Y-50051143D01*
X62044898Y-50051145D01*
X62044898Y-50051146D01*
X62074783Y-50133252D01*
X62111695Y-50212410D01*
X62111698Y-50212417D01*
X62111700Y-50212420D01*
X62155383Y-50288080D01*
X62205494Y-50359646D01*
X62220490Y-50377518D01*
X62237326Y-50403641D01*
X62247138Y-50433134D01*
X62249500Y-50457222D01*
X62249500Y-55786866D01*
X62256726Y-55860242D01*
X62256726Y-55860245D01*
X62271112Y-55932571D01*
X62271113Y-55932573D01*
X62271114Y-55932577D01*
X62292519Y-56003141D01*
X62320738Y-56071267D01*
X62355498Y-56136299D01*
X62355501Y-56136304D01*
X62355502Y-56136305D01*
X62396463Y-56197607D01*
X62396474Y-56197622D01*
X62443232Y-56254598D01*
X62443249Y-56254617D01*
X73021502Y-66832870D01*
X73040553Y-66857430D01*
X73052897Y-66885956D01*
X73057760Y-66916656D01*
X73054835Y-66947601D01*
X73044306Y-66976846D01*
X73026835Y-67002554D01*
X73003519Y-67023109D01*
X72975825Y-67037220D01*
X72965921Y-67040324D01*
X72948866Y-67044894D01*
X72948853Y-67044898D01*
X72866747Y-67074783D01*
X72787589Y-67111695D01*
X72787582Y-67111698D01*
X72711915Y-67155386D01*
X72640369Y-67205482D01*
X72640362Y-67205488D01*
X72640359Y-67205490D01*
X72640354Y-67205494D01*
X72622476Y-67220494D01*
X72596357Y-67237327D01*
X72566863Y-67247138D01*
X72542778Y-67249500D01*
X64457222Y-67249500D01*
X64426384Y-67245604D01*
X64397485Y-67234162D01*
X64377525Y-67220496D01*
X64359646Y-67205494D01*
X64359635Y-67205486D01*
X64359630Y-67205482D01*
X64288084Y-67155386D01*
X64288085Y-67155386D01*
X64288080Y-67155383D01*
X64212420Y-67111700D01*
X64212417Y-67111698D01*
X64212410Y-67111695D01*
X64133252Y-67074783D01*
X64133241Y-67074779D01*
X64133239Y-67074778D01*
X64051143Y-67044897D01*
X63997643Y-67030561D01*
X63966755Y-67022285D01*
X63966748Y-67022284D01*
X63880720Y-67007115D01*
X63860288Y-67005327D01*
X63857470Y-67005080D01*
X63827091Y-66998511D01*
X63799299Y-66984593D01*
X63780601Y-66969234D01*
X56029219Y-59217851D01*
X56010168Y-59193291D01*
X55997824Y-59164765D01*
X55992961Y-59134065D01*
X55992900Y-59130170D01*
X55992900Y-59052399D01*
X55992899Y-59052384D01*
X55985430Y-58957471D01*
X55985430Y-58957470D01*
X55970535Y-58863427D01*
X55948307Y-58770842D01*
X55918884Y-58680286D01*
X55882446Y-58592319D01*
X55839219Y-58507481D01*
X55789469Y-58426296D01*
X55733503Y-58349265D01*
X55733498Y-58349258D01*
X55671670Y-58276868D01*
X55671665Y-58276862D01*
X55604338Y-58209535D01*
X55604331Y-58209529D01*
X55531941Y-58147701D01*
X55531927Y-58147691D01*
X55454924Y-58091745D01*
X55454892Y-58091723D01*
X55373734Y-58041990D01*
X55373731Y-58041988D01*
X55373719Y-58041981D01*
X55288881Y-57998754D01*
X55288871Y-57998749D01*
X55288854Y-57998742D01*
X55200915Y-57962315D01*
X55156643Y-57947931D01*
X55128518Y-57934697D01*
X55104568Y-57914884D01*
X55086298Y-57889738D01*
X55074856Y-57860838D01*
X55070960Y-57830001D01*
X55074855Y-57799163D01*
X55086298Y-57770263D01*
X55104567Y-57745117D01*
X55128517Y-57725304D01*
X55156641Y-57712069D01*
X55156643Y-57712069D01*
X55200915Y-57697684D01*
X55288854Y-57661257D01*
X55288881Y-57661246D01*
X55373719Y-57618019D01*
X55454904Y-57568269D01*
X55531935Y-57512303D01*
X55604338Y-57450465D01*
X55671665Y-57383138D01*
X55733503Y-57310735D01*
X55789469Y-57233704D01*
X55839219Y-57152519D01*
X55882446Y-57067681D01*
X55918884Y-56979714D01*
X55948307Y-56889158D01*
X55970535Y-56796573D01*
X55985430Y-56702530D01*
X55992900Y-56607608D01*
X55992900Y-56512392D01*
X55985430Y-56417470D01*
X55970535Y-56323427D01*
X55948307Y-56230842D01*
X55918884Y-56140286D01*
X55917232Y-56136299D01*
X55882457Y-56052345D01*
X55882454Y-56052340D01*
X55882446Y-56052319D01*
X55839219Y-55967481D01*
X55789469Y-55886296D01*
X55770548Y-55860254D01*
X55733508Y-55809272D01*
X55733498Y-55809258D01*
X55678647Y-55745037D01*
X55671665Y-55736862D01*
X55604338Y-55669535D01*
X55604331Y-55669529D01*
X55531941Y-55607701D01*
X55531927Y-55607691D01*
X55454924Y-55551745D01*
X55454892Y-55551723D01*
X55373734Y-55501990D01*
X55373731Y-55501988D01*
X55373719Y-55501981D01*
X55288881Y-55458754D01*
X55288871Y-55458749D01*
X55288854Y-55458742D01*
X55200915Y-55422315D01*
X55156643Y-55407931D01*
X55128518Y-55394697D01*
X55104568Y-55374884D01*
X55086298Y-55349738D01*
X55074856Y-55320838D01*
X55070960Y-55290001D01*
X55074855Y-55259163D01*
X55086298Y-55230263D01*
X55104567Y-55205117D01*
X55128517Y-55185304D01*
X55156641Y-55172069D01*
X55156643Y-55172069D01*
X55200915Y-55157684D01*
X55288854Y-55121257D01*
X55288881Y-55121246D01*
X55373719Y-55078019D01*
X55454904Y-55028269D01*
X55531935Y-54972303D01*
X55604338Y-54910465D01*
X55671665Y-54843138D01*
X55733503Y-54770735D01*
X55789469Y-54693704D01*
X55839219Y-54612519D01*
X55882446Y-54527681D01*
X55918884Y-54439714D01*
X55948307Y-54349158D01*
X55970535Y-54256573D01*
X55985430Y-54162530D01*
X55992900Y-54067608D01*
X55992900Y-53972392D01*
X55985430Y-53877470D01*
X55970535Y-53783427D01*
X55948307Y-53690842D01*
X55918884Y-53600286D01*
X55882446Y-53512319D01*
X55839219Y-53427481D01*
X55789469Y-53346296D01*
X55733503Y-53269265D01*
X55733498Y-53269258D01*
X55671670Y-53196868D01*
X55671665Y-53196862D01*
X55604338Y-53129535D01*
X55604331Y-53129529D01*
X55531941Y-53067701D01*
X55531927Y-53067691D01*
X55454924Y-53011745D01*
X55454892Y-53011723D01*
X55373734Y-52961990D01*
X55373731Y-52961988D01*
X55373719Y-52961981D01*
X55288881Y-52918754D01*
X55288871Y-52918749D01*
X55288854Y-52918742D01*
X55200919Y-52882317D01*
X55110372Y-52852897D01*
X55110365Y-52852895D01*
X55110358Y-52852893D01*
X55017773Y-52830665D01*
X55017767Y-52830664D01*
X54923731Y-52815770D01*
X54923728Y-52815769D01*
X54828815Y-52808300D01*
X54828808Y-52808300D01*
X53311192Y-52808300D01*
X53311184Y-52808300D01*
X53216271Y-52815769D01*
X53216268Y-52815770D01*
X53122232Y-52830664D01*
X53122229Y-52830664D01*
X53122227Y-52830665D01*
X53029642Y-52852893D01*
X53029637Y-52852894D01*
X53029627Y-52852897D01*
X52939080Y-52882317D01*
X52851145Y-52918742D01*
X52851119Y-52918754D01*
X52766281Y-52961981D01*
X52766276Y-52961983D01*
X52766276Y-52961984D01*
X52766265Y-52961990D01*
X52685107Y-53011723D01*
X52685075Y-53011745D01*
X52608072Y-53067691D01*
X52608058Y-53067701D01*
X52535668Y-53129529D01*
X52535654Y-53129542D01*
X52468342Y-53196854D01*
X52468329Y-53196868D01*
X52406501Y-53269258D01*
X52406491Y-53269272D01*
X52350545Y-53346275D01*
X52350523Y-53346307D01*
X52300790Y-53427465D01*
X52300784Y-53427476D01*
X52257554Y-53512319D01*
X52257542Y-53512345D01*
X52221117Y-53600280D01*
X52191697Y-53690827D01*
X52169464Y-53783432D01*
X52154570Y-53877468D01*
X52154569Y-53877471D01*
X52147100Y-53972384D01*
X52147100Y-54067615D01*
X52154569Y-54162528D01*
X52154570Y-54162531D01*
X52169464Y-54256567D01*
X52169465Y-54256573D01*
X52191693Y-54349158D01*
X52191695Y-54349165D01*
X52191697Y-54349172D01*
X52221117Y-54439719D01*
X52257542Y-54527654D01*
X52257549Y-54527671D01*
X52257554Y-54527681D01*
X52300781Y-54612519D01*
X52300788Y-54612531D01*
X52300790Y-54612534D01*
X52350523Y-54693692D01*
X52350545Y-54693724D01*
X52406491Y-54770727D01*
X52406501Y-54770741D01*
X52468329Y-54843131D01*
X52468335Y-54843138D01*
X52535662Y-54910465D01*
X52535668Y-54910470D01*
X52608058Y-54972298D01*
X52608065Y-54972303D01*
X52685096Y-55028269D01*
X52766281Y-55078019D01*
X52851119Y-55121246D01*
X52851140Y-55121254D01*
X52851145Y-55121257D01*
X52939080Y-55157682D01*
X52983357Y-55172069D01*
X53011481Y-55185303D01*
X53035431Y-55205116D01*
X53053701Y-55230262D01*
X53065143Y-55259162D01*
X53069039Y-55290000D01*
X53065143Y-55320837D01*
X53053701Y-55349737D01*
X53035431Y-55374884D01*
X53011482Y-55394697D01*
X52983357Y-55407931D01*
X52939080Y-55422317D01*
X52851145Y-55458742D01*
X52851119Y-55458754D01*
X52766281Y-55501981D01*
X52766276Y-55501983D01*
X52766276Y-55501984D01*
X52766265Y-55501990D01*
X52685107Y-55551723D01*
X52685075Y-55551745D01*
X52608072Y-55607691D01*
X52608058Y-55607701D01*
X52535668Y-55669529D01*
X52535654Y-55669542D01*
X52468342Y-55736854D01*
X52468329Y-55736868D01*
X52406501Y-55809258D01*
X52406491Y-55809272D01*
X52350545Y-55886275D01*
X52350523Y-55886307D01*
X52300790Y-55967465D01*
X52300783Y-55967476D01*
X52300781Y-55967481D01*
X52257554Y-56052319D01*
X52257542Y-56052345D01*
X52221117Y-56140280D01*
X52191697Y-56230827D01*
X52191694Y-56230837D01*
X52191693Y-56230842D01*
X52191661Y-56230977D01*
X52169464Y-56323432D01*
X52154570Y-56417468D01*
X52154569Y-56417471D01*
X52147100Y-56512384D01*
X52147100Y-56607615D01*
X52154569Y-56702528D01*
X52154570Y-56702530D01*
X52169465Y-56796573D01*
X52191693Y-56889158D01*
X52191695Y-56889165D01*
X52191697Y-56889172D01*
X52221117Y-56979719D01*
X52257542Y-57067654D01*
X52257549Y-57067671D01*
X52257554Y-57067681D01*
X52300781Y-57152519D01*
X52300788Y-57152531D01*
X52300790Y-57152534D01*
X52350523Y-57233692D01*
X52350545Y-57233724D01*
X52406491Y-57310727D01*
X52406501Y-57310741D01*
X52468039Y-57382791D01*
X52468335Y-57383138D01*
X52535662Y-57450465D01*
X52535668Y-57450470D01*
X52608058Y-57512298D01*
X52608072Y-57512308D01*
X52684531Y-57567859D01*
X52685096Y-57568269D01*
X52766281Y-57618019D01*
X52851119Y-57661246D01*
X52851140Y-57661254D01*
X52851145Y-57661257D01*
X52939080Y-57697682D01*
X52983357Y-57712069D01*
X53011481Y-57725303D01*
X53035431Y-57745116D01*
X53053701Y-57770262D01*
X53065143Y-57799162D01*
X53069039Y-57830000D01*
X53065143Y-57860837D01*
X53053701Y-57889737D01*
X53035431Y-57914884D01*
X53011482Y-57934697D01*
X52983357Y-57947931D01*
X52939080Y-57962317D01*
X52851145Y-57998742D01*
X52851119Y-57998754D01*
X52766281Y-58041981D01*
X52766276Y-58041983D01*
X52766276Y-58041984D01*
X52766265Y-58041990D01*
X52685107Y-58091723D01*
X52685075Y-58091745D01*
X52608072Y-58147691D01*
X52608058Y-58147701D01*
X52535668Y-58209529D01*
X52535654Y-58209542D01*
X52468342Y-58276854D01*
X52468329Y-58276868D01*
X52406501Y-58349258D01*
X52406491Y-58349272D01*
X52350545Y-58426275D01*
X52350523Y-58426307D01*
X52300790Y-58507465D01*
X52300784Y-58507476D01*
X52257554Y-58592319D01*
X52257542Y-58592345D01*
X52221117Y-58680280D01*
X52191697Y-58770827D01*
X52169464Y-58863432D01*
X52154570Y-58957468D01*
X52154569Y-58957471D01*
X52147100Y-59052384D01*
X52147100Y-59147615D01*
X52154569Y-59242528D01*
X52154570Y-59242531D01*
X52158941Y-59270125D01*
X52169465Y-59336573D01*
X52191693Y-59429158D01*
X52191695Y-59429165D01*
X52191697Y-59429172D01*
X52221117Y-59519719D01*
X52257542Y-59607654D01*
X52257549Y-59607671D01*
X52257554Y-59607681D01*
X52300781Y-59692519D01*
X52300788Y-59692531D01*
X52300790Y-59692534D01*
X52350523Y-59773692D01*
X52350545Y-59773724D01*
X52406491Y-59850727D01*
X52406501Y-59850741D01*
X52468329Y-59923131D01*
X52468335Y-59923138D01*
X52535662Y-59990465D01*
X52535668Y-59990470D01*
X52608058Y-60052298D01*
X52608065Y-60052303D01*
X52685096Y-60108269D01*
X52766281Y-60158019D01*
X52851119Y-60201246D01*
X52851140Y-60201254D01*
X52851145Y-60201257D01*
X52939084Y-60237684D01*
X52984164Y-60252331D01*
X53012288Y-60265565D01*
X53036238Y-60285377D01*
X53054508Y-60310523D01*
X53065951Y-60339423D01*
X53069847Y-60370261D01*
X53065952Y-60401098D01*
X53054510Y-60429998D01*
X53036240Y-60455145D01*
X53012291Y-60474958D01*
X52984167Y-60488193D01*
X52939257Y-60502785D01*
X52851333Y-60539206D01*
X52851328Y-60539208D01*
X52766525Y-60582417D01*
X52766511Y-60582425D01*
X52685383Y-60632140D01*
X52685372Y-60632148D01*
X52608382Y-60688084D01*
X52608368Y-60688095D01*
X52536008Y-60749896D01*
X52535994Y-60749909D01*
X52468709Y-60817194D01*
X52468696Y-60817208D01*
X52406895Y-60889568D01*
X52406884Y-60889582D01*
X52350948Y-60966572D01*
X52350940Y-60966583D01*
X52301225Y-61047711D01*
X52301217Y-61047725D01*
X52258008Y-61132528D01*
X52258006Y-61132533D01*
X52221582Y-61220464D01*
X52192173Y-61310977D01*
X52173202Y-61389999D01*
X52173203Y-61390000D01*
X53636574Y-61390000D01*
X53631699Y-61397759D01*
X53607332Y-61448357D01*
X53588784Y-61501364D01*
X53576288Y-61556115D01*
X53570000Y-61611921D01*
X53570000Y-61668079D01*
X53576288Y-61723885D01*
X53588784Y-61778636D01*
X53607332Y-61831643D01*
X53631699Y-61882241D01*
X53636574Y-61890000D01*
X52173203Y-61890000D01*
X52192173Y-61969022D01*
X52221582Y-62059535D01*
X52258006Y-62147466D01*
X52258008Y-62147471D01*
X52301217Y-62232274D01*
X52301225Y-62232288D01*
X52350940Y-62313416D01*
X52350948Y-62313427D01*
X52406884Y-62390417D01*
X52406895Y-62390431D01*
X52468696Y-62462791D01*
X52468709Y-62462805D01*
X52535994Y-62530090D01*
X52536008Y-62530103D01*
X52608368Y-62591904D01*
X52608382Y-62591915D01*
X52685372Y-62647851D01*
X52685383Y-62647859D01*
X52766511Y-62697574D01*
X52766525Y-62697582D01*
X52851328Y-62740791D01*
X52851333Y-62740793D01*
X52939268Y-62777218D01*
X52984164Y-62791806D01*
X53012289Y-62805040D01*
X53036239Y-62824853D01*
X53054509Y-62849999D01*
X53065951Y-62878899D01*
X53069847Y-62909736D01*
X53065952Y-62940574D01*
X53054509Y-62969474D01*
X53036240Y-62994620D01*
X53012290Y-63014433D01*
X52984166Y-63027668D01*
X52939077Y-63042318D01*
X52851145Y-63078742D01*
X52851119Y-63078754D01*
X52766281Y-63121981D01*
X52766276Y-63121983D01*
X52766276Y-63121984D01*
X52766265Y-63121990D01*
X52685107Y-63171723D01*
X52685075Y-63171745D01*
X52608072Y-63227691D01*
X52608058Y-63227701D01*
X52535668Y-63289529D01*
X52535654Y-63289542D01*
X52468342Y-63356854D01*
X52468329Y-63356868D01*
X52406501Y-63429258D01*
X52406491Y-63429272D01*
X52350545Y-63506275D01*
X52350523Y-63506307D01*
X52300790Y-63587465D01*
X52300784Y-63587476D01*
X52257554Y-63672319D01*
X52257542Y-63672345D01*
X52221117Y-63760280D01*
X52191697Y-63850827D01*
X52169464Y-63943432D01*
X52154570Y-64037468D01*
X52154569Y-64037471D01*
X52147100Y-64132384D01*
X52147100Y-64227615D01*
X52154569Y-64322528D01*
X52154570Y-64322530D01*
X52169465Y-64416573D01*
X52191693Y-64509158D01*
X52191695Y-64509165D01*
X52191697Y-64509172D01*
X52221117Y-64599719D01*
X52257542Y-64687654D01*
X52257549Y-64687671D01*
X52257554Y-64687681D01*
X52300781Y-64772519D01*
X52300788Y-64772531D01*
X52300790Y-64772534D01*
X52350523Y-64853692D01*
X52350545Y-64853724D01*
X52406491Y-64930727D01*
X52406501Y-64930741D01*
X52468329Y-65003131D01*
X52468335Y-65003138D01*
X52535662Y-65070465D01*
X52535668Y-65070470D01*
X52608058Y-65132298D01*
X52608065Y-65132303D01*
X52685096Y-65188269D01*
X52766281Y-65238019D01*
X52851119Y-65281246D01*
X52851140Y-65281254D01*
X52851145Y-65281257D01*
X52939080Y-65317682D01*
X52983357Y-65332069D01*
X53011481Y-65345303D01*
X53035431Y-65365116D01*
X53053701Y-65390262D01*
X53065143Y-65419162D01*
X53069039Y-65450000D01*
X53065143Y-65480837D01*
X53053701Y-65509737D01*
X53035431Y-65534884D01*
X53011482Y-65554697D01*
X52983357Y-65567931D01*
X52939080Y-65582317D01*
X52851145Y-65618742D01*
X52851119Y-65618754D01*
X52766281Y-65661981D01*
X52766276Y-65661983D01*
X52766276Y-65661984D01*
X52766265Y-65661990D01*
X52685107Y-65711723D01*
X52685075Y-65711745D01*
X52608072Y-65767691D01*
X52608058Y-65767701D01*
X52535668Y-65829529D01*
X52535654Y-65829542D01*
X52468342Y-65896854D01*
X52468329Y-65896868D01*
X52406501Y-65969258D01*
X52406491Y-65969272D01*
X52350545Y-66046275D01*
X52350523Y-66046307D01*
X52300790Y-66127465D01*
X52300784Y-66127476D01*
X52257554Y-66212319D01*
X52257542Y-66212345D01*
X52221117Y-66300280D01*
X52191697Y-66390827D01*
X52169464Y-66483432D01*
X52154570Y-66577468D01*
X52154569Y-66577471D01*
X52147100Y-66672384D01*
X52147100Y-66767615D01*
X52154569Y-66862528D01*
X52154570Y-66862530D01*
X52169465Y-66956573D01*
X52191693Y-67049158D01*
X52191695Y-67049165D01*
X52191697Y-67049172D01*
X52221117Y-67139719D01*
X52257542Y-67227654D01*
X52257549Y-67227671D01*
X52257554Y-67227681D01*
X52300781Y-67312519D01*
X52300788Y-67312531D01*
X52300790Y-67312534D01*
X52350523Y-67393692D01*
X52350545Y-67393724D01*
X52406491Y-67470727D01*
X52406501Y-67470741D01*
X52468329Y-67543131D01*
X52468335Y-67543138D01*
X52535662Y-67610465D01*
X52535668Y-67610470D01*
X52608058Y-67672298D01*
X52608065Y-67672303D01*
X52685096Y-67728269D01*
X52766281Y-67778019D01*
X52851119Y-67821246D01*
X52851140Y-67821254D01*
X52851145Y-67821257D01*
X52939080Y-67857682D01*
X52983357Y-67872069D01*
X53011481Y-67885303D01*
X53035431Y-67905116D01*
X53053701Y-67930262D01*
X53065143Y-67959162D01*
X53069039Y-67990000D01*
X53065143Y-68020837D01*
X53053701Y-68049737D01*
X53035431Y-68074884D01*
X53011482Y-68094697D01*
X52983357Y-68107931D01*
X52939080Y-68122317D01*
X52851145Y-68158742D01*
X52851119Y-68158754D01*
X52766281Y-68201981D01*
X52766276Y-68201983D01*
X52766276Y-68201984D01*
X52766265Y-68201990D01*
X52685107Y-68251723D01*
X52685075Y-68251745D01*
X52608072Y-68307691D01*
X52608058Y-68307701D01*
X52535668Y-68369529D01*
X52535654Y-68369542D01*
X52468342Y-68436854D01*
X52468329Y-68436868D01*
X52406501Y-68509258D01*
X52406491Y-68509272D01*
X52350545Y-68586275D01*
X52350523Y-68586307D01*
X52300790Y-68667465D01*
X52300783Y-68667476D01*
X52300781Y-68667481D01*
X52264674Y-68738346D01*
X52257554Y-68752319D01*
X52257542Y-68752345D01*
X52221117Y-68840280D01*
X52191697Y-68930827D01*
X52191694Y-68930837D01*
X52191693Y-68930842D01*
X52169465Y-69023427D01*
X52169464Y-69023432D01*
X52154570Y-69117468D01*
X52154569Y-69117471D01*
X52147100Y-69212384D01*
X52147100Y-69307615D01*
X52154569Y-69402528D01*
X52154570Y-69402530D01*
X52169465Y-69496573D01*
X52191693Y-69589158D01*
X52191695Y-69589165D01*
X52191697Y-69589172D01*
X52221117Y-69679719D01*
X52257542Y-69767654D01*
X52257549Y-69767671D01*
X52257554Y-69767681D01*
X52300781Y-69852519D01*
X52300788Y-69852531D01*
X52300790Y-69852534D01*
X52350523Y-69933692D01*
X52350545Y-69933724D01*
X52406491Y-70010727D01*
X52406501Y-70010741D01*
X52468329Y-70083131D01*
X52468335Y-70083138D01*
X52535662Y-70150465D01*
X52535668Y-70150470D01*
X52608058Y-70212298D01*
X52608065Y-70212303D01*
X52685096Y-70268269D01*
X52766281Y-70318019D01*
X52851119Y-70361246D01*
X52851140Y-70361254D01*
X52851145Y-70361257D01*
X52939084Y-70397684D01*
X52984164Y-70412331D01*
X53012288Y-70425565D01*
X53036238Y-70445377D01*
X53054508Y-70470523D01*
X53065951Y-70499423D01*
X53069847Y-70530261D01*
X53065952Y-70561098D01*
X53054510Y-70589998D01*
X53036240Y-70615145D01*
X53012291Y-70634958D01*
X52984167Y-70648193D01*
X52939257Y-70662785D01*
X52851333Y-70699206D01*
X52851328Y-70699208D01*
X52766525Y-70742417D01*
X52766511Y-70742425D01*
X52685383Y-70792140D01*
X52685372Y-70792148D01*
X52608382Y-70848084D01*
X52608368Y-70848095D01*
X52536008Y-70909896D01*
X52535994Y-70909909D01*
X52468709Y-70977194D01*
X52468696Y-70977208D01*
X52406895Y-71049568D01*
X52406884Y-71049582D01*
X52350948Y-71126572D01*
X52350940Y-71126583D01*
X52301225Y-71207711D01*
X52301217Y-71207725D01*
X52258008Y-71292528D01*
X52258006Y-71292533D01*
X52221582Y-71380464D01*
X52192173Y-71470977D01*
X52173202Y-71549999D01*
X52173203Y-71550000D01*
X53636574Y-71550000D01*
X53631699Y-71557759D01*
X53607332Y-71608357D01*
X53588784Y-71661364D01*
X53576288Y-71716115D01*
X53570000Y-71771921D01*
X53570000Y-71828079D01*
X53576288Y-71883885D01*
X53588784Y-71938636D01*
X53607332Y-71991643D01*
X53631699Y-72042241D01*
X53636574Y-72050000D01*
X52173203Y-72050000D01*
X52192173Y-72129022D01*
X52221582Y-72219535D01*
X52258006Y-72307466D01*
X52258008Y-72307471D01*
X52301217Y-72392274D01*
X52301225Y-72392288D01*
X52350940Y-72473416D01*
X52350948Y-72473427D01*
X52406884Y-72550417D01*
X52406895Y-72550431D01*
X52468696Y-72622791D01*
X52468709Y-72622805D01*
X52535994Y-72690090D01*
X52536008Y-72690103D01*
X52608368Y-72751904D01*
X52608382Y-72751915D01*
X52685372Y-72807851D01*
X52685383Y-72807859D01*
X52766511Y-72857574D01*
X52766525Y-72857582D01*
X52851328Y-72900791D01*
X52851333Y-72900793D01*
X52939264Y-72937217D01*
X53029766Y-72966622D01*
X53029794Y-72966630D01*
X53122325Y-72988844D01*
X53216327Y-73003732D01*
X53216330Y-73003733D01*
X53311204Y-73011199D01*
X53311220Y-73011200D01*
X53820000Y-73011200D01*
X53820000Y-72233425D01*
X53827759Y-72238301D01*
X53878357Y-72262668D01*
X53931364Y-72281216D01*
X53986115Y-72293712D01*
X54041921Y-72300000D01*
X54098079Y-72300000D01*
X54153885Y-72293712D01*
X54208636Y-72281216D01*
X54261643Y-72262668D01*
X54312241Y-72238301D01*
X54320000Y-72233425D01*
X54320000Y-73011200D01*
X54828780Y-73011200D01*
X54828795Y-73011199D01*
X54923669Y-73003733D01*
X54923672Y-73003732D01*
X55017674Y-72988844D01*
X55110205Y-72966630D01*
X55110233Y-72966622D01*
X55200735Y-72937217D01*
X55288666Y-72900793D01*
X55288671Y-72900791D01*
X55373474Y-72857582D01*
X55373488Y-72857574D01*
X55454616Y-72807859D01*
X55454627Y-72807851D01*
X55531617Y-72751915D01*
X55531631Y-72751904D01*
X55603991Y-72690103D01*
X55604005Y-72690090D01*
X55671290Y-72622805D01*
X55671303Y-72622791D01*
X55733104Y-72550431D01*
X55733115Y-72550417D01*
X55789051Y-72473427D01*
X55789059Y-72473416D01*
X55838774Y-72392288D01*
X55838782Y-72392274D01*
X55881991Y-72307471D01*
X55881993Y-72307466D01*
X55918417Y-72219535D01*
X55947826Y-72129022D01*
X55966797Y-72050000D01*
X54503426Y-72050000D01*
X54508301Y-72042241D01*
X54532668Y-71991643D01*
X54551216Y-71938636D01*
X54563712Y-71883885D01*
X54570000Y-71828079D01*
X54570000Y-71771921D01*
X54563712Y-71716115D01*
X54551216Y-71661364D01*
X54532668Y-71608357D01*
X54508301Y-71557759D01*
X54503426Y-71550000D01*
X55966797Y-71550000D01*
X55966797Y-71549999D01*
X55947826Y-71470977D01*
X55918417Y-71380464D01*
X55881993Y-71292533D01*
X55881991Y-71292528D01*
X55838782Y-71207725D01*
X55838774Y-71207711D01*
X55789059Y-71126583D01*
X55789051Y-71126572D01*
X55733115Y-71049582D01*
X55733104Y-71049568D01*
X55671303Y-70977208D01*
X55671290Y-70977194D01*
X55604005Y-70909909D01*
X55603991Y-70909896D01*
X55531631Y-70848095D01*
X55531617Y-70848084D01*
X55454627Y-70792148D01*
X55454616Y-70792140D01*
X55373488Y-70742425D01*
X55373474Y-70742417D01*
X55288671Y-70699208D01*
X55288666Y-70699206D01*
X55200738Y-70662784D01*
X55155833Y-70648193D01*
X55127709Y-70634958D01*
X55103759Y-70615145D01*
X55085490Y-70589999D01*
X55074048Y-70561099D01*
X55070152Y-70530261D01*
X55074048Y-70499424D01*
X55085490Y-70470524D01*
X55103760Y-70445378D01*
X55127710Y-70425565D01*
X55155835Y-70412331D01*
X55155835Y-70412330D01*
X55200914Y-70397684D01*
X55288881Y-70361246D01*
X55373719Y-70318019D01*
X55454904Y-70268269D01*
X55531935Y-70212303D01*
X55604338Y-70150465D01*
X55671665Y-70083138D01*
X55733503Y-70010735D01*
X55789469Y-69933704D01*
X55839219Y-69852519D01*
X55882446Y-69767681D01*
X55918884Y-69679714D01*
X55948307Y-69589158D01*
X55970535Y-69496573D01*
X55985430Y-69402530D01*
X55992900Y-69307608D01*
X55992900Y-69212392D01*
X55985430Y-69117470D01*
X55970535Y-69023427D01*
X55948307Y-68930842D01*
X55918884Y-68840286D01*
X55913413Y-68827079D01*
X55882457Y-68752345D01*
X55882454Y-68752340D01*
X55882446Y-68752319D01*
X55839219Y-68667481D01*
X55789469Y-68586296D01*
X55733503Y-68509265D01*
X55733498Y-68509258D01*
X55671670Y-68436868D01*
X55671665Y-68436862D01*
X55604338Y-68369535D01*
X55604331Y-68369529D01*
X55531941Y-68307701D01*
X55531927Y-68307691D01*
X55454924Y-68251745D01*
X55454892Y-68251723D01*
X55373734Y-68201990D01*
X55373731Y-68201988D01*
X55373719Y-68201981D01*
X55288881Y-68158754D01*
X55288871Y-68158749D01*
X55288854Y-68158742D01*
X55200915Y-68122315D01*
X55156643Y-68107931D01*
X55128518Y-68094697D01*
X55104568Y-68074884D01*
X55086298Y-68049738D01*
X55074856Y-68020838D01*
X55070960Y-67990001D01*
X55074855Y-67959163D01*
X55086298Y-67930263D01*
X55104567Y-67905117D01*
X55128517Y-67885304D01*
X55156641Y-67872069D01*
X55156643Y-67872069D01*
X55200915Y-67857684D01*
X55288854Y-67821257D01*
X55288881Y-67821246D01*
X55373719Y-67778019D01*
X55454904Y-67728269D01*
X55531935Y-67672303D01*
X55604338Y-67610465D01*
X55671665Y-67543138D01*
X55733503Y-67470735D01*
X55789469Y-67393704D01*
X55839219Y-67312519D01*
X55882446Y-67227681D01*
X55918884Y-67139714D01*
X55948307Y-67049158D01*
X55970535Y-66956573D01*
X55985430Y-66862530D01*
X55992900Y-66767608D01*
X55992900Y-66672392D01*
X55985430Y-66577470D01*
X55970535Y-66483427D01*
X55948307Y-66390842D01*
X55918884Y-66300286D01*
X55882446Y-66212319D01*
X55839219Y-66127481D01*
X55789469Y-66046296D01*
X55733503Y-65969265D01*
X55733498Y-65969258D01*
X55671670Y-65896868D01*
X55671665Y-65896862D01*
X55604338Y-65829535D01*
X55604331Y-65829529D01*
X55531941Y-65767701D01*
X55531927Y-65767691D01*
X55454924Y-65711745D01*
X55454892Y-65711723D01*
X55373734Y-65661990D01*
X55373731Y-65661988D01*
X55373719Y-65661981D01*
X55288881Y-65618754D01*
X55288871Y-65618749D01*
X55288854Y-65618742D01*
X55200915Y-65582315D01*
X55156643Y-65567931D01*
X55128518Y-65554697D01*
X55104568Y-65534884D01*
X55086298Y-65509738D01*
X55074856Y-65480838D01*
X55070960Y-65450001D01*
X55074855Y-65419163D01*
X55086298Y-65390263D01*
X55104567Y-65365117D01*
X55128517Y-65345304D01*
X55156641Y-65332069D01*
X55156643Y-65332069D01*
X55200915Y-65317684D01*
X55288854Y-65281257D01*
X55288881Y-65281246D01*
X55373719Y-65238019D01*
X55454904Y-65188269D01*
X55531935Y-65132303D01*
X55604338Y-65070465D01*
X55671665Y-65003138D01*
X55733503Y-64930735D01*
X55789469Y-64853704D01*
X55839219Y-64772519D01*
X55882446Y-64687681D01*
X55918884Y-64599714D01*
X55948307Y-64509158D01*
X55970535Y-64416573D01*
X55985430Y-64322530D01*
X55992900Y-64227608D01*
X55992900Y-64132392D01*
X55985430Y-64037470D01*
X55970535Y-63943427D01*
X55948307Y-63850842D01*
X55918884Y-63760286D01*
X55882446Y-63672319D01*
X55839219Y-63587481D01*
X55789469Y-63506296D01*
X55733503Y-63429265D01*
X55733498Y-63429258D01*
X55671670Y-63356868D01*
X55671665Y-63356862D01*
X55604338Y-63289535D01*
X55604331Y-63289529D01*
X55531941Y-63227701D01*
X55531927Y-63227691D01*
X55454924Y-63171745D01*
X55454892Y-63171723D01*
X55373734Y-63121990D01*
X55373731Y-63121988D01*
X55373719Y-63121981D01*
X55288881Y-63078754D01*
X55288871Y-63078749D01*
X55288854Y-63078742D01*
X55200919Y-63042317D01*
X55155834Y-63027668D01*
X55127709Y-63014434D01*
X55103760Y-62994621D01*
X55085490Y-62969474D01*
X55074048Y-62940574D01*
X55070152Y-62909737D01*
X55074048Y-62878899D01*
X55085490Y-62849999D01*
X55103760Y-62824853D01*
X55127710Y-62805040D01*
X55155834Y-62791806D01*
X55155835Y-62791805D01*
X55200743Y-62777214D01*
X55288666Y-62740793D01*
X55288671Y-62740791D01*
X55373474Y-62697582D01*
X55373488Y-62697574D01*
X55454616Y-62647859D01*
X55454627Y-62647851D01*
X55531617Y-62591915D01*
X55531631Y-62591904D01*
X55603991Y-62530103D01*
X55604005Y-62530090D01*
X55671290Y-62462805D01*
X55671303Y-62462791D01*
X55733104Y-62390431D01*
X55733115Y-62390417D01*
X55789051Y-62313427D01*
X55789059Y-62313416D01*
X55838774Y-62232288D01*
X55838782Y-62232274D01*
X55881991Y-62147471D01*
X55881993Y-62147466D01*
X55918417Y-62059535D01*
X55947826Y-61969022D01*
X55966797Y-61890000D01*
X54503426Y-61890000D01*
X54508301Y-61882241D01*
X54532668Y-61831643D01*
X54551216Y-61778636D01*
X54563712Y-61723885D01*
X54570000Y-61668079D01*
X54570000Y-61611921D01*
X54563712Y-61556115D01*
X54551216Y-61501364D01*
X54532668Y-61448357D01*
X54508301Y-61397759D01*
X54503426Y-61390000D01*
X56026941Y-61390000D01*
X56026941Y-61390762D01*
X56039702Y-61390459D01*
X56069983Y-61397473D01*
X56097569Y-61411796D01*
X56114767Y-61426135D01*
X62719234Y-68030601D01*
X62738285Y-68055161D01*
X62750629Y-68083687D01*
X62755081Y-68107471D01*
X62757115Y-68130720D01*
X62772284Y-68216748D01*
X62772285Y-68216755D01*
X62775929Y-68230353D01*
X62794897Y-68301143D01*
X62794898Y-68301145D01*
X62794898Y-68301146D01*
X62824783Y-68383252D01*
X62861695Y-68462410D01*
X62861698Y-68462417D01*
X62861700Y-68462420D01*
X62905383Y-68538080D01*
X62905386Y-68538084D01*
X62955493Y-68609646D01*
X63011653Y-68676575D01*
X63073424Y-68738346D01*
X63140353Y-68794506D01*
X63182138Y-68823763D01*
X63211920Y-68844617D01*
X63287580Y-68888300D01*
X63287582Y-68888301D01*
X63287589Y-68888304D01*
X63366747Y-68925216D01*
X63366752Y-68925217D01*
X63366761Y-68925222D01*
X63448857Y-68955103D01*
X63533246Y-68977715D01*
X63619284Y-68992885D01*
X63688910Y-68998977D01*
X63706316Y-69000500D01*
X63706317Y-69000500D01*
X63793684Y-69000500D01*
X63808188Y-68999230D01*
X63880716Y-68992885D01*
X63966754Y-68977715D01*
X64051143Y-68955103D01*
X64133239Y-68925222D01*
X64212420Y-68888300D01*
X64288080Y-68844617D01*
X64359646Y-68794506D01*
X64377523Y-68779505D01*
X64403643Y-68762673D01*
X64433137Y-68752862D01*
X64457222Y-68750500D01*
X72542778Y-68750500D01*
X72573616Y-68754396D01*
X72602515Y-68765838D01*
X72622474Y-68779503D01*
X72640354Y-68794506D01*
X72640365Y-68794514D01*
X72640369Y-68794517D01*
X72676067Y-68819512D01*
X72711920Y-68844617D01*
X72787580Y-68888300D01*
X72787582Y-68888301D01*
X72787589Y-68888304D01*
X72866747Y-68925216D01*
X72866752Y-68925217D01*
X72866761Y-68925222D01*
X72948857Y-68955103D01*
X73033246Y-68977715D01*
X73119284Y-68992885D01*
X73188910Y-68998977D01*
X73206316Y-69000500D01*
X73206317Y-69000500D01*
X73293684Y-69000500D01*
X73308188Y-68999230D01*
X73380716Y-68992885D01*
X73466754Y-68977715D01*
X73551143Y-68955103D01*
X73633239Y-68925222D01*
X73712420Y-68888300D01*
X73788080Y-68844617D01*
X73859646Y-68794506D01*
X73926572Y-68738349D01*
X73988349Y-68676572D01*
X74044506Y-68609646D01*
X74094617Y-68538080D01*
X74138300Y-68462420D01*
X74175222Y-68383239D01*
X74205103Y-68301143D01*
X74209674Y-68284080D01*
X74221417Y-68255306D01*
X74239949Y-68230353D01*
X74264105Y-68210792D01*
X74292366Y-68197852D01*
X74322958Y-68192348D01*
X74353957Y-68194624D01*
X74383416Y-68204538D01*
X74409484Y-68221467D01*
X74417129Y-68228497D01*
X75015711Y-68827079D01*
X75034762Y-68851639D01*
X75047106Y-68880165D01*
X75051969Y-68910865D01*
X75049044Y-68941810D01*
X75048604Y-68943707D01*
X75029464Y-69023429D01*
X75014570Y-69117468D01*
X75014569Y-69117471D01*
X75007100Y-69212384D01*
X75007100Y-69307615D01*
X75014569Y-69402528D01*
X75014570Y-69402530D01*
X75029465Y-69496573D01*
X75051693Y-69589158D01*
X75051695Y-69589165D01*
X75051697Y-69589172D01*
X75081117Y-69679719D01*
X75117542Y-69767654D01*
X75117549Y-69767671D01*
X75117554Y-69767681D01*
X75160781Y-69852519D01*
X75160788Y-69852531D01*
X75160790Y-69852534D01*
X75210523Y-69933692D01*
X75210545Y-69933724D01*
X75266491Y-70010727D01*
X75266501Y-70010741D01*
X75328329Y-70083131D01*
X75328335Y-70083138D01*
X75395662Y-70150465D01*
X75395668Y-70150470D01*
X75468058Y-70212298D01*
X75468065Y-70212303D01*
X75545096Y-70268269D01*
X75626281Y-70318019D01*
X75711119Y-70361246D01*
X75711140Y-70361254D01*
X75711145Y-70361257D01*
X75799080Y-70397682D01*
X75843357Y-70412069D01*
X75871481Y-70425303D01*
X75895431Y-70445116D01*
X75913701Y-70470262D01*
X75925143Y-70499162D01*
X75929039Y-70530000D01*
X75925143Y-70560837D01*
X75913701Y-70589737D01*
X75895431Y-70614884D01*
X75871482Y-70634697D01*
X75843357Y-70647931D01*
X75799080Y-70662317D01*
X75711145Y-70698742D01*
X75711119Y-70698754D01*
X75626281Y-70741981D01*
X75626276Y-70741983D01*
X75626276Y-70741984D01*
X75626265Y-70741990D01*
X75545107Y-70791723D01*
X75545075Y-70791745D01*
X75468072Y-70847691D01*
X75468058Y-70847701D01*
X75395668Y-70909529D01*
X75395654Y-70909542D01*
X75328342Y-70976854D01*
X75328329Y-70976868D01*
X75266501Y-71049258D01*
X75266491Y-71049272D01*
X75210545Y-71126275D01*
X75210523Y-71126307D01*
X75160790Y-71207465D01*
X75160784Y-71207476D01*
X75117554Y-71292319D01*
X75117542Y-71292345D01*
X75081117Y-71380280D01*
X75051697Y-71470827D01*
X75029464Y-71563432D01*
X75014570Y-71657468D01*
X75014569Y-71657471D01*
X75007100Y-71752384D01*
X75007100Y-71847615D01*
X75014569Y-71942528D01*
X75014570Y-71942530D01*
X75029465Y-72036573D01*
X75051693Y-72129158D01*
X75051695Y-72129165D01*
X75051697Y-72129172D01*
X75081117Y-72219719D01*
X75117542Y-72307654D01*
X75117549Y-72307671D01*
X75117554Y-72307681D01*
X75160781Y-72392519D01*
X75160788Y-72392531D01*
X75160790Y-72392534D01*
X75210523Y-72473692D01*
X75210545Y-72473724D01*
X75266491Y-72550727D01*
X75266501Y-72550741D01*
X75328039Y-72622791D01*
X75328335Y-72623138D01*
X75395662Y-72690465D01*
X75395668Y-72690470D01*
X75468058Y-72752298D01*
X75468072Y-72752308D01*
X75544531Y-72807859D01*
X75545096Y-72808269D01*
X75626281Y-72858019D01*
X75711119Y-72901246D01*
X75711140Y-72901254D01*
X75711145Y-72901257D01*
X75799080Y-72937682D01*
X75799085Y-72937683D01*
X75799086Y-72937684D01*
X75889642Y-72967107D01*
X75982227Y-72989335D01*
X76076270Y-73004230D01*
X76171192Y-73011700D01*
X76171200Y-73011700D01*
X77688800Y-73011700D01*
X77688808Y-73011700D01*
X77783730Y-73004230D01*
X77877773Y-72989335D01*
X77970358Y-72967107D01*
X78060914Y-72937684D01*
X78062042Y-72937217D01*
X78148854Y-72901257D01*
X78148881Y-72901246D01*
X78233719Y-72858019D01*
X78314904Y-72808269D01*
X78391935Y-72752303D01*
X78464338Y-72690465D01*
X78531665Y-72623138D01*
X78593503Y-72550735D01*
X78649469Y-72473704D01*
X78699219Y-72392519D01*
X78742446Y-72307681D01*
X78778884Y-72219714D01*
X78808307Y-72129158D01*
X78830535Y-72036573D01*
X78845430Y-71942530D01*
X78852900Y-71847608D01*
X78852900Y-71752392D01*
X78845430Y-71657470D01*
X78830535Y-71563427D01*
X78808307Y-71470842D01*
X78778884Y-71380286D01*
X78761091Y-71337332D01*
X78742457Y-71292345D01*
X78742454Y-71292340D01*
X78742446Y-71292319D01*
X78699219Y-71207481D01*
X78649469Y-71126296D01*
X78593503Y-71049265D01*
X78593498Y-71049258D01*
X78538647Y-70985037D01*
X78531665Y-70976862D01*
X78464338Y-70909535D01*
X78464331Y-70909529D01*
X78391941Y-70847701D01*
X78391927Y-70847691D01*
X78314924Y-70791745D01*
X78314892Y-70791723D01*
X78233734Y-70741990D01*
X78233731Y-70741988D01*
X78233719Y-70741981D01*
X78148881Y-70698754D01*
X78148871Y-70698749D01*
X78148854Y-70698742D01*
X78060915Y-70662315D01*
X78016643Y-70647931D01*
X77988518Y-70634697D01*
X77964568Y-70614884D01*
X77946298Y-70589738D01*
X77934856Y-70560838D01*
X77930960Y-70530001D01*
X77934855Y-70499163D01*
X77946298Y-70470263D01*
X77964567Y-70445117D01*
X77988517Y-70425304D01*
X78016641Y-70412069D01*
X78016643Y-70412069D01*
X78060915Y-70397684D01*
X78148854Y-70361257D01*
X78148881Y-70361246D01*
X78233719Y-70318019D01*
X78314904Y-70268269D01*
X78391935Y-70212303D01*
X78464338Y-70150465D01*
X78531665Y-70083138D01*
X78593503Y-70010735D01*
X78649469Y-69933704D01*
X78699219Y-69852519D01*
X78742446Y-69767681D01*
X78778884Y-69679714D01*
X78808307Y-69589158D01*
X78830535Y-69496573D01*
X78845430Y-69402530D01*
X78852900Y-69307608D01*
X78852900Y-69212392D01*
X78845430Y-69117470D01*
X78830535Y-69023427D01*
X78808307Y-68930842D01*
X78778884Y-68840286D01*
X78773413Y-68827079D01*
X78742457Y-68752345D01*
X78742454Y-68752340D01*
X78742446Y-68752319D01*
X78699219Y-68667481D01*
X78649469Y-68586296D01*
X78593503Y-68509265D01*
X78593498Y-68509258D01*
X78531670Y-68436868D01*
X78531665Y-68436862D01*
X78464338Y-68369535D01*
X78464331Y-68369529D01*
X78391941Y-68307701D01*
X78391927Y-68307691D01*
X78314924Y-68251745D01*
X78314892Y-68251723D01*
X78233734Y-68201990D01*
X78233731Y-68201988D01*
X78233719Y-68201981D01*
X78148881Y-68158754D01*
X78148871Y-68158749D01*
X78148854Y-68158742D01*
X78060915Y-68122315D01*
X78016643Y-68107931D01*
X77988518Y-68094697D01*
X77964568Y-68074884D01*
X77946298Y-68049738D01*
X77934856Y-68020838D01*
X77930960Y-67990001D01*
X77934855Y-67959163D01*
X77946298Y-67930263D01*
X77964567Y-67905117D01*
X77988517Y-67885304D01*
X78016641Y-67872069D01*
X78016643Y-67872069D01*
X78060915Y-67857684D01*
X78148854Y-67821257D01*
X78148881Y-67821246D01*
X78233719Y-67778019D01*
X78314904Y-67728269D01*
X78391935Y-67672303D01*
X78464338Y-67610465D01*
X78531665Y-67543138D01*
X78593503Y-67470735D01*
X78649469Y-67393704D01*
X78699219Y-67312519D01*
X78742446Y-67227681D01*
X78778884Y-67139714D01*
X78808307Y-67049158D01*
X78830535Y-66956573D01*
X78845430Y-66862530D01*
X78852900Y-66767608D01*
X78852900Y-66672392D01*
X78845430Y-66577470D01*
X78830535Y-66483427D01*
X78808307Y-66390842D01*
X78778884Y-66300286D01*
X78742446Y-66212319D01*
X78699219Y-66127481D01*
X78649469Y-66046296D01*
X78593503Y-65969265D01*
X78593498Y-65969258D01*
X78531670Y-65896868D01*
X78531665Y-65896862D01*
X78464338Y-65829535D01*
X78464331Y-65829529D01*
X78391941Y-65767701D01*
X78391927Y-65767691D01*
X78314924Y-65711745D01*
X78314892Y-65711723D01*
X78233734Y-65661990D01*
X78233731Y-65661988D01*
X78233719Y-65661981D01*
X78148881Y-65618754D01*
X78148871Y-65618749D01*
X78148854Y-65618742D01*
X78060915Y-65582315D01*
X78016643Y-65567931D01*
X77988518Y-65554697D01*
X77964568Y-65534884D01*
X77946298Y-65509738D01*
X77934856Y-65480838D01*
X77930960Y-65450001D01*
X77934855Y-65419163D01*
X77946298Y-65390263D01*
X77964567Y-65365117D01*
X77988517Y-65345304D01*
X78016641Y-65332069D01*
X78016643Y-65332069D01*
X78060915Y-65317684D01*
X78148854Y-65281257D01*
X78148881Y-65281246D01*
X78233719Y-65238019D01*
X78314904Y-65188269D01*
X78391935Y-65132303D01*
X78464338Y-65070465D01*
X78531665Y-65003138D01*
X78593503Y-64930735D01*
X78649469Y-64853704D01*
X78699219Y-64772519D01*
X78742446Y-64687681D01*
X78778884Y-64599714D01*
X78808307Y-64509158D01*
X78830535Y-64416573D01*
X78845430Y-64322530D01*
X78852900Y-64227608D01*
X78852900Y-64132392D01*
X78845430Y-64037470D01*
X78830535Y-63943427D01*
X78808307Y-63850842D01*
X78778884Y-63760286D01*
X78742446Y-63672319D01*
X78699219Y-63587481D01*
X78649469Y-63506296D01*
X78593503Y-63429265D01*
X78593498Y-63429258D01*
X78531670Y-63356868D01*
X78531665Y-63356862D01*
X78464338Y-63289535D01*
X78464331Y-63289529D01*
X78391941Y-63227701D01*
X78391927Y-63227691D01*
X78314924Y-63171745D01*
X78314892Y-63171723D01*
X78233734Y-63121990D01*
X78233731Y-63121988D01*
X78233719Y-63121981D01*
X78148881Y-63078754D01*
X78148871Y-63078749D01*
X78148854Y-63078742D01*
X78060915Y-63042315D01*
X78016643Y-63027931D01*
X77988518Y-63014697D01*
X77964568Y-62994884D01*
X77946298Y-62969738D01*
X77934856Y-62940838D01*
X77930960Y-62910001D01*
X77934855Y-62879163D01*
X77946298Y-62850263D01*
X77964567Y-62825117D01*
X77988517Y-62805304D01*
X78016641Y-62792069D01*
X78016643Y-62792069D01*
X78060915Y-62777684D01*
X78148854Y-62741257D01*
X78148881Y-62741246D01*
X78233719Y-62698019D01*
X78314904Y-62648269D01*
X78391935Y-62592303D01*
X78464338Y-62530465D01*
X78531665Y-62463138D01*
X78593503Y-62390735D01*
X78649469Y-62313704D01*
X78699219Y-62232519D01*
X78742446Y-62147681D01*
X78778884Y-62059714D01*
X78808307Y-61969158D01*
X78830535Y-61876573D01*
X78845430Y-61782530D01*
X78852900Y-61687608D01*
X78852900Y-61592392D01*
X78845430Y-61497470D01*
X78830535Y-61403427D01*
X78808307Y-61310842D01*
X78778884Y-61220286D01*
X78761091Y-61177332D01*
X78742457Y-61132345D01*
X78742454Y-61132340D01*
X78742446Y-61132319D01*
X78699219Y-61047481D01*
X78649469Y-60966296D01*
X78593503Y-60889265D01*
X78593498Y-60889258D01*
X78538647Y-60825037D01*
X78531665Y-60816862D01*
X78464338Y-60749535D01*
X78464331Y-60749529D01*
X78391941Y-60687701D01*
X78391927Y-60687691D01*
X78314924Y-60631745D01*
X78314892Y-60631723D01*
X78233734Y-60581990D01*
X78233731Y-60581988D01*
X78233719Y-60581981D01*
X78148881Y-60538754D01*
X78148871Y-60538749D01*
X78148854Y-60538742D01*
X78060915Y-60502315D01*
X78016643Y-60487931D01*
X77988518Y-60474697D01*
X77964568Y-60454884D01*
X77946298Y-60429738D01*
X77934856Y-60400838D01*
X77930960Y-60370001D01*
X77934855Y-60339163D01*
X77946298Y-60310263D01*
X77964567Y-60285117D01*
X77988517Y-60265304D01*
X78016641Y-60252069D01*
X78016643Y-60252069D01*
X78060915Y-60237684D01*
X78148854Y-60201257D01*
X78148881Y-60201246D01*
X78233719Y-60158019D01*
X78314904Y-60108269D01*
X78391935Y-60052303D01*
X78464338Y-59990465D01*
X78531665Y-59923138D01*
X78593503Y-59850735D01*
X78649469Y-59773704D01*
X78699219Y-59692519D01*
X78742446Y-59607681D01*
X78778884Y-59519714D01*
X78808307Y-59429158D01*
X78830535Y-59336573D01*
X78845430Y-59242530D01*
X78852900Y-59147608D01*
X78852900Y-59052392D01*
X78845430Y-58957470D01*
X78830535Y-58863427D01*
X78808307Y-58770842D01*
X78778884Y-58680286D01*
X78742446Y-58592319D01*
X78699219Y-58507481D01*
X78649469Y-58426296D01*
X78593503Y-58349265D01*
X78593498Y-58349258D01*
X78531670Y-58276868D01*
X78531665Y-58276862D01*
X78464338Y-58209535D01*
X78464331Y-58209529D01*
X78391941Y-58147701D01*
X78391927Y-58147691D01*
X78314924Y-58091745D01*
X78314892Y-58091723D01*
X78233734Y-58041990D01*
X78233731Y-58041988D01*
X78233719Y-58041981D01*
X78148881Y-57998754D01*
X78148871Y-57998749D01*
X78148854Y-57998742D01*
X78060919Y-57962317D01*
X78015834Y-57947668D01*
X77987709Y-57934434D01*
X77963760Y-57914621D01*
X77945490Y-57889474D01*
X77934048Y-57860574D01*
X77930152Y-57829737D01*
X77934048Y-57798899D01*
X77945490Y-57769999D01*
X77963760Y-57744853D01*
X77987710Y-57725040D01*
X78015834Y-57711806D01*
X78015835Y-57711805D01*
X78060743Y-57697214D01*
X78148666Y-57660793D01*
X78148671Y-57660791D01*
X78233474Y-57617582D01*
X78233488Y-57617574D01*
X78314616Y-57567859D01*
X78314627Y-57567851D01*
X78391617Y-57511915D01*
X78391631Y-57511904D01*
X78463991Y-57450103D01*
X78464005Y-57450090D01*
X78531290Y-57382805D01*
X78531303Y-57382791D01*
X78593104Y-57310431D01*
X78593115Y-57310417D01*
X78649051Y-57233427D01*
X78649059Y-57233416D01*
X78698774Y-57152288D01*
X78698782Y-57152274D01*
X78741991Y-57067471D01*
X78741993Y-57067466D01*
X78778417Y-56979535D01*
X78807826Y-56889022D01*
X78826797Y-56810000D01*
X77363426Y-56810000D01*
X77368301Y-56802241D01*
X77392668Y-56751643D01*
X77411216Y-56698636D01*
X77423712Y-56643885D01*
X77430000Y-56588079D01*
X77430000Y-56531921D01*
X77423712Y-56476115D01*
X77411216Y-56421364D01*
X77392668Y-56368357D01*
X77368301Y-56317759D01*
X77363426Y-56310000D01*
X78826797Y-56310000D01*
X78826797Y-56309999D01*
X78807826Y-56230977D01*
X78778417Y-56140464D01*
X78741993Y-56052533D01*
X78741991Y-56052528D01*
X78698782Y-55967725D01*
X78698774Y-55967711D01*
X78649059Y-55886583D01*
X78649051Y-55886572D01*
X78593115Y-55809582D01*
X78593104Y-55809568D01*
X78531303Y-55737208D01*
X78531290Y-55737194D01*
X78464005Y-55669909D01*
X78463991Y-55669896D01*
X78391631Y-55608095D01*
X78391617Y-55608084D01*
X78314627Y-55552148D01*
X78314616Y-55552140D01*
X78233488Y-55502425D01*
X78233474Y-55502417D01*
X78148671Y-55459208D01*
X78148666Y-55459206D01*
X78060738Y-55422784D01*
X78015833Y-55408193D01*
X77987709Y-55394958D01*
X77963759Y-55375145D01*
X77945490Y-55349999D01*
X77934048Y-55321099D01*
X77930152Y-55290261D01*
X77934048Y-55259424D01*
X77945490Y-55230524D01*
X77963760Y-55205378D01*
X77987710Y-55185565D01*
X78015835Y-55172331D01*
X78015835Y-55172330D01*
X78060914Y-55157684D01*
X78148881Y-55121246D01*
X78233719Y-55078019D01*
X78314904Y-55028269D01*
X78391935Y-54972303D01*
X78464338Y-54910465D01*
X78531665Y-54843138D01*
X78593503Y-54770735D01*
X78649469Y-54693704D01*
X78699219Y-54612519D01*
X78742446Y-54527681D01*
X78778884Y-54439714D01*
X78808307Y-54349158D01*
X78830535Y-54256573D01*
X78845430Y-54162530D01*
X78852900Y-54067608D01*
X78852900Y-53972392D01*
X78845430Y-53877470D01*
X78830535Y-53783427D01*
X78808307Y-53690842D01*
X78778884Y-53600286D01*
X78742446Y-53512319D01*
X78699219Y-53427481D01*
X78649469Y-53346296D01*
X78593503Y-53269265D01*
X78593498Y-53269258D01*
X78531670Y-53196868D01*
X78531665Y-53196862D01*
X78464338Y-53129535D01*
X78464331Y-53129529D01*
X78391941Y-53067701D01*
X78391927Y-53067691D01*
X78314924Y-53011745D01*
X78314892Y-53011723D01*
X78233734Y-52961990D01*
X78233731Y-52961988D01*
X78233719Y-52961981D01*
X78148881Y-52918754D01*
X78148871Y-52918749D01*
X78148854Y-52918742D01*
X78060919Y-52882317D01*
X77970372Y-52852897D01*
X77970365Y-52852895D01*
X77970358Y-52852893D01*
X77877773Y-52830665D01*
X77877767Y-52830664D01*
X77783731Y-52815770D01*
X77783728Y-52815769D01*
X77688815Y-52808300D01*
X77688808Y-52808300D01*
X76171192Y-52808300D01*
X76171184Y-52808300D01*
X76076271Y-52815769D01*
X76076268Y-52815770D01*
X75982232Y-52830664D01*
X75982229Y-52830664D01*
X75982227Y-52830665D01*
X75889642Y-52852893D01*
X75889637Y-52852894D01*
X75889627Y-52852897D01*
X75799080Y-52882317D01*
X75711145Y-52918742D01*
X75711119Y-52918754D01*
X75626281Y-52961981D01*
X75626276Y-52961983D01*
X75626276Y-52961984D01*
X75626265Y-52961990D01*
X75545107Y-53011723D01*
X75545075Y-53011745D01*
X75468072Y-53067691D01*
X75468058Y-53067701D01*
X75395668Y-53129529D01*
X75395654Y-53129542D01*
X75328342Y-53196854D01*
X75328329Y-53196868D01*
X75266501Y-53269258D01*
X75266491Y-53269272D01*
X75210545Y-53346275D01*
X75210523Y-53346307D01*
X75160790Y-53427465D01*
X75160784Y-53427476D01*
X75117554Y-53512319D01*
X75117542Y-53512345D01*
X75081117Y-53600280D01*
X75051697Y-53690827D01*
X75029464Y-53783432D01*
X75014570Y-53877468D01*
X75014569Y-53877471D01*
X75007100Y-53972384D01*
X75007100Y-54067615D01*
X75014569Y-54162528D01*
X75014570Y-54162531D01*
X75029464Y-54256567D01*
X75029465Y-54256573D01*
X75051693Y-54349158D01*
X75051695Y-54349165D01*
X75051697Y-54349172D01*
X75081117Y-54439719D01*
X75117542Y-54527654D01*
X75117549Y-54527671D01*
X75117554Y-54527681D01*
X75160781Y-54612519D01*
X75160788Y-54612531D01*
X75160790Y-54612534D01*
X75210523Y-54693692D01*
X75210545Y-54693724D01*
X75266491Y-54770727D01*
X75266501Y-54770741D01*
X75328329Y-54843131D01*
X75328335Y-54843138D01*
X75395662Y-54910465D01*
X75395668Y-54910470D01*
X75468058Y-54972298D01*
X75468065Y-54972303D01*
X75545096Y-55028269D01*
X75626281Y-55078019D01*
X75711119Y-55121246D01*
X75711140Y-55121254D01*
X75711145Y-55121257D01*
X75799084Y-55157684D01*
X75844164Y-55172331D01*
X75872288Y-55185565D01*
X75896238Y-55205377D01*
X75914508Y-55230523D01*
X75925951Y-55259423D01*
X75929847Y-55290261D01*
X75925952Y-55321098D01*
X75914510Y-55349998D01*
X75896240Y-55375145D01*
X75872291Y-55394958D01*
X75844167Y-55408193D01*
X75799257Y-55422785D01*
X75711333Y-55459206D01*
X75711328Y-55459208D01*
X75626525Y-55502417D01*
X75626511Y-55502425D01*
X75545383Y-55552140D01*
X75545372Y-55552148D01*
X75468382Y-55608084D01*
X75468368Y-55608095D01*
X75396008Y-55669896D01*
X75395994Y-55669909D01*
X75328709Y-55737194D01*
X75328696Y-55737208D01*
X75266895Y-55809568D01*
X75266884Y-55809582D01*
X75210948Y-55886572D01*
X75210940Y-55886583D01*
X75161225Y-55967711D01*
X75161217Y-55967725D01*
X75118008Y-56052528D01*
X75118006Y-56052533D01*
X75081582Y-56140464D01*
X75052177Y-56230966D01*
X75052169Y-56230994D01*
X75029955Y-56323525D01*
X75015066Y-56417530D01*
X75014824Y-56419575D01*
X75007320Y-56449738D01*
X74992551Y-56477088D01*
X74971445Y-56499906D01*
X74945327Y-56516757D01*
X74915838Y-56526584D01*
X74884833Y-56528769D01*
X74854258Y-56523175D01*
X74826035Y-56510152D01*
X74804007Y-56492640D01*
X72094799Y-53783432D01*
X68030765Y-49719397D01*
X68011714Y-49694837D01*
X67999370Y-49666311D01*
X67994918Y-49642523D01*
X67992885Y-49619284D01*
X67977715Y-49533246D01*
X67955103Y-49448857D01*
X67925222Y-49366761D01*
X67925217Y-49366752D01*
X67925216Y-49366747D01*
X67888304Y-49287589D01*
X67888301Y-49287582D01*
X67888300Y-49287580D01*
X67844617Y-49211920D01*
X67819053Y-49175411D01*
X67794506Y-49140353D01*
X67738346Y-49073424D01*
X67676575Y-49011653D01*
X67609646Y-48955493D01*
X67538084Y-48905386D01*
X67538085Y-48905386D01*
X67538080Y-48905383D01*
X67462420Y-48861700D01*
X67462417Y-48861698D01*
X67462410Y-48861695D01*
X67383252Y-48824783D01*
X67383241Y-48824779D01*
X67383239Y-48824778D01*
X67301143Y-48794897D01*
X67298812Y-48794272D01*
X67270038Y-48782529D01*
X67245085Y-48763996D01*
X67225525Y-48739840D01*
X67212586Y-48711578D01*
X67207083Y-48680987D01*
X67209360Y-48649987D01*
X67219275Y-48620528D01*
X67236204Y-48594461D01*
X67259085Y-48573422D01*
X67286478Y-48558735D01*
X67316664Y-48551321D01*
X67330913Y-48550500D01*
X78476350Y-48550500D01*
X78496949Y-48550500D01*
X78503033Y-48550649D01*
X78562479Y-48553569D01*
X78574588Y-48554762D01*
X78593775Y-48557608D01*
X78630449Y-48563048D01*
X78642361Y-48565417D01*
X78697158Y-48579143D01*
X78708773Y-48582666D01*
X78761966Y-48601699D01*
X78773185Y-48606347D01*
X78824239Y-48630494D01*
X78834971Y-48636230D01*
X78883396Y-48665255D01*
X78893502Y-48672007D01*
X78938867Y-48705652D01*
X78948266Y-48713366D01*
X78990107Y-48751289D01*
X78998710Y-48759892D01*
X79036633Y-48801733D01*
X79044349Y-48811134D01*
X79077989Y-48856493D01*
X79084744Y-48866603D01*
X79113769Y-48915028D01*
X79119505Y-48925760D01*
X79143652Y-48976814D01*
X79148304Y-48988043D01*
X79167328Y-49041213D01*
X79170858Y-49052848D01*
X79184578Y-49107621D01*
X79186952Y-49119557D01*
X79195237Y-49175411D01*
X79196430Y-49187519D01*
X79199351Y-49246964D01*
X79199500Y-49253050D01*
X79199500Y-90746949D01*
X79199351Y-90753035D01*
X79196430Y-90812480D01*
X79195237Y-90824588D01*
X79186952Y-90880442D01*
X79184578Y-90892378D01*
X79170858Y-90947151D01*
X79167326Y-90958792D01*
X79155267Y-90992499D01*
X79148310Y-91011942D01*
X79143652Y-91023185D01*
X79119505Y-91074239D01*
X79113769Y-91084971D01*
X79084744Y-91133396D01*
X79077984Y-91143514D01*
X79044354Y-91188859D01*
X79036633Y-91198266D01*
X78998710Y-91240107D01*
X78990107Y-91248710D01*
X78948266Y-91286633D01*
X78938859Y-91294354D01*
X78893514Y-91327984D01*
X78883396Y-91334744D01*
X78834971Y-91363769D01*
X78824239Y-91369505D01*
X78773185Y-91393652D01*
X78761949Y-91398306D01*
X78708795Y-91417326D01*
X78697151Y-91420858D01*
X78642378Y-91434578D01*
X78630442Y-91436952D01*
X78574588Y-91445237D01*
X78562480Y-91446430D01*
X78508803Y-91449067D01*
X78503031Y-91449351D01*
X78496949Y-91449500D01*
X52503051Y-91449500D01*
X52496968Y-91449351D01*
X52490864Y-91449051D01*
X52437519Y-91446430D01*
X52425411Y-91445237D01*
X52369557Y-91436952D01*
X52357621Y-91434578D01*
X52302848Y-91420858D01*
X52291213Y-91417328D01*
X52238043Y-91398304D01*
X52226814Y-91393652D01*
X52175760Y-91369505D01*
X52165028Y-91363769D01*
X52116603Y-91334744D01*
X52106493Y-91327989D01*
X52061134Y-91294349D01*
X52051733Y-91286633D01*
X52009892Y-91248710D01*
X52001289Y-91240107D01*
X51963366Y-91198266D01*
X51955652Y-91188867D01*
X51922007Y-91143502D01*
X51915255Y-91133396D01*
X51886230Y-91084971D01*
X51880494Y-91074239D01*
X51856347Y-91023185D01*
X51851699Y-91011966D01*
X51832666Y-90958773D01*
X51829141Y-90947151D01*
X51815417Y-90892361D01*
X51813047Y-90880442D01*
X51804762Y-90824588D01*
X51803569Y-90812478D01*
X51800649Y-90753033D01*
X51800500Y-90746949D01*
X51800500Y-87142942D01*
X60749500Y-87142942D01*
X60749500Y-87257057D01*
X60756389Y-87370941D01*
X60770141Y-87484199D01*
X60790709Y-87596438D01*
X60790711Y-87596444D01*
X60818014Y-87707222D01*
X60851957Y-87816148D01*
X60892414Y-87922825D01*
X60920773Y-87985837D01*
X60939247Y-88026883D01*
X60966967Y-88079700D01*
X60992276Y-88127921D01*
X61022146Y-88177331D01*
X61051299Y-88225556D01*
X61116114Y-88319457D01*
X61116118Y-88319462D01*
X61186482Y-88409276D01*
X61198082Y-88422369D01*
X61262142Y-88494678D01*
X61262147Y-88494683D01*
X61262166Y-88494703D01*
X61342796Y-88575333D01*
X61342816Y-88575352D01*
X61342822Y-88575358D01*
X61379131Y-88607525D01*
X61428223Y-88651017D01*
X61428226Y-88651019D01*
X61518043Y-88721386D01*
X61611944Y-88786201D01*
X61709588Y-88845229D01*
X61810617Y-88898253D01*
X61914664Y-88945081D01*
X61914667Y-88945082D01*
X61914674Y-88945085D01*
X61978786Y-88969399D01*
X62021348Y-88985541D01*
X62130280Y-89019486D01*
X62241064Y-89046791D01*
X62353293Y-89067358D01*
X62466560Y-89081111D01*
X62580451Y-89088000D01*
X62580464Y-89088000D01*
X65469536Y-89088000D01*
X65469549Y-89088000D01*
X65583440Y-89081111D01*
X65696707Y-89067358D01*
X65802573Y-89047957D01*
X71667500Y-89047957D01*
X71667500Y-89162042D01*
X71674387Y-89275895D01*
X71688136Y-89389126D01*
X71708699Y-89501333D01*
X71708701Y-89501339D01*
X71735997Y-89612087D01*
X71769931Y-89720985D01*
X71810377Y-89827633D01*
X71857198Y-89931664D01*
X71910208Y-90032668D01*
X71910209Y-90032670D01*
X71969213Y-90130274D01*
X71969219Y-90130283D01*
X72034026Y-90224172D01*
X72055220Y-90251224D01*
X72055221Y-90251224D01*
X72748443Y-89558001D01*
X72774120Y-89602475D01*
X72820449Y-89668641D01*
X72872369Y-89730516D01*
X72929484Y-89787631D01*
X72991359Y-89839551D01*
X73057525Y-89885880D01*
X73101996Y-89911555D01*
X72408774Y-90604777D01*
X72408774Y-90604778D01*
X72435839Y-90625983D01*
X72529700Y-90690770D01*
X72529725Y-90690786D01*
X72627329Y-90749790D01*
X72627331Y-90749791D01*
X72728335Y-90802801D01*
X72832366Y-90849622D01*
X72939014Y-90890068D01*
X73047912Y-90924002D01*
X73158660Y-90951298D01*
X73158666Y-90951300D01*
X73270873Y-90971863D01*
X73384104Y-90985612D01*
X73497957Y-90992499D01*
X73497977Y-90992500D01*
X73612023Y-90992500D01*
X73612042Y-90992499D01*
X73725895Y-90985612D01*
X73839126Y-90971863D01*
X73951333Y-90951300D01*
X73951339Y-90951298D01*
X74062087Y-90924002D01*
X74170985Y-90890068D01*
X74277633Y-90849622D01*
X74381664Y-90802801D01*
X74482668Y-90749791D01*
X74482670Y-90749790D01*
X74580274Y-90690786D01*
X74580299Y-90690770D01*
X74674153Y-90625987D01*
X74674165Y-90625978D01*
X74701224Y-90604778D01*
X74701225Y-90604777D01*
X74008003Y-89911555D01*
X74052475Y-89885880D01*
X74118641Y-89839551D01*
X74180516Y-89787631D01*
X74237631Y-89730516D01*
X74289551Y-89668641D01*
X74335880Y-89602475D01*
X74361555Y-89558003D01*
X75054777Y-90251225D01*
X75054778Y-90251224D01*
X75075978Y-90224165D01*
X75075987Y-90224153D01*
X75140770Y-90130299D01*
X75140786Y-90130274D01*
X75199790Y-90032670D01*
X75199791Y-90032668D01*
X75252801Y-89931664D01*
X75299622Y-89827633D01*
X75340068Y-89720985D01*
X75374002Y-89612087D01*
X75401298Y-89501339D01*
X75401300Y-89501333D01*
X75421863Y-89389126D01*
X75435612Y-89275895D01*
X75442499Y-89162042D01*
X75442500Y-89162022D01*
X75442500Y-89047977D01*
X75442499Y-89047957D01*
X75435612Y-88934104D01*
X75421863Y-88820873D01*
X75401300Y-88708666D01*
X75401298Y-88708660D01*
X75374002Y-88597912D01*
X75340068Y-88489014D01*
X75299622Y-88382366D01*
X75252801Y-88278335D01*
X75199791Y-88177331D01*
X75199790Y-88177329D01*
X75140786Y-88079725D01*
X75140770Y-88079700D01*
X75075983Y-87985839D01*
X75054778Y-87958774D01*
X75054777Y-87958774D01*
X74361555Y-88651996D01*
X74335880Y-88607525D01*
X74289551Y-88541359D01*
X74237631Y-88479484D01*
X74180516Y-88422369D01*
X74118641Y-88370449D01*
X74052475Y-88324120D01*
X74008001Y-88298443D01*
X74701224Y-87605221D01*
X74701224Y-87605220D01*
X74674172Y-87584026D01*
X74580283Y-87519219D01*
X74580274Y-87519213D01*
X74482670Y-87460209D01*
X74482668Y-87460208D01*
X74381664Y-87407198D01*
X74277633Y-87360377D01*
X74170985Y-87319931D01*
X74062087Y-87285997D01*
X73951339Y-87258701D01*
X73951333Y-87258699D01*
X73839126Y-87238136D01*
X73725895Y-87224387D01*
X73612042Y-87217500D01*
X73497957Y-87217500D01*
X73384104Y-87224387D01*
X73270873Y-87238136D01*
X73158666Y-87258699D01*
X73158660Y-87258701D01*
X73047912Y-87285997D01*
X72939014Y-87319931D01*
X72832366Y-87360377D01*
X72728335Y-87407198D01*
X72627331Y-87460208D01*
X72627329Y-87460209D01*
X72529725Y-87519213D01*
X72529716Y-87519219D01*
X72435837Y-87584019D01*
X72408773Y-87605221D01*
X73101996Y-88298444D01*
X73057525Y-88324120D01*
X72991359Y-88370449D01*
X72929484Y-88422369D01*
X72872369Y-88479484D01*
X72820449Y-88541359D01*
X72774120Y-88607525D01*
X72748444Y-88651996D01*
X72055221Y-87958773D01*
X72034019Y-87985837D01*
X71969219Y-88079716D01*
X71969213Y-88079725D01*
X71910209Y-88177329D01*
X71910208Y-88177331D01*
X71857198Y-88278335D01*
X71810377Y-88382366D01*
X71769931Y-88489014D01*
X71735997Y-88597912D01*
X71708701Y-88708660D01*
X71708699Y-88708666D01*
X71688136Y-88820873D01*
X71674387Y-88934104D01*
X71667500Y-89047957D01*
X65802573Y-89047957D01*
X65808936Y-89046791D01*
X65919720Y-89019486D01*
X66028652Y-88985541D01*
X66135336Y-88945081D01*
X66239383Y-88898253D01*
X66340412Y-88845229D01*
X66438056Y-88786201D01*
X66531957Y-88721386D01*
X66621774Y-88651019D01*
X66707178Y-88575358D01*
X66787858Y-88494678D01*
X66863519Y-88409274D01*
X66933886Y-88319457D01*
X66998701Y-88225556D01*
X67057729Y-88127912D01*
X67110753Y-88026883D01*
X67157581Y-87922836D01*
X67198041Y-87816152D01*
X67231986Y-87707220D01*
X67259291Y-87596436D01*
X67279858Y-87484207D01*
X67293611Y-87370940D01*
X67300500Y-87257049D01*
X67300500Y-87142951D01*
X67293611Y-87029060D01*
X67279858Y-86915793D01*
X67259291Y-86803564D01*
X67231986Y-86692780D01*
X67198041Y-86583848D01*
X67157581Y-86477164D01*
X67110753Y-86373117D01*
X67057729Y-86272088D01*
X66998701Y-86174444D01*
X66933886Y-86080543D01*
X66863519Y-85990726D01*
X66863517Y-85990723D01*
X66826437Y-85948869D01*
X66787858Y-85905322D01*
X66787852Y-85905316D01*
X66787833Y-85905296D01*
X66707203Y-85824666D01*
X66707183Y-85824647D01*
X66707178Y-85824642D01*
X66670888Y-85792492D01*
X66621776Y-85748982D01*
X66531962Y-85678618D01*
X66531957Y-85678614D01*
X66438056Y-85613799D01*
X66438045Y-85613792D01*
X66340421Y-85554776D01*
X66340415Y-85554773D01*
X66340412Y-85554771D01*
X66239383Y-85501747D01*
X66239381Y-85501746D01*
X66239377Y-85501744D01*
X66135325Y-85454914D01*
X66028648Y-85414457D01*
X65919722Y-85380514D01*
X65808944Y-85353211D01*
X65808938Y-85353209D01*
X65759528Y-85344154D01*
X65696707Y-85332642D01*
X65696699Y-85332641D01*
X65583441Y-85318889D01*
X65469557Y-85312000D01*
X65469549Y-85312000D01*
X62580451Y-85312000D01*
X62580442Y-85312000D01*
X62466558Y-85318889D01*
X62353300Y-85332641D01*
X62353297Y-85332641D01*
X62353293Y-85332642D01*
X62315174Y-85339627D01*
X62241061Y-85353209D01*
X62241055Y-85353211D01*
X62130277Y-85380514D01*
X62021351Y-85414457D01*
X61914674Y-85454914D01*
X61810622Y-85501744D01*
X61709578Y-85554776D01*
X61611954Y-85613792D01*
X61611943Y-85613799D01*
X61518037Y-85678618D01*
X61428223Y-85748982D01*
X61342816Y-85824647D01*
X61342796Y-85824666D01*
X61262166Y-85905296D01*
X61262147Y-85905316D01*
X61186482Y-85990723D01*
X61116118Y-86080537D01*
X61051299Y-86174443D01*
X61051292Y-86174454D01*
X60992276Y-86272078D01*
X60939244Y-86373122D01*
X60892414Y-86477174D01*
X60851957Y-86583851D01*
X60818014Y-86692777D01*
X60790711Y-86803555D01*
X60790709Y-86803561D01*
X60770141Y-86915800D01*
X60756389Y-87029058D01*
X60749500Y-87142942D01*
X51800500Y-87142942D01*
X51800500Y-82442942D01*
X60749500Y-82442942D01*
X60749500Y-82557057D01*
X60756389Y-82670941D01*
X60770141Y-82784199D01*
X60790709Y-82896438D01*
X60790711Y-82896444D01*
X60818014Y-83007222D01*
X60851957Y-83116148D01*
X60892414Y-83222825D01*
X60892419Y-83222836D01*
X60939247Y-83326883D01*
X60992271Y-83427912D01*
X61051299Y-83525556D01*
X61116114Y-83619457D01*
X61116118Y-83619462D01*
X61186482Y-83709276D01*
X61229992Y-83758388D01*
X61262142Y-83794678D01*
X61262147Y-83794683D01*
X61262166Y-83794703D01*
X61342796Y-83875333D01*
X61342816Y-83875352D01*
X61342822Y-83875358D01*
X61386369Y-83913937D01*
X61428223Y-83951017D01*
X61428226Y-83951019D01*
X61518043Y-84021386D01*
X61611944Y-84086201D01*
X61709588Y-84145229D01*
X61810617Y-84198253D01*
X61914664Y-84245081D01*
X61914671Y-84245083D01*
X61914674Y-84245085D01*
X61978786Y-84269399D01*
X62021348Y-84285541D01*
X62130280Y-84319486D01*
X62241064Y-84346791D01*
X62353293Y-84367358D01*
X62466560Y-84381111D01*
X62580451Y-84388000D01*
X62580464Y-84388000D01*
X65469536Y-84388000D01*
X65469549Y-84388000D01*
X65583440Y-84381111D01*
X65696707Y-84367358D01*
X65808936Y-84346791D01*
X65919720Y-84319486D01*
X66028652Y-84285541D01*
X66135336Y-84245081D01*
X66239383Y-84198253D01*
X66340412Y-84145229D01*
X66438056Y-84086201D01*
X66531957Y-84021386D01*
X66621774Y-83951019D01*
X66707178Y-83875358D01*
X66787858Y-83794678D01*
X66863519Y-83709274D01*
X66933886Y-83619457D01*
X66998701Y-83525556D01*
X67057729Y-83427912D01*
X67110753Y-83326883D01*
X67157581Y-83222836D01*
X67198041Y-83116152D01*
X67231986Y-83007220D01*
X67259291Y-82896436D01*
X67279858Y-82784207D01*
X67293611Y-82670940D01*
X67300500Y-82557049D01*
X67300500Y-82442951D01*
X67293611Y-82329060D01*
X67279858Y-82215793D01*
X67259291Y-82103564D01*
X67231986Y-81992780D01*
X67198041Y-81883848D01*
X67157581Y-81777164D01*
X67110753Y-81673117D01*
X67057729Y-81572088D01*
X66998701Y-81474444D01*
X66933886Y-81380543D01*
X66863519Y-81290726D01*
X66863517Y-81290723D01*
X66826437Y-81248869D01*
X66787858Y-81205322D01*
X66787852Y-81205316D01*
X66787833Y-81205296D01*
X66707203Y-81124666D01*
X66707183Y-81124647D01*
X66707178Y-81124642D01*
X66670888Y-81092492D01*
X66621776Y-81048982D01*
X66531962Y-80978618D01*
X66531957Y-80978614D01*
X66438056Y-80913799D01*
X66438045Y-80913792D01*
X66340421Y-80854776D01*
X66340415Y-80854773D01*
X66340412Y-80854771D01*
X66239383Y-80801747D01*
X66239381Y-80801746D01*
X66239377Y-80801744D01*
X66135325Y-80754914D01*
X66028648Y-80714457D01*
X65919722Y-80680514D01*
X65808944Y-80653211D01*
X65808938Y-80653209D01*
X65759528Y-80644154D01*
X65696707Y-80632642D01*
X65696699Y-80632641D01*
X65583441Y-80618889D01*
X65469557Y-80612000D01*
X65469549Y-80612000D01*
X62580451Y-80612000D01*
X62580442Y-80612000D01*
X62466558Y-80618889D01*
X62353300Y-80632641D01*
X62353297Y-80632641D01*
X62353293Y-80632642D01*
X62315174Y-80639627D01*
X62241061Y-80653209D01*
X62241055Y-80653211D01*
X62130277Y-80680514D01*
X62021351Y-80714457D01*
X61914674Y-80754914D01*
X61810622Y-80801744D01*
X61709578Y-80854776D01*
X61611954Y-80913792D01*
X61611943Y-80913799D01*
X61518037Y-80978618D01*
X61428223Y-81048982D01*
X61342816Y-81124647D01*
X61342796Y-81124666D01*
X61262166Y-81205296D01*
X61262147Y-81205316D01*
X61186482Y-81290723D01*
X61116118Y-81380537D01*
X61051299Y-81474443D01*
X61051292Y-81474454D01*
X60992276Y-81572078D01*
X60939244Y-81673122D01*
X60892414Y-81777174D01*
X60851957Y-81883851D01*
X60818014Y-81992777D01*
X60790711Y-82103555D01*
X60790709Y-82103561D01*
X60770141Y-82215800D01*
X60756389Y-82329058D01*
X60749500Y-82442942D01*
X51800500Y-82442942D01*
X51800500Y-77742942D01*
X60749500Y-77742942D01*
X60749500Y-77857057D01*
X60756389Y-77970941D01*
X60770141Y-78084199D01*
X60790709Y-78196438D01*
X60790711Y-78196444D01*
X60818014Y-78307222D01*
X60851957Y-78416148D01*
X60892414Y-78522825D01*
X60892419Y-78522836D01*
X60939247Y-78626883D01*
X60992271Y-78727912D01*
X61051299Y-78825556D01*
X61116114Y-78919457D01*
X61116118Y-78919462D01*
X61186482Y-79009276D01*
X61229992Y-79058388D01*
X61262142Y-79094678D01*
X61262147Y-79094683D01*
X61262166Y-79094703D01*
X61342796Y-79175333D01*
X61342816Y-79175352D01*
X61342822Y-79175358D01*
X61386369Y-79213937D01*
X61428223Y-79251017D01*
X61428226Y-79251019D01*
X61518043Y-79321386D01*
X61611944Y-79386201D01*
X61709588Y-79445229D01*
X61810617Y-79498253D01*
X61914664Y-79545081D01*
X61914671Y-79545083D01*
X61914674Y-79545085D01*
X61978786Y-79569399D01*
X62021348Y-79585541D01*
X62130280Y-79619486D01*
X62241064Y-79646791D01*
X62353293Y-79667358D01*
X62466560Y-79681111D01*
X62580451Y-79688000D01*
X62580464Y-79688000D01*
X65469536Y-79688000D01*
X65469549Y-79688000D01*
X65583440Y-79681111D01*
X65696707Y-79667358D01*
X65808936Y-79646791D01*
X65919720Y-79619486D01*
X66028652Y-79585541D01*
X66135336Y-79545081D01*
X66239383Y-79498253D01*
X66340412Y-79445229D01*
X66438056Y-79386201D01*
X66531957Y-79321386D01*
X66621774Y-79251019D01*
X66707178Y-79175358D01*
X66787858Y-79094678D01*
X66863519Y-79009274D01*
X66933886Y-78919457D01*
X66998701Y-78825556D01*
X67057729Y-78727912D01*
X67110753Y-78626883D01*
X67157581Y-78522836D01*
X67198041Y-78416152D01*
X67231986Y-78307220D01*
X67259291Y-78196436D01*
X67279858Y-78084207D01*
X67293611Y-77970940D01*
X67300500Y-77857049D01*
X67300500Y-77742951D01*
X67293611Y-77629060D01*
X67279858Y-77515793D01*
X67259291Y-77403564D01*
X67255832Y-77389530D01*
X67252555Y-77376232D01*
X67231985Y-77292777D01*
X67198042Y-77183851D01*
X67157585Y-77077174D01*
X67157583Y-77077171D01*
X67157581Y-77077164D01*
X67110753Y-76973117D01*
X67057729Y-76872088D01*
X66998701Y-76774444D01*
X66933886Y-76680543D01*
X66863519Y-76590726D01*
X66863517Y-76590723D01*
X66826437Y-76548869D01*
X66787858Y-76505322D01*
X66787852Y-76505316D01*
X66787833Y-76505296D01*
X66707203Y-76424666D01*
X66707183Y-76424647D01*
X66707178Y-76424642D01*
X66670869Y-76392475D01*
X66621776Y-76348982D01*
X66531962Y-76278618D01*
X66531957Y-76278614D01*
X66438056Y-76213799D01*
X66438045Y-76213792D01*
X66340421Y-76154776D01*
X66340415Y-76154773D01*
X66340412Y-76154771D01*
X66239383Y-76101747D01*
X66239381Y-76101746D01*
X66239377Y-76101744D01*
X66135325Y-76054914D01*
X66028648Y-76014457D01*
X65919722Y-75980514D01*
X65822248Y-75956490D01*
X65808944Y-75953211D01*
X65808938Y-75953209D01*
X65759528Y-75944154D01*
X65696707Y-75932642D01*
X65696699Y-75932641D01*
X65583441Y-75918889D01*
X65469557Y-75912000D01*
X65469549Y-75912000D01*
X62580451Y-75912000D01*
X62580442Y-75912000D01*
X62466558Y-75918889D01*
X62353300Y-75932641D01*
X62353297Y-75932641D01*
X62353293Y-75932642D01*
X62315174Y-75939627D01*
X62241061Y-75953209D01*
X62241055Y-75953211D01*
X62130277Y-75980514D01*
X62021351Y-76014457D01*
X61914674Y-76054914D01*
X61810622Y-76101744D01*
X61709578Y-76154776D01*
X61611954Y-76213792D01*
X61611943Y-76213799D01*
X61518037Y-76278618D01*
X61428223Y-76348982D01*
X61342816Y-76424647D01*
X61342796Y-76424666D01*
X61262166Y-76505296D01*
X61262147Y-76505316D01*
X61186482Y-76590723D01*
X61116118Y-76680537D01*
X61051299Y-76774443D01*
X61051292Y-76774454D01*
X60992276Y-76872078D01*
X60939244Y-76973122D01*
X60892414Y-77077174D01*
X60851957Y-77183851D01*
X60818014Y-77292777D01*
X60790711Y-77403555D01*
X60790709Y-77403561D01*
X60770141Y-77515800D01*
X60756389Y-77629058D01*
X60749500Y-77742942D01*
X51800500Y-77742942D01*
X51800500Y-75837957D01*
X71667500Y-75837957D01*
X71667500Y-75952042D01*
X71674387Y-76065895D01*
X71688136Y-76179126D01*
X71708699Y-76291333D01*
X71708701Y-76291339D01*
X71735997Y-76402087D01*
X71769931Y-76510985D01*
X71810377Y-76617633D01*
X71857198Y-76721664D01*
X71910208Y-76822668D01*
X71910209Y-76822670D01*
X71969213Y-76920274D01*
X71969219Y-76920283D01*
X72034026Y-77014172D01*
X72055220Y-77041224D01*
X72055221Y-77041224D01*
X72748443Y-76348001D01*
X72774120Y-76392475D01*
X72820449Y-76458641D01*
X72872369Y-76520516D01*
X72929484Y-76577631D01*
X72991359Y-76629551D01*
X73057525Y-76675880D01*
X73101996Y-76701555D01*
X72408774Y-77394777D01*
X72408774Y-77394778D01*
X72435839Y-77415983D01*
X72529700Y-77480770D01*
X72529725Y-77480786D01*
X72627329Y-77539790D01*
X72627331Y-77539791D01*
X72728335Y-77592801D01*
X72832366Y-77639622D01*
X72939014Y-77680068D01*
X73047912Y-77714002D01*
X73158660Y-77741298D01*
X73158666Y-77741300D01*
X73270873Y-77761863D01*
X73384104Y-77775612D01*
X73497957Y-77782499D01*
X73497977Y-77782500D01*
X73612023Y-77782500D01*
X73612042Y-77782499D01*
X73725895Y-77775612D01*
X73839126Y-77761863D01*
X73951333Y-77741300D01*
X73951339Y-77741298D01*
X74062087Y-77714002D01*
X74170985Y-77680068D01*
X74277633Y-77639622D01*
X74381664Y-77592801D01*
X74482668Y-77539791D01*
X74482670Y-77539790D01*
X74580274Y-77480786D01*
X74580299Y-77480770D01*
X74674153Y-77415987D01*
X74674165Y-77415978D01*
X74701224Y-77394778D01*
X74701225Y-77394777D01*
X74008003Y-76701555D01*
X74052475Y-76675880D01*
X74118641Y-76629551D01*
X74180516Y-76577631D01*
X74237631Y-76520516D01*
X74289551Y-76458641D01*
X74335880Y-76392475D01*
X74361555Y-76348003D01*
X75054777Y-77041225D01*
X75054778Y-77041224D01*
X75075978Y-77014165D01*
X75075987Y-77014153D01*
X75140770Y-76920299D01*
X75140786Y-76920274D01*
X75199790Y-76822670D01*
X75199791Y-76822668D01*
X75252801Y-76721664D01*
X75299622Y-76617633D01*
X75340068Y-76510985D01*
X75374002Y-76402087D01*
X75401298Y-76291339D01*
X75401300Y-76291333D01*
X75421863Y-76179126D01*
X75435612Y-76065895D01*
X75442499Y-75952042D01*
X75442500Y-75952022D01*
X75442500Y-75837977D01*
X75442499Y-75837957D01*
X75435612Y-75724104D01*
X75421863Y-75610873D01*
X75401300Y-75498666D01*
X75401298Y-75498660D01*
X75374002Y-75387912D01*
X75340068Y-75279014D01*
X75299622Y-75172366D01*
X75252801Y-75068335D01*
X75199791Y-74967331D01*
X75199790Y-74967329D01*
X75140786Y-74869725D01*
X75140770Y-74869700D01*
X75075983Y-74775839D01*
X75054778Y-74748774D01*
X75054777Y-74748774D01*
X74361555Y-75441996D01*
X74335880Y-75397525D01*
X74289551Y-75331359D01*
X74237631Y-75269484D01*
X74180516Y-75212369D01*
X74118641Y-75160449D01*
X74052475Y-75114120D01*
X74008001Y-75088443D01*
X74701224Y-74395221D01*
X74701224Y-74395220D01*
X74674172Y-74374026D01*
X74580283Y-74309219D01*
X74580274Y-74309213D01*
X74482670Y-74250209D01*
X74482668Y-74250208D01*
X74381664Y-74197198D01*
X74277633Y-74150377D01*
X74170985Y-74109931D01*
X74062087Y-74075997D01*
X73951339Y-74048701D01*
X73951333Y-74048699D01*
X73839126Y-74028136D01*
X73725895Y-74014387D01*
X73612042Y-74007500D01*
X73497957Y-74007500D01*
X73384104Y-74014387D01*
X73270873Y-74028136D01*
X73158666Y-74048699D01*
X73158660Y-74048701D01*
X73047912Y-74075997D01*
X72939014Y-74109931D01*
X72832366Y-74150377D01*
X72728335Y-74197198D01*
X72627331Y-74250208D01*
X72627329Y-74250209D01*
X72529725Y-74309213D01*
X72529716Y-74309219D01*
X72435837Y-74374019D01*
X72408773Y-74395221D01*
X73101996Y-75088444D01*
X73057525Y-75114120D01*
X72991359Y-75160449D01*
X72929484Y-75212369D01*
X72872369Y-75269484D01*
X72820449Y-75331359D01*
X72774120Y-75397525D01*
X72748444Y-75441996D01*
X72055221Y-74748773D01*
X72034019Y-74775837D01*
X71969219Y-74869716D01*
X71969213Y-74869725D01*
X71910209Y-74967329D01*
X71910208Y-74967331D01*
X71857198Y-75068335D01*
X71810377Y-75172366D01*
X71769931Y-75279014D01*
X71735997Y-75387912D01*
X71708701Y-75498660D01*
X71708699Y-75498666D01*
X71688136Y-75610873D01*
X71674387Y-75724104D01*
X71667500Y-75837957D01*
X51800500Y-75837957D01*
X51800500Y-49253050D01*
X51800649Y-49246966D01*
X51801662Y-49226350D01*
X51803569Y-49187518D01*
X51804762Y-49175411D01*
X51809962Y-49140354D01*
X51813049Y-49119546D01*
X51815416Y-49107642D01*
X51829144Y-49052835D01*
X51832664Y-49041231D01*
X51851701Y-48988025D01*
X51856347Y-48976814D01*
X51880494Y-48925760D01*
X51886223Y-48915039D01*
X51915263Y-48866590D01*
X51922000Y-48856506D01*
X51955659Y-48811121D01*
X51963366Y-48801733D01*
X52001289Y-48759892D01*
X52009892Y-48751289D01*
X52051733Y-48713366D01*
X52061121Y-48705659D01*
X52106506Y-48672000D01*
X52116590Y-48665263D01*
X52165039Y-48636223D01*
X52175760Y-48630494D01*
X52226814Y-48606347D01*
X52238025Y-48601701D01*
X52291231Y-48582664D01*
X52302835Y-48579144D01*
X52357642Y-48565416D01*
X52369546Y-48563049D01*
X52418074Y-48555850D01*
X52425411Y-48554762D01*
X52437518Y-48553569D01*
X52496967Y-48550649D01*
X52503051Y-48550500D01*
X52523650Y-48550500D01*
X62669087Y-48550500D01*
X62699925Y-48554396D01*
G37*
%TD.AperFunction*%
%TD*%
%TA.AperFunction,Conductor*%
%TO.N,GND*%
G36*
X113662938Y-70004396D02*
G01*
X113691837Y-70015838D01*
X113716984Y-70034108D01*
X113736797Y-70058057D01*
X113750031Y-70086182D01*
X113755855Y-70116714D01*
X113753904Y-70147735D01*
X113744299Y-70177297D01*
X113727644Y-70203541D01*
X113704985Y-70224818D01*
X113683611Y-70237294D01*
X113662723Y-70246832D01*
X113662716Y-70246836D01*
X113574913Y-70294780D01*
X113574900Y-70294788D01*
X113490764Y-70348859D01*
X113410670Y-70408816D01*
X113335076Y-70474319D01*
X113335048Y-70474345D01*
X113328050Y-70481343D01*
X113303489Y-70500393D01*
X113274962Y-70512735D01*
X113244262Y-70517596D01*
X113213317Y-70514669D01*
X113184073Y-70504139D01*
X113158366Y-70486666D01*
X113137812Y-70463349D01*
X113123702Y-70435654D01*
X113122506Y-70431972D01*
X113121845Y-70430138D01*
X113121842Y-70430126D01*
X113096831Y-70372328D01*
X113064773Y-70318121D01*
X113026173Y-70268359D01*
X113026170Y-70268356D01*
X113026167Y-70268352D01*
X112981647Y-70223832D01*
X112981641Y-70223827D01*
X112979902Y-70222478D01*
X112957926Y-70200503D01*
X112942103Y-70173750D01*
X112933430Y-70143901D01*
X112932453Y-70112834D01*
X112939233Y-70082500D01*
X112953343Y-70054805D01*
X112973898Y-70031489D01*
X112999605Y-70014017D01*
X113028850Y-70003487D01*
X113055903Y-70000500D01*
X113632100Y-70000500D01*
X113662938Y-70004396D01*
G37*
%TD.AperFunction*%
%TA.AperFunction,Conductor*%
G36*
X121168608Y-69504396D02*
G01*
X121197507Y-69515838D01*
X121222654Y-69534108D01*
X121225451Y-69536819D01*
X121679788Y-69991156D01*
X121698839Y-70015716D01*
X121711183Y-70044242D01*
X121716046Y-70074942D01*
X121713121Y-70105887D01*
X121702592Y-70135132D01*
X121685121Y-70160840D01*
X121661805Y-70181395D01*
X121634111Y-70195506D01*
X121603776Y-70202287D01*
X121572709Y-70201310D01*
X121548774Y-70195019D01*
X121507437Y-70179601D01*
X121482559Y-70170322D01*
X121386574Y-70142138D01*
X121386564Y-70142135D01*
X121288828Y-70120873D01*
X121189803Y-70106637D01*
X121090019Y-70099500D01*
X120989981Y-70099500D01*
X120890197Y-70106637D01*
X120890194Y-70106637D01*
X120791171Y-70120873D01*
X120693435Y-70142135D01*
X120597440Y-70170322D01*
X120578740Y-70177297D01*
X120503710Y-70205282D01*
X120503708Y-70205283D01*
X120412708Y-70246840D01*
X120324913Y-70294780D01*
X120324900Y-70294788D01*
X120240764Y-70348859D01*
X120160670Y-70408816D01*
X120085076Y-70474319D01*
X120085048Y-70474345D01*
X120078050Y-70481343D01*
X120053489Y-70500393D01*
X120024962Y-70512735D01*
X119994262Y-70517596D01*
X119963317Y-70514669D01*
X119934073Y-70504139D01*
X119908366Y-70486666D01*
X119887812Y-70463349D01*
X119873702Y-70435654D01*
X119872506Y-70431972D01*
X119871845Y-70430138D01*
X119871842Y-70430126D01*
X119846831Y-70372328D01*
X119814773Y-70318121D01*
X119776173Y-70268359D01*
X119776170Y-70268356D01*
X119776167Y-70268352D01*
X119731647Y-70223832D01*
X119731641Y-70223827D01*
X119729902Y-70222478D01*
X119707926Y-70200503D01*
X119692103Y-70173750D01*
X119683430Y-70143901D01*
X119682453Y-70112834D01*
X119689233Y-70082500D01*
X119703343Y-70054805D01*
X119723898Y-70031489D01*
X119749605Y-70014017D01*
X119778850Y-70003487D01*
X119805903Y-70000500D01*
X120000947Y-70000500D01*
X120054388Y-69998430D01*
X120054391Y-69998429D01*
X120054407Y-69998429D01*
X120144547Y-69987406D01*
X120144552Y-69987405D01*
X120144553Y-69987405D01*
X120233347Y-69968463D01*
X120233350Y-69968461D01*
X120233360Y-69968460D01*
X120320151Y-69941739D01*
X120404241Y-69907451D01*
X120484971Y-69865866D01*
X120561710Y-69817308D01*
X120633858Y-69762159D01*
X120700849Y-69700849D01*
X120762159Y-69633858D01*
X120817308Y-69561710D01*
X120819532Y-69558193D01*
X120824546Y-69552117D01*
X120828772Y-69545459D01*
X120834402Y-69540172D01*
X120839314Y-69534219D01*
X120845684Y-69529577D01*
X120851431Y-69524182D01*
X120858196Y-69520462D01*
X120864436Y-69515917D01*
X120871761Y-69513005D01*
X120878669Y-69509208D01*
X120886143Y-69507288D01*
X120893321Y-69504436D01*
X120901144Y-69503437D01*
X120908775Y-69501478D01*
X120923994Y-69500520D01*
X120924153Y-69500500D01*
X121137770Y-69500500D01*
X121168608Y-69504396D01*
G37*
%TD.AperFunction*%
%TA.AperFunction,Conductor*%
G36*
X116433861Y-64301496D02*
G01*
X116796264Y-64309190D01*
X116798848Y-64309273D01*
X117161053Y-64324659D01*
X117163503Y-64324789D01*
X117525372Y-64347864D01*
X117527987Y-64348059D01*
X117889133Y-64378797D01*
X117891707Y-64379043D01*
X118252182Y-64417447D01*
X118254673Y-64417739D01*
X118614349Y-64463797D01*
X118616816Y-64464140D01*
X118975458Y-64517825D01*
X118977894Y-64518217D01*
X119335241Y-64579491D01*
X119337681Y-64579935D01*
X119693700Y-64648790D01*
X119696146Y-64649290D01*
X120050592Y-64725679D01*
X120053057Y-64726238D01*
X120405793Y-64810131D01*
X120408186Y-64810727D01*
X120759081Y-64902093D01*
X120761504Y-64902751D01*
X121110367Y-65001540D01*
X121112780Y-65002251D01*
X121425836Y-65098123D01*
X121459435Y-65108413D01*
X121461943Y-65109211D01*
X121806127Y-65222661D01*
X121808618Y-65223511D01*
X122150372Y-65344260D01*
X122152833Y-65345158D01*
X122492046Y-65473172D01*
X122494415Y-65474095D01*
X122637361Y-65531536D01*
X122830727Y-65609237D01*
X122833159Y-65610244D01*
X123166633Y-65752538D01*
X123168892Y-65753531D01*
X123499230Y-65902853D01*
X123501596Y-65903953D01*
X123828672Y-66060244D01*
X123830998Y-66061386D01*
X124154704Y-66224594D01*
X124156959Y-66225761D01*
X124477134Y-66395808D01*
X124479399Y-66397042D01*
X124662012Y-66499056D01*
X124795853Y-66573824D01*
X124798137Y-66575132D01*
X125110729Y-66758569D01*
X125112985Y-66759925D01*
X125421634Y-66949967D01*
X125423861Y-66951371D01*
X125728414Y-67147927D01*
X125730610Y-67149378D01*
X126030931Y-67352360D01*
X126033019Y-67353803D01*
X126284807Y-67531883D01*
X126328976Y-67563122D01*
X126331108Y-67564664D01*
X126622526Y-67780195D01*
X126624626Y-67781783D01*
X126911465Y-68003499D01*
X126913376Y-68005009D01*
X127195462Y-68232778D01*
X127197472Y-68234436D01*
X127474662Y-68468142D01*
X127476551Y-68469770D01*
X127552734Y-68536819D01*
X127748661Y-68709258D01*
X127750618Y-68711017D01*
X128017586Y-68956227D01*
X128019505Y-68958028D01*
X128281183Y-69208825D01*
X128283064Y-69210667D01*
X128539332Y-69466935D01*
X128541174Y-69468816D01*
X128791971Y-69730494D01*
X128793772Y-69732413D01*
X129038982Y-69999381D01*
X129040741Y-70001338D01*
X129164053Y-70141446D01*
X129275744Y-70268352D01*
X129280207Y-70273422D01*
X129281864Y-70275345D01*
X129509272Y-70545066D01*
X129515547Y-70552508D01*
X129517221Y-70554537D01*
X129744980Y-70836611D01*
X129746509Y-70838547D01*
X129900139Y-71037300D01*
X129968216Y-71125373D01*
X129969804Y-71127473D01*
X130185335Y-71418891D01*
X130186877Y-71421023D01*
X130348685Y-71649805D01*
X130396169Y-71716942D01*
X130397666Y-71719107D01*
X130600621Y-72019389D01*
X130602072Y-72021585D01*
X130798628Y-72326138D01*
X130800032Y-72328365D01*
X130990074Y-72637014D01*
X130991430Y-72639270D01*
X131174867Y-72951862D01*
X131176175Y-72954146D01*
X131352944Y-73270577D01*
X131354203Y-73272888D01*
X131524216Y-73592999D01*
X131525426Y-73595337D01*
X131688595Y-73918964D01*
X131689755Y-73921327D01*
X131846046Y-74248403D01*
X131847155Y-74250789D01*
X131996434Y-74581031D01*
X131997493Y-74583441D01*
X132139755Y-74916840D01*
X132140762Y-74919272D01*
X132275887Y-75255542D01*
X132276843Y-75257994D01*
X132404836Y-75597154D01*
X132405739Y-75599627D01*
X132526488Y-75941381D01*
X132527338Y-75943872D01*
X132640788Y-76288056D01*
X132641586Y-76290564D01*
X132747731Y-76637163D01*
X132748475Y-76639688D01*
X132847232Y-76988437D01*
X132847922Y-76990977D01*
X132938094Y-77337288D01*
X132939252Y-77341733D01*
X132939884Y-77344274D01*
X133023657Y-77696504D01*
X133023747Y-77696879D01*
X133024325Y-77699432D01*
X133062700Y-77877491D01*
X133100695Y-78053787D01*
X133101222Y-78056365D01*
X133170050Y-78412245D01*
X133170522Y-78414835D01*
X133231768Y-78772022D01*
X133232186Y-78774621D01*
X133285849Y-79133113D01*
X133286211Y-79135720D01*
X133332253Y-79495266D01*
X133332559Y-79497880D01*
X133370953Y-79858269D01*
X133371204Y-79860889D01*
X133401939Y-80222007D01*
X133402135Y-80224632D01*
X133425205Y-80586409D01*
X133425344Y-80589037D01*
X133440725Y-80951127D01*
X133440809Y-80953758D01*
X133448503Y-81316138D01*
X133448531Y-81318770D01*
X133448531Y-81681229D01*
X133448503Y-81683861D01*
X133440809Y-82046241D01*
X133440725Y-82048872D01*
X133425344Y-82410962D01*
X133425205Y-82413590D01*
X133402135Y-82775367D01*
X133401939Y-82777992D01*
X133371204Y-83139110D01*
X133370953Y-83141730D01*
X133332559Y-83502119D01*
X133332253Y-83504733D01*
X133286211Y-83864279D01*
X133285849Y-83866886D01*
X133232186Y-84225378D01*
X133231768Y-84227977D01*
X133170522Y-84585164D01*
X133170050Y-84587754D01*
X133101222Y-84943634D01*
X133100695Y-84946212D01*
X133024331Y-85300542D01*
X133023749Y-85303109D01*
X132939888Y-85655712D01*
X132939252Y-85658266D01*
X132847922Y-86009022D01*
X132847232Y-86011562D01*
X132748475Y-86360311D01*
X132747731Y-86362836D01*
X132641586Y-86709435D01*
X132640788Y-86711943D01*
X132527338Y-87056127D01*
X132526488Y-87058618D01*
X132405739Y-87400372D01*
X132404836Y-87402845D01*
X132276843Y-87742005D01*
X132275887Y-87744457D01*
X132140762Y-88080727D01*
X132139755Y-88083159D01*
X131997493Y-88416558D01*
X131996434Y-88418968D01*
X131847155Y-88749210D01*
X131846046Y-88751596D01*
X131689755Y-89078672D01*
X131688595Y-89081035D01*
X131525426Y-89404662D01*
X131524216Y-89407000D01*
X131354203Y-89727111D01*
X131352944Y-89729422D01*
X131176175Y-90045853D01*
X131174867Y-90048137D01*
X130991430Y-90360729D01*
X130990074Y-90362985D01*
X130800032Y-90671634D01*
X130798628Y-90673861D01*
X130602072Y-90978414D01*
X130600621Y-90980610D01*
X130397666Y-91280892D01*
X130396169Y-91283057D01*
X130186877Y-91578976D01*
X130185335Y-91581108D01*
X129969804Y-91872526D01*
X129968216Y-91874626D01*
X129746543Y-92161410D01*
X129744944Y-92163433D01*
X129685811Y-92236669D01*
X129517221Y-92445462D01*
X129515547Y-92447491D01*
X129412359Y-92569879D01*
X129317930Y-92681879D01*
X129281926Y-92724582D01*
X129280207Y-92726577D01*
X129040741Y-92998661D01*
X129038982Y-93000618D01*
X128793772Y-93267586D01*
X128791971Y-93269505D01*
X128541174Y-93531183D01*
X128539332Y-93533064D01*
X128283064Y-93789332D01*
X128281183Y-93791174D01*
X128019505Y-94041971D01*
X128017586Y-94043772D01*
X127750618Y-94288982D01*
X127748661Y-94290741D01*
X127476577Y-94530207D01*
X127474608Y-94531903D01*
X127357379Y-94630741D01*
X127197491Y-94765547D01*
X127195462Y-94767221D01*
X127047198Y-94886936D01*
X126913433Y-94994944D01*
X126911410Y-94996543D01*
X126624626Y-95218216D01*
X126622526Y-95219804D01*
X126331108Y-95435335D01*
X126328976Y-95436877D01*
X126033057Y-95646169D01*
X126030892Y-95647666D01*
X125730610Y-95850621D01*
X125728414Y-95852072D01*
X125423861Y-96048628D01*
X125421634Y-96050032D01*
X125112985Y-96240074D01*
X125110729Y-96241430D01*
X124798137Y-96424867D01*
X124795853Y-96426175D01*
X124479422Y-96602944D01*
X124477111Y-96604203D01*
X124157000Y-96774216D01*
X124154662Y-96775426D01*
X123831035Y-96938595D01*
X123828672Y-96939755D01*
X123501596Y-97096046D01*
X123499210Y-97097155D01*
X123168968Y-97246434D01*
X123166558Y-97247493D01*
X122833159Y-97389755D01*
X122830727Y-97390762D01*
X122494457Y-97525887D01*
X122492005Y-97526843D01*
X122152845Y-97654836D01*
X122150372Y-97655739D01*
X121808618Y-97776488D01*
X121806127Y-97777338D01*
X121461943Y-97890788D01*
X121459435Y-97891586D01*
X121112836Y-97997731D01*
X121110311Y-97998475D01*
X120761562Y-98097232D01*
X120759022Y-98097922D01*
X120408266Y-98189252D01*
X120405712Y-98189888D01*
X120053109Y-98273749D01*
X120050542Y-98274331D01*
X119696212Y-98350695D01*
X119693634Y-98351222D01*
X119337754Y-98420050D01*
X119335164Y-98420522D01*
X118977977Y-98481768D01*
X118975378Y-98482186D01*
X118616886Y-98535849D01*
X118614279Y-98536211D01*
X118254733Y-98582253D01*
X118252119Y-98582559D01*
X117891730Y-98620953D01*
X117889110Y-98621204D01*
X117527992Y-98651939D01*
X117525367Y-98652135D01*
X117163590Y-98675205D01*
X117160962Y-98675344D01*
X116798872Y-98690725D01*
X116796241Y-98690809D01*
X116433862Y-98698503D01*
X116431230Y-98698531D01*
X116068770Y-98698531D01*
X116066138Y-98698503D01*
X115703758Y-98690809D01*
X115701127Y-98690725D01*
X115339037Y-98675344D01*
X115336409Y-98675205D01*
X114974632Y-98652135D01*
X114972007Y-98651939D01*
X114610889Y-98621204D01*
X114608269Y-98620953D01*
X114247880Y-98582559D01*
X114245266Y-98582253D01*
X113885720Y-98536211D01*
X113883113Y-98535849D01*
X113524621Y-98482186D01*
X113522022Y-98481768D01*
X113164835Y-98420522D01*
X113162245Y-98420050D01*
X112806365Y-98351222D01*
X112803787Y-98350695D01*
X112449457Y-98274331D01*
X112446890Y-98273749D01*
X112224046Y-98220749D01*
X112094274Y-98189884D01*
X112091747Y-98189255D01*
X111740977Y-98097922D01*
X111738437Y-98097232D01*
X111389688Y-97998475D01*
X111387163Y-97997731D01*
X111040564Y-97891586D01*
X111038056Y-97890788D01*
X110693872Y-97777338D01*
X110691381Y-97776488D01*
X110349627Y-97655739D01*
X110347154Y-97654836D01*
X110007994Y-97526843D01*
X110005542Y-97525887D01*
X109669272Y-97390762D01*
X109666840Y-97389755D01*
X109455300Y-97299490D01*
X109333411Y-97247479D01*
X109331063Y-97246448D01*
X109078381Y-97132229D01*
X109000789Y-97097155D01*
X108998403Y-97096046D01*
X108671327Y-96939755D01*
X108668964Y-96938595D01*
X108345337Y-96775426D01*
X108342999Y-96774216D01*
X108310024Y-96756703D01*
X108022888Y-96604203D01*
X108020577Y-96602944D01*
X107704146Y-96426175D01*
X107701862Y-96424867D01*
X107389270Y-96241430D01*
X107387014Y-96240074D01*
X107078365Y-96050032D01*
X107076138Y-96048628D01*
X106771585Y-95852072D01*
X106769389Y-95850621D01*
X106469107Y-95647666D01*
X106466942Y-95646169D01*
X106171023Y-95436877D01*
X106168891Y-95435335D01*
X105877473Y-95219804D01*
X105875373Y-95218216D01*
X105800393Y-95160259D01*
X105588547Y-94996509D01*
X105586611Y-94994980D01*
X105304537Y-94767221D01*
X105302508Y-94765547D01*
X105269266Y-94737520D01*
X105025345Y-94531864D01*
X105023422Y-94530207D01*
X104751338Y-94290741D01*
X104749381Y-94288982D01*
X104482413Y-94043772D01*
X104480494Y-94041971D01*
X104218816Y-93791174D01*
X104216935Y-93789332D01*
X103960667Y-93533064D01*
X103958825Y-93531183D01*
X103708028Y-93269505D01*
X103706227Y-93267586D01*
X103461017Y-93000618D01*
X103459258Y-92998661D01*
X103279764Y-92794718D01*
X103219770Y-92726551D01*
X103218142Y-92724662D01*
X102984436Y-92447472D01*
X102982778Y-92445462D01*
X102963022Y-92420995D01*
X102755009Y-92163376D01*
X102753499Y-92161465D01*
X102531783Y-91874626D01*
X102530195Y-91872526D01*
X102314664Y-91581108D01*
X102313122Y-91578976D01*
X102292641Y-91550018D01*
X102221889Y-91449981D01*
X110059500Y-91449981D01*
X110059500Y-91550018D01*
X110066637Y-91649802D01*
X110066637Y-91649805D01*
X110080873Y-91748828D01*
X110102135Y-91846564D01*
X110102138Y-91846574D01*
X110130322Y-91942559D01*
X110165282Y-92036290D01*
X110190003Y-92090423D01*
X110206840Y-92127291D01*
X110254780Y-92215086D01*
X110254788Y-92215099D01*
X110308859Y-92299235D01*
X110308865Y-92299243D01*
X110308867Y-92299246D01*
X110368817Y-92379331D01*
X110434328Y-92454934D01*
X110505066Y-92525672D01*
X110580669Y-92591183D01*
X110660754Y-92651133D01*
X110660758Y-92651135D01*
X110660764Y-92651140D01*
X110708592Y-92681877D01*
X110744911Y-92705218D01*
X110832712Y-92753161D01*
X110923710Y-92794718D01*
X111017441Y-92829678D01*
X111113426Y-92857862D01*
X111113434Y-92857863D01*
X111113435Y-92857864D01*
X111211171Y-92879126D01*
X111211178Y-92879127D01*
X111310198Y-92893363D01*
X111409981Y-92900500D01*
X111510018Y-92900500D01*
X111510019Y-92900500D01*
X111609802Y-92893363D01*
X111708822Y-92879127D01*
X111708823Y-92879126D01*
X111708828Y-92879126D01*
X111770896Y-92865623D01*
X111806574Y-92857862D01*
X111902559Y-92829678D01*
X111996290Y-92794718D01*
X112087288Y-92753161D01*
X112175089Y-92705218D01*
X112259246Y-92651133D01*
X112339331Y-92591183D01*
X112414934Y-92525672D01*
X112421943Y-92518662D01*
X112446498Y-92499614D01*
X112475023Y-92487268D01*
X112505723Y-92482403D01*
X112536668Y-92485327D01*
X112565913Y-92495854D01*
X112591622Y-92513323D01*
X112612179Y-92536638D01*
X112626292Y-92564332D01*
X112627491Y-92568020D01*
X112628160Y-92569879D01*
X112653168Y-92627671D01*
X112653169Y-92627672D01*
X112685227Y-92681879D01*
X112718351Y-92724582D01*
X112723832Y-92731647D01*
X112768352Y-92776167D01*
X112768356Y-92776170D01*
X112768359Y-92776173D01*
X112818121Y-92814773D01*
X112872328Y-92846831D01*
X112930126Y-92871842D01*
X112961219Y-92880875D01*
X112990601Y-92889412D01*
X112990605Y-92889413D01*
X113052805Y-92899264D01*
X113054528Y-92899345D01*
X113079011Y-92900500D01*
X114920988Y-92900499D01*
X114947194Y-92899264D01*
X114947207Y-92899262D01*
X115009394Y-92889413D01*
X115009398Y-92889412D01*
X115024088Y-92885143D01*
X115069874Y-92871842D01*
X115127672Y-92846831D01*
X115181879Y-92814773D01*
X115231641Y-92776173D01*
X115276173Y-92731641D01*
X115314773Y-92681879D01*
X115346831Y-92627672D01*
X115369514Y-92575252D01*
X115385335Y-92548501D01*
X115407313Y-92526522D01*
X115434067Y-92510699D01*
X115463916Y-92502027D01*
X115483315Y-92500500D01*
X117209766Y-92500500D01*
X117240604Y-92504396D01*
X117269503Y-92515838D01*
X117290968Y-92530786D01*
X117360669Y-92591183D01*
X117440754Y-92651133D01*
X117440758Y-92651135D01*
X117440764Y-92651140D01*
X117488592Y-92681877D01*
X117524911Y-92705218D01*
X117612712Y-92753161D01*
X117703710Y-92794718D01*
X117797441Y-92829678D01*
X117893426Y-92857862D01*
X117893434Y-92857863D01*
X117893435Y-92857864D01*
X117991171Y-92879126D01*
X117991178Y-92879127D01*
X118090198Y-92893363D01*
X118189981Y-92900500D01*
X118290018Y-92900500D01*
X118290019Y-92900500D01*
X118389802Y-92893363D01*
X118488822Y-92879127D01*
X118488823Y-92879126D01*
X118488828Y-92879126D01*
X118550896Y-92865623D01*
X118586574Y-92857862D01*
X118682559Y-92829678D01*
X118776290Y-92794718D01*
X118867288Y-92753161D01*
X118955089Y-92705218D01*
X119039246Y-92651133D01*
X119119331Y-92591183D01*
X119194934Y-92525672D01*
X119201943Y-92518662D01*
X119226498Y-92499614D01*
X119255023Y-92487268D01*
X119285723Y-92482403D01*
X119316668Y-92485327D01*
X119345913Y-92495854D01*
X119371622Y-92513323D01*
X119392179Y-92536638D01*
X119406292Y-92564332D01*
X119407491Y-92568020D01*
X119408160Y-92569879D01*
X119433168Y-92627671D01*
X119433169Y-92627672D01*
X119465227Y-92681879D01*
X119498351Y-92724582D01*
X119503832Y-92731647D01*
X119548352Y-92776167D01*
X119548356Y-92776170D01*
X119548359Y-92776173D01*
X119598121Y-92814773D01*
X119652328Y-92846831D01*
X119710126Y-92871842D01*
X119741219Y-92880875D01*
X119770601Y-92889412D01*
X119770605Y-92889413D01*
X119832805Y-92899264D01*
X119834528Y-92899345D01*
X119859011Y-92900500D01*
X121700988Y-92900499D01*
X121727194Y-92899264D01*
X121727207Y-92899262D01*
X121789394Y-92889413D01*
X121789398Y-92889412D01*
X121804088Y-92885143D01*
X121849874Y-92871842D01*
X121907672Y-92846831D01*
X121961879Y-92814773D01*
X122011641Y-92776173D01*
X122056173Y-92731641D01*
X122094773Y-92681879D01*
X122126831Y-92627672D01*
X122151842Y-92569874D01*
X122167541Y-92515838D01*
X122169412Y-92509398D01*
X122169413Y-92509394D01*
X122179264Y-92447196D01*
X122179264Y-92447191D01*
X122179346Y-92445462D01*
X122180500Y-92420989D01*
X122180499Y-90579012D01*
X122179264Y-90552806D01*
X122173688Y-90517598D01*
X122169413Y-90490605D01*
X122169412Y-90490601D01*
X122155275Y-90441943D01*
X122151842Y-90430126D01*
X122126831Y-90372328D01*
X122094773Y-90318121D01*
X122056173Y-90268359D01*
X122056170Y-90268356D01*
X122056167Y-90268352D01*
X122011647Y-90223832D01*
X121987734Y-90205283D01*
X121961879Y-90185227D01*
X121907672Y-90153169D01*
X121907671Y-90153168D01*
X121849879Y-90128160D01*
X121849877Y-90128159D01*
X121849874Y-90128158D01*
X121849864Y-90128155D01*
X121789398Y-90110587D01*
X121789394Y-90110586D01*
X121727194Y-90100735D01*
X121700995Y-90099500D01*
X119859025Y-90099500D01*
X119832804Y-90100736D01*
X119832792Y-90100737D01*
X119770605Y-90110586D01*
X119770601Y-90110587D01*
X119710135Y-90128155D01*
X119710120Y-90128160D01*
X119652328Y-90153168D01*
X119652327Y-90153169D01*
X119598122Y-90185226D01*
X119598116Y-90185230D01*
X119548352Y-90223832D01*
X119503832Y-90268352D01*
X119465230Y-90318116D01*
X119465226Y-90318122D01*
X119433169Y-90372327D01*
X119433168Y-90372328D01*
X119408160Y-90430120D01*
X119406837Y-90433797D01*
X119406379Y-90433632D01*
X119396317Y-90456846D01*
X119377250Y-90481394D01*
X119352678Y-90500429D01*
X119324144Y-90512756D01*
X119293441Y-90517598D01*
X119262498Y-90514653D01*
X119233260Y-90504106D01*
X119207563Y-90486618D01*
X119201944Y-90481338D01*
X119194948Y-90474342D01*
X119194934Y-90474328D01*
X119119331Y-90408817D01*
X119039246Y-90348867D01*
X119039243Y-90348865D01*
X119039235Y-90348859D01*
X118955099Y-90294788D01*
X118955086Y-90294780D01*
X118867291Y-90246840D01*
X118816898Y-90223827D01*
X118776290Y-90205282D01*
X118682559Y-90170322D01*
X118624142Y-90153169D01*
X118586564Y-90142135D01*
X118488828Y-90120873D01*
X118389803Y-90106637D01*
X118290019Y-90099500D01*
X118189981Y-90099500D01*
X118090197Y-90106637D01*
X118090194Y-90106637D01*
X117991171Y-90120873D01*
X117893435Y-90142135D01*
X117797440Y-90170322D01*
X117757482Y-90185226D01*
X117703710Y-90205282D01*
X117703708Y-90205283D01*
X117612708Y-90246840D01*
X117524913Y-90294780D01*
X117524900Y-90294788D01*
X117440764Y-90348859D01*
X117360670Y-90408816D01*
X117290969Y-90469213D01*
X117265112Y-90486463D01*
X117235778Y-90496741D01*
X117209766Y-90499500D01*
X115483315Y-90499500D01*
X115452477Y-90495604D01*
X115423578Y-90484162D01*
X115398431Y-90465892D01*
X115378618Y-90441943D01*
X115369513Y-90424745D01*
X115346831Y-90372328D01*
X115346830Y-90372327D01*
X115314773Y-90318121D01*
X115276173Y-90268359D01*
X115276170Y-90268356D01*
X115276167Y-90268352D01*
X115231647Y-90223832D01*
X115207734Y-90205283D01*
X115181879Y-90185227D01*
X115127672Y-90153169D01*
X115127671Y-90153168D01*
X115069879Y-90128160D01*
X115069877Y-90128159D01*
X115069874Y-90128158D01*
X115069864Y-90128155D01*
X115009398Y-90110587D01*
X115009394Y-90110586D01*
X114947194Y-90100735D01*
X114920995Y-90099500D01*
X113079025Y-90099500D01*
X113052804Y-90100736D01*
X113052792Y-90100737D01*
X112990605Y-90110586D01*
X112990601Y-90110587D01*
X112930135Y-90128155D01*
X112930120Y-90128160D01*
X112872328Y-90153168D01*
X112872327Y-90153169D01*
X112818122Y-90185226D01*
X112818116Y-90185230D01*
X112768352Y-90223832D01*
X112723832Y-90268352D01*
X112685230Y-90318116D01*
X112685226Y-90318122D01*
X112653169Y-90372327D01*
X112653168Y-90372328D01*
X112628160Y-90430120D01*
X112626837Y-90433797D01*
X112626379Y-90433632D01*
X112616317Y-90456846D01*
X112597250Y-90481394D01*
X112572678Y-90500429D01*
X112544144Y-90512756D01*
X112513441Y-90517598D01*
X112482498Y-90514653D01*
X112453260Y-90504106D01*
X112427563Y-90486618D01*
X112421944Y-90481338D01*
X112414948Y-90474342D01*
X112414934Y-90474328D01*
X112339331Y-90408817D01*
X112259246Y-90348867D01*
X112259243Y-90348865D01*
X112259235Y-90348859D01*
X112175099Y-90294788D01*
X112175086Y-90294780D01*
X112087291Y-90246840D01*
X112036898Y-90223827D01*
X111996290Y-90205282D01*
X111902559Y-90170322D01*
X111844142Y-90153169D01*
X111806564Y-90142135D01*
X111708828Y-90120873D01*
X111609803Y-90106637D01*
X111510019Y-90099500D01*
X111409981Y-90099500D01*
X111310197Y-90106637D01*
X111310194Y-90106637D01*
X111211171Y-90120873D01*
X111113435Y-90142135D01*
X111017440Y-90170322D01*
X110977482Y-90185226D01*
X110923710Y-90205282D01*
X110923708Y-90205283D01*
X110832708Y-90246840D01*
X110744913Y-90294780D01*
X110744900Y-90294788D01*
X110660764Y-90348859D01*
X110580670Y-90408816D01*
X110505076Y-90474319D01*
X110505051Y-90474342D01*
X110434342Y-90545051D01*
X110434319Y-90545076D01*
X110368816Y-90620670D01*
X110308859Y-90700764D01*
X110254788Y-90784900D01*
X110254780Y-90784913D01*
X110206840Y-90872708D01*
X110165283Y-90963708D01*
X110130322Y-91057440D01*
X110102135Y-91153435D01*
X110080873Y-91251171D01*
X110066637Y-91350194D01*
X110066637Y-91350197D01*
X110059500Y-91449981D01*
X102221889Y-91449981D01*
X102103803Y-91283019D01*
X102102360Y-91280931D01*
X101899378Y-90980610D01*
X101897927Y-90978414D01*
X101718728Y-90700754D01*
X101701364Y-90673850D01*
X101699967Y-90671634D01*
X101622042Y-90545076D01*
X101509922Y-90362980D01*
X101508569Y-90360729D01*
X101469870Y-90294782D01*
X101325123Y-90048121D01*
X101323824Y-90045853D01*
X101147055Y-89729422D01*
X101145796Y-89727111D01*
X101122132Y-89682555D01*
X100975761Y-89406959D01*
X100974594Y-89404704D01*
X100811386Y-89080998D01*
X100810244Y-89078672D01*
X100653953Y-88751596D01*
X100652844Y-88749210D01*
X100612468Y-88659888D01*
X100503531Y-88418892D01*
X100502538Y-88416633D01*
X100360244Y-88083159D01*
X100359237Y-88080727D01*
X100243406Y-87792471D01*
X100224095Y-87744415D01*
X100223172Y-87742046D01*
X100095158Y-87402833D01*
X100094260Y-87400372D01*
X100086854Y-87379412D01*
X100046845Y-87266173D01*
X99973511Y-87058618D01*
X99972661Y-87056127D01*
X99859211Y-86711943D01*
X99858413Y-86709435D01*
X99828332Y-86611211D01*
X99752251Y-86362780D01*
X99751540Y-86360367D01*
X99652751Y-86011504D01*
X99652093Y-86009081D01*
X99560727Y-85658186D01*
X99560131Y-85655793D01*
X99476238Y-85303057D01*
X99475679Y-85300592D01*
X99399290Y-84946146D01*
X99398790Y-84943700D01*
X99329935Y-84587681D01*
X99329491Y-84585241D01*
X99268217Y-84227894D01*
X99267825Y-84225458D01*
X99214140Y-83866816D01*
X99213797Y-83864349D01*
X99167739Y-83504673D01*
X99167447Y-83502182D01*
X99129043Y-83141707D01*
X99128795Y-83139110D01*
X99117588Y-83007440D01*
X99098059Y-82777987D01*
X99097864Y-82775367D01*
X99095284Y-82734911D01*
X99074789Y-82413503D01*
X99074659Y-82411053D01*
X99059273Y-82048848D01*
X99059190Y-82046241D01*
X99058890Y-82032126D01*
X99051497Y-81683861D01*
X99051469Y-81681229D01*
X99051469Y-81318770D01*
X99051497Y-81316138D01*
X99054754Y-81162714D01*
X99059190Y-80953732D01*
X99059274Y-80951127D01*
X99059817Y-80938353D01*
X99074660Y-80588941D01*
X99074789Y-80586501D01*
X99097864Y-80224620D01*
X99098060Y-80222007D01*
X99102402Y-80170988D01*
X99128797Y-79860857D01*
X99129046Y-79858269D01*
X99130293Y-79846564D01*
X99167448Y-79497806D01*
X99167737Y-79495337D01*
X99213799Y-79135637D01*
X99214138Y-79133195D01*
X99267828Y-78774527D01*
X99268215Y-78772120D01*
X99329494Y-78414741D01*
X99329932Y-78412335D01*
X99398794Y-78056280D01*
X99399286Y-78053871D01*
X99475674Y-77699432D01*
X99476253Y-77696879D01*
X99560136Y-77344184D01*
X99560721Y-77341835D01*
X99652099Y-76990894D01*
X99652744Y-76988519D01*
X99745778Y-76659981D01*
X104849500Y-76659981D01*
X104849500Y-76760018D01*
X104856637Y-76859802D01*
X104856637Y-76859805D01*
X104870873Y-76958828D01*
X104892135Y-77056564D01*
X104892138Y-77056574D01*
X104920322Y-77152559D01*
X104955282Y-77246290D01*
X104974807Y-77289045D01*
X104996840Y-77337291D01*
X105044780Y-77425086D01*
X105044788Y-77425099D01*
X105098859Y-77509235D01*
X105098865Y-77509243D01*
X105098867Y-77509246D01*
X105158817Y-77589331D01*
X105224328Y-77664934D01*
X105224340Y-77664946D01*
X105224342Y-77664948D01*
X105231338Y-77671944D01*
X105250389Y-77696504D01*
X105262733Y-77725030D01*
X105267596Y-77755730D01*
X105264671Y-77786675D01*
X105254142Y-77815920D01*
X105236671Y-77841628D01*
X105213355Y-77862183D01*
X105185661Y-77876294D01*
X105181980Y-77877491D01*
X105180120Y-77878160D01*
X105122328Y-77903168D01*
X105122327Y-77903169D01*
X105068122Y-77935226D01*
X105068116Y-77935230D01*
X105018352Y-77973832D01*
X104973832Y-78018352D01*
X104935230Y-78068116D01*
X104935226Y-78068122D01*
X104903169Y-78122327D01*
X104903168Y-78122328D01*
X104878160Y-78180120D01*
X104878155Y-78180135D01*
X104860587Y-78240601D01*
X104860586Y-78240605D01*
X104850735Y-78302803D01*
X104850735Y-78302808D01*
X104849500Y-78329004D01*
X104849500Y-80170974D01*
X104850736Y-80197195D01*
X104850737Y-80197207D01*
X104860586Y-80259394D01*
X104860587Y-80259398D01*
X104878155Y-80319864D01*
X104878160Y-80319879D01*
X104903168Y-80377671D01*
X104903169Y-80377672D01*
X104935227Y-80431879D01*
X104972636Y-80480106D01*
X104973832Y-80481647D01*
X105018352Y-80526167D01*
X105018356Y-80526170D01*
X105018359Y-80526173D01*
X105068121Y-80564773D01*
X105122328Y-80596831D01*
X105174747Y-80619514D01*
X105201499Y-80635335D01*
X105223478Y-80657313D01*
X105239301Y-80684067D01*
X105247973Y-80713916D01*
X105249500Y-80733315D01*
X105249500Y-82419766D01*
X105245604Y-82450604D01*
X105234162Y-82479503D01*
X105219213Y-82500969D01*
X105158816Y-82570670D01*
X105098859Y-82650764D01*
X105044788Y-82734900D01*
X105044780Y-82734913D01*
X104996840Y-82822708D01*
X104955283Y-82913708D01*
X104920322Y-83007440D01*
X104892135Y-83103435D01*
X104870873Y-83201171D01*
X104856637Y-83300194D01*
X104856637Y-83300197D01*
X104849500Y-83399981D01*
X104849500Y-83500018D01*
X104856637Y-83599802D01*
X104856637Y-83599805D01*
X104870873Y-83698828D01*
X104892135Y-83796564D01*
X104892138Y-83796574D01*
X104920322Y-83892559D01*
X104955282Y-83986290D01*
X104980003Y-84040423D01*
X104996840Y-84077291D01*
X105044780Y-84165086D01*
X105044788Y-84165099D01*
X105098859Y-84249235D01*
X105098865Y-84249243D01*
X105098867Y-84249246D01*
X105158817Y-84329331D01*
X105224328Y-84404934D01*
X105224340Y-84404946D01*
X105224342Y-84404948D01*
X105231338Y-84411944D01*
X105250389Y-84436504D01*
X105262733Y-84465030D01*
X105267596Y-84495730D01*
X105264671Y-84526675D01*
X105254142Y-84555920D01*
X105236671Y-84581628D01*
X105213355Y-84602183D01*
X105185661Y-84616294D01*
X105181980Y-84617491D01*
X105180120Y-84618160D01*
X105122328Y-84643168D01*
X105122327Y-84643169D01*
X105068122Y-84675226D01*
X105068116Y-84675230D01*
X105018352Y-84713832D01*
X104973832Y-84758352D01*
X104935230Y-84808116D01*
X104935226Y-84808122D01*
X104903169Y-84862327D01*
X104903168Y-84862328D01*
X104878160Y-84920120D01*
X104878155Y-84920135D01*
X104860587Y-84980601D01*
X104860586Y-84980605D01*
X104850735Y-85042803D01*
X104850735Y-85042808D01*
X104849500Y-85069004D01*
X104849500Y-86910974D01*
X104850736Y-86937195D01*
X104850737Y-86937207D01*
X104860586Y-86999394D01*
X104860587Y-86999398D01*
X104878155Y-87059864D01*
X104878160Y-87059879D01*
X104903168Y-87117671D01*
X104903169Y-87117672D01*
X104922725Y-87150740D01*
X104935226Y-87171877D01*
X104935230Y-87171883D01*
X104973832Y-87221647D01*
X105018352Y-87266167D01*
X105018356Y-87266170D01*
X105018359Y-87266173D01*
X105068121Y-87304773D01*
X105122328Y-87336831D01*
X105180126Y-87361842D01*
X105211219Y-87370875D01*
X105240601Y-87379412D01*
X105240605Y-87379413D01*
X105302805Y-87389264D01*
X105304528Y-87389345D01*
X105329011Y-87390500D01*
X107170988Y-87390499D01*
X107197194Y-87389264D01*
X107197207Y-87389262D01*
X107259394Y-87379413D01*
X107259398Y-87379412D01*
X107274088Y-87375143D01*
X107319874Y-87361842D01*
X107377672Y-87336831D01*
X107431879Y-87304773D01*
X107481641Y-87266173D01*
X107526173Y-87221641D01*
X107564773Y-87171879D01*
X107596831Y-87117672D01*
X107621842Y-87059874D01*
X107639412Y-86999397D01*
X107639413Y-86999394D01*
X107649264Y-86937196D01*
X107649264Y-86937191D01*
X107650500Y-86910989D01*
X107650499Y-85069012D01*
X107649264Y-85042806D01*
X107642633Y-85000937D01*
X107639413Y-84980605D01*
X107639412Y-84980601D01*
X107629421Y-84946212D01*
X107621842Y-84920126D01*
X107596831Y-84862328D01*
X107564773Y-84808121D01*
X107526173Y-84758359D01*
X107526170Y-84758356D01*
X107526167Y-84758352D01*
X107481647Y-84713832D01*
X107447306Y-84687194D01*
X107431879Y-84675227D01*
X107377672Y-84643169D01*
X107377671Y-84643168D01*
X107319879Y-84618160D01*
X107319876Y-84618159D01*
X107319874Y-84618158D01*
X107319871Y-84618157D01*
X107316203Y-84616837D01*
X107316367Y-84616378D01*
X107293168Y-84606326D01*
X107268617Y-84587263D01*
X107249579Y-84562693D01*
X107237248Y-84534161D01*
X107232401Y-84503458D01*
X107235342Y-84472515D01*
X107245885Y-84443275D01*
X107263369Y-84417576D01*
X107268650Y-84411955D01*
X107275672Y-84404934D01*
X107341183Y-84329331D01*
X107401133Y-84249246D01*
X107455218Y-84165089D01*
X107503161Y-84077288D01*
X107544718Y-83986290D01*
X107579678Y-83892559D01*
X107607862Y-83796574D01*
X107629127Y-83698822D01*
X107643363Y-83599802D01*
X107650500Y-83500019D01*
X107650500Y-83399981D01*
X107643363Y-83300198D01*
X107629127Y-83201178D01*
X107629126Y-83201171D01*
X107607864Y-83103435D01*
X107607863Y-83103434D01*
X107607862Y-83103426D01*
X107579678Y-83007441D01*
X107544718Y-82913710D01*
X107503161Y-82822712D01*
X107486829Y-82792803D01*
X107455219Y-82734913D01*
X107455211Y-82734900D01*
X107401140Y-82650764D01*
X107401133Y-82650754D01*
X107341183Y-82570669D01*
X107280786Y-82500968D01*
X107263537Y-82475112D01*
X107253259Y-82445778D01*
X107250500Y-82419766D01*
X107250500Y-81387524D01*
X109949500Y-81387524D01*
X109949500Y-81612475D01*
X109957529Y-81837285D01*
X109973575Y-82061646D01*
X109997624Y-82285333D01*
X110029636Y-82507980D01*
X110069580Y-82729376D01*
X110117393Y-82949172D01*
X110173024Y-83167132D01*
X110236405Y-83382985D01*
X110307437Y-83596403D01*
X110386057Y-83807192D01*
X110472136Y-84015005D01*
X110540676Y-84165086D01*
X110565588Y-84219634D01*
X110658337Y-84404923D01*
X110666285Y-84420800D01*
X110773685Y-84617491D01*
X110774087Y-84618226D01*
X110888873Y-84811687D01*
X110949792Y-84906479D01*
X111010496Y-85000937D01*
X111138788Y-85185712D01*
X111273583Y-85365777D01*
X111414744Y-85540947D01*
X111562056Y-85710954D01*
X111679046Y-85836610D01*
X111715350Y-85875604D01*
X111874395Y-86034649D01*
X111874406Y-86034659D01*
X112039046Y-86187944D01*
X112209053Y-86335256D01*
X112241719Y-86361580D01*
X112384222Y-86476416D01*
X112564287Y-86611211D01*
X112749062Y-86739503D01*
X112789750Y-86765651D01*
X112938313Y-86861127D01*
X113131774Y-86975913D01*
X113329209Y-87083720D01*
X113530366Y-87184412D01*
X113734989Y-87277861D01*
X113942817Y-87363946D01*
X114122972Y-87431140D01*
X114153596Y-87442562D01*
X114225156Y-87466379D01*
X114367024Y-87513598D01*
X114561128Y-87570592D01*
X114582867Y-87576975D01*
X114800827Y-87632606D01*
X115020623Y-87680419D01*
X115020630Y-87680420D01*
X115020638Y-87680422D01*
X115242015Y-87720363D01*
X115464676Y-87752377D01*
X115688338Y-87776423D01*
X115912717Y-87792471D01*
X116137524Y-87800500D01*
X116362476Y-87800500D01*
X116587283Y-87792471D01*
X116811662Y-87776423D01*
X117035324Y-87752377D01*
X117257985Y-87720363D01*
X117479362Y-87680422D01*
X117699173Y-87632606D01*
X117917136Y-87576974D01*
X118132976Y-87513598D01*
X118346415Y-87442558D01*
X118557183Y-87363946D01*
X118765011Y-87277861D01*
X118969634Y-87184412D01*
X119170791Y-87083720D01*
X119368226Y-86975913D01*
X119561687Y-86861127D01*
X119750928Y-86739509D01*
X119935708Y-86611214D01*
X120045771Y-86528822D01*
X120115777Y-86476416D01*
X120115781Y-86476412D01*
X120115790Y-86476406D01*
X120290947Y-86335256D01*
X120460954Y-86187944D01*
X120625594Y-86034659D01*
X120784659Y-85875594D01*
X120937944Y-85710954D01*
X121085256Y-85540947D01*
X121226406Y-85365790D01*
X121274294Y-85301820D01*
X121361211Y-85185712D01*
X121387138Y-85148371D01*
X121429866Y-85086830D01*
X121489503Y-85000937D01*
X121489509Y-85000928D01*
X121611127Y-84811687D01*
X121725913Y-84618226D01*
X121833720Y-84420791D01*
X121934412Y-84219634D01*
X122027861Y-84015011D01*
X122113946Y-83807183D01*
X122192558Y-83596415D01*
X122263598Y-83382976D01*
X122326974Y-83167136D01*
X122382606Y-82949173D01*
X122422155Y-82767364D01*
X122430419Y-82729376D01*
X122430422Y-82729362D01*
X122470363Y-82507985D01*
X122502377Y-82285324D01*
X122526423Y-82061662D01*
X122542471Y-81837283D01*
X122550500Y-81612476D01*
X122550500Y-81387524D01*
X122542471Y-81162717D01*
X122526423Y-80938338D01*
X122502377Y-80714676D01*
X122470363Y-80492015D01*
X122430422Y-80270638D01*
X122418340Y-80215099D01*
X122382606Y-80050827D01*
X122326975Y-79832867D01*
X122320592Y-79811128D01*
X122263598Y-79617024D01*
X122192558Y-79403585D01*
X122113946Y-79192817D01*
X122097633Y-79153435D01*
X122027863Y-78984994D01*
X122003429Y-78931492D01*
X121934412Y-78780366D01*
X121833720Y-78579209D01*
X121725913Y-78381774D01*
X121611127Y-78188313D01*
X121509619Y-78030364D01*
X121489503Y-77999062D01*
X121361211Y-77814287D01*
X121226416Y-77634222D01*
X121085255Y-77459052D01*
X120937944Y-77289046D01*
X120784659Y-77124406D01*
X120784649Y-77124395D01*
X120625604Y-76965350D01*
X120512240Y-76859805D01*
X120460954Y-76812056D01*
X120290947Y-76664744D01*
X120237231Y-76621457D01*
X120115777Y-76523583D01*
X119935712Y-76388788D01*
X119750937Y-76260496D01*
X119615891Y-76173708D01*
X119561687Y-76138873D01*
X119368226Y-76024087D01*
X119368219Y-76024083D01*
X119368212Y-76024079D01*
X119170800Y-75916285D01*
X119170801Y-75916285D01*
X119170791Y-75916280D01*
X118969634Y-75815588D01*
X118969633Y-75815587D01*
X118969624Y-75815583D01*
X118765005Y-75722136D01*
X118557192Y-75636057D01*
X118346403Y-75557437D01*
X118132985Y-75486405D01*
X118132976Y-75486402D01*
X118032297Y-75456840D01*
X117917132Y-75423024D01*
X117699172Y-75367393D01*
X117479376Y-75319580D01*
X117257980Y-75279636D01*
X117035333Y-75247624D01*
X116811646Y-75223575D01*
X116587285Y-75207529D01*
X116362476Y-75199500D01*
X116137524Y-75199500D01*
X115912714Y-75207529D01*
X115688353Y-75223575D01*
X115464666Y-75247624D01*
X115242019Y-75279636D01*
X115020623Y-75319580D01*
X114800827Y-75367393D01*
X114582867Y-75423024D01*
X114367014Y-75486405D01*
X114153596Y-75557437D01*
X113942807Y-75636057D01*
X113734994Y-75722136D01*
X113530375Y-75815583D01*
X113329199Y-75916285D01*
X113131787Y-76024079D01*
X113106621Y-76039011D01*
X112938313Y-76138873D01*
X112938307Y-76138877D01*
X112749062Y-76260496D01*
X112564287Y-76388788D01*
X112384222Y-76523583D01*
X112209052Y-76664744D01*
X112039045Y-76812057D01*
X111874395Y-76965350D01*
X111715350Y-77124395D01*
X111562057Y-77289045D01*
X111414744Y-77459052D01*
X111273583Y-77634222D01*
X111138788Y-77814287D01*
X111010496Y-77999062D01*
X110918714Y-78141879D01*
X110888873Y-78188313D01*
X110857849Y-78240601D01*
X110774079Y-78381787D01*
X110666285Y-78579199D01*
X110565583Y-78780375D01*
X110472136Y-78984994D01*
X110386057Y-79192807D01*
X110307437Y-79403596D01*
X110236405Y-79617014D01*
X110173024Y-79832867D01*
X110117393Y-80050827D01*
X110069580Y-80270623D01*
X110029636Y-80492019D01*
X109997624Y-80714666D01*
X109973575Y-80938353D01*
X109957529Y-81162714D01*
X109949500Y-81387524D01*
X107250500Y-81387524D01*
X107250500Y-80733315D01*
X107254396Y-80702477D01*
X107265838Y-80673578D01*
X107284108Y-80648431D01*
X107308057Y-80628618D01*
X107325250Y-80619515D01*
X107377672Y-80596831D01*
X107431879Y-80564773D01*
X107481641Y-80526173D01*
X107526173Y-80481641D01*
X107564773Y-80431879D01*
X107596831Y-80377672D01*
X107621842Y-80319874D01*
X107639412Y-80259397D01*
X107639413Y-80259394D01*
X107649264Y-80197196D01*
X107649264Y-80197191D01*
X107650500Y-80170989D01*
X107650499Y-78329012D01*
X107649264Y-78302806D01*
X107644824Y-78274773D01*
X107639413Y-78240605D01*
X107639412Y-78240601D01*
X107625187Y-78191641D01*
X107621842Y-78180126D01*
X107596831Y-78122328D01*
X107564773Y-78068121D01*
X107526173Y-78018359D01*
X107526170Y-78018356D01*
X107526167Y-78018352D01*
X107481647Y-77973832D01*
X107431883Y-77935230D01*
X107431877Y-77935226D01*
X107377672Y-77903169D01*
X107377671Y-77903168D01*
X107319879Y-77878160D01*
X107319876Y-77878159D01*
X107319874Y-77878158D01*
X107319871Y-77878157D01*
X107316203Y-77876837D01*
X107316367Y-77876378D01*
X107293168Y-77866326D01*
X107268617Y-77847263D01*
X107249579Y-77822693D01*
X107237248Y-77794161D01*
X107232401Y-77763458D01*
X107235342Y-77732515D01*
X107245885Y-77703275D01*
X107263369Y-77677576D01*
X107268650Y-77671955D01*
X107275672Y-77664934D01*
X107341183Y-77589331D01*
X107401133Y-77509246D01*
X107455218Y-77425089D01*
X107503161Y-77337288D01*
X107544718Y-77246290D01*
X107579678Y-77152559D01*
X107607862Y-77056574D01*
X107622685Y-76988437D01*
X107629126Y-76958828D01*
X107629127Y-76958822D01*
X107643363Y-76859802D01*
X107650500Y-76760019D01*
X107650500Y-76659981D01*
X107643363Y-76560198D01*
X107629127Y-76461178D01*
X107629126Y-76461171D01*
X107607864Y-76363435D01*
X107607863Y-76363434D01*
X107607862Y-76363426D01*
X107579678Y-76267441D01*
X107544718Y-76173710D01*
X107503161Y-76082712D01*
X107455218Y-75994911D01*
X107426743Y-75950603D01*
X107401140Y-75910764D01*
X107401133Y-75910754D01*
X107341183Y-75830669D01*
X107275672Y-75755066D01*
X107204934Y-75684328D01*
X107129331Y-75618817D01*
X107049246Y-75558867D01*
X107049243Y-75558865D01*
X107049235Y-75558859D01*
X106965099Y-75504788D01*
X106965086Y-75504780D01*
X106877291Y-75456840D01*
X106840423Y-75440003D01*
X106786290Y-75415282D01*
X106692559Y-75380322D01*
X106596574Y-75352138D01*
X106596564Y-75352135D01*
X106498828Y-75330873D01*
X106399803Y-75316637D01*
X106300019Y-75309500D01*
X106199981Y-75309500D01*
X106100197Y-75316637D01*
X106100194Y-75316637D01*
X106001171Y-75330873D01*
X105903435Y-75352135D01*
X105807440Y-75380322D01*
X105776654Y-75391805D01*
X105713710Y-75415282D01*
X105713708Y-75415283D01*
X105622708Y-75456840D01*
X105534913Y-75504780D01*
X105534900Y-75504788D01*
X105450764Y-75558859D01*
X105370670Y-75618816D01*
X105295076Y-75684319D01*
X105295051Y-75684342D01*
X105224342Y-75755051D01*
X105224319Y-75755076D01*
X105158816Y-75830670D01*
X105098859Y-75910764D01*
X105044788Y-75994900D01*
X105044780Y-75994913D01*
X104996840Y-76082708D01*
X104955283Y-76173708D01*
X104920322Y-76267440D01*
X104892135Y-76363435D01*
X104870873Y-76461171D01*
X104856637Y-76560194D01*
X104856637Y-76560197D01*
X104849500Y-76659981D01*
X99745778Y-76659981D01*
X99751547Y-76639608D01*
X99752269Y-76637162D01*
X99757075Y-76621468D01*
X99858419Y-76290544D01*
X99859211Y-76288056D01*
X99866007Y-76267440D01*
X99972662Y-75943867D01*
X99973511Y-75941381D01*
X99991617Y-75890135D01*
X100094276Y-75599583D01*
X100095147Y-75597196D01*
X100223183Y-75257922D01*
X100224082Y-75255617D01*
X100359248Y-74919244D01*
X100360244Y-74916840D01*
X100502553Y-74583332D01*
X100503516Y-74581142D01*
X100652870Y-74250732D01*
X100653953Y-74248403D01*
X100810244Y-73921327D01*
X100811367Y-73919038D01*
X100974614Y-73595257D01*
X100975741Y-73593078D01*
X101145830Y-73272825D01*
X101147020Y-73270639D01*
X101323856Y-72954088D01*
X101325099Y-72951919D01*
X101508597Y-72639222D01*
X101509896Y-72637060D01*
X101700000Y-72328312D01*
X101701337Y-72326191D01*
X101897949Y-72021550D01*
X101899354Y-72019423D01*
X102102390Y-71719024D01*
X102103772Y-71717024D01*
X102313166Y-71420961D01*
X102314619Y-71418952D01*
X102530228Y-71127429D01*
X102531749Y-71125417D01*
X102753535Y-70838488D01*
X102754972Y-70836668D01*
X102982824Y-70554481D01*
X102984398Y-70552573D01*
X103218181Y-70275291D01*
X103219728Y-70273495D01*
X103367746Y-70105315D01*
X107800500Y-70105315D01*
X107800500Y-70192684D01*
X107808114Y-70279711D01*
X107808117Y-70279728D01*
X107823284Y-70365748D01*
X107823285Y-70365755D01*
X107829344Y-70388367D01*
X107845897Y-70450143D01*
X107845898Y-70450145D01*
X107845898Y-70450146D01*
X107850704Y-70463349D01*
X107860623Y-70490603D01*
X107875783Y-70532252D01*
X107912695Y-70611410D01*
X107912698Y-70611417D01*
X107912700Y-70611420D01*
X107956383Y-70687080D01*
X107956386Y-70687084D01*
X108006493Y-70758646D01*
X108062653Y-70825575D01*
X108124424Y-70887346D01*
X108191353Y-70943506D01*
X108216298Y-70960972D01*
X108262920Y-70993617D01*
X108338580Y-71037300D01*
X108338582Y-71037301D01*
X108338589Y-71037304D01*
X108417747Y-71074216D01*
X108417752Y-71074217D01*
X108417761Y-71074222D01*
X108499857Y-71104103D01*
X108584246Y-71126715D01*
X108670284Y-71141885D01*
X108739910Y-71147977D01*
X108757316Y-71149500D01*
X108757317Y-71149500D01*
X108844684Y-71149500D01*
X108859188Y-71148230D01*
X108931716Y-71141885D01*
X109017754Y-71126715D01*
X109102143Y-71104103D01*
X109184239Y-71074222D01*
X109263420Y-71037300D01*
X109339080Y-70993617D01*
X109410646Y-70943506D01*
X109477572Y-70887349D01*
X109539349Y-70825572D01*
X109595506Y-70758646D01*
X109645617Y-70687080D01*
X109689300Y-70611420D01*
X109726222Y-70532239D01*
X109756103Y-70450143D01*
X109778715Y-70365754D01*
X109793885Y-70279716D01*
X109795918Y-70256473D01*
X109802486Y-70226095D01*
X109816403Y-70198302D01*
X109831760Y-70179606D01*
X111474548Y-68536819D01*
X111482242Y-68530850D01*
X111489344Y-68524182D01*
X111494477Y-68521359D01*
X111499108Y-68517768D01*
X111508049Y-68513898D01*
X111516582Y-68509208D01*
X111522256Y-68507751D01*
X111527634Y-68505424D01*
X111537255Y-68503899D01*
X111546688Y-68501478D01*
X111556405Y-68500866D01*
X111558334Y-68500561D01*
X111562229Y-68500500D01*
X111625500Y-68500500D01*
X111656338Y-68504396D01*
X111685237Y-68515838D01*
X111710384Y-68534108D01*
X111730197Y-68558057D01*
X111743431Y-68586182D01*
X111749255Y-68616714D01*
X111749500Y-68624500D01*
X111749500Y-69000947D01*
X111751569Y-69054388D01*
X111751571Y-69054406D01*
X111762594Y-69144552D01*
X111762594Y-69144553D01*
X111781536Y-69233347D01*
X111781542Y-69233369D01*
X111808258Y-69320143D01*
X111808261Y-69320151D01*
X111842549Y-69404241D01*
X111884134Y-69484971D01*
X111919063Y-69540172D01*
X111932696Y-69561716D01*
X111932703Y-69561725D01*
X111987841Y-69633859D01*
X111987842Y-69633860D01*
X112017007Y-69665726D01*
X112049151Y-69700849D01*
X112081543Y-69730494D01*
X112116139Y-69762157D01*
X112116140Y-69762158D01*
X112120854Y-69765761D01*
X112188290Y-69817308D01*
X112265027Y-69865865D01*
X112265029Y-69865866D01*
X112267410Y-69867229D01*
X112267216Y-69867567D01*
X112289479Y-69882837D01*
X112309935Y-69906240D01*
X112323927Y-69933995D01*
X112330578Y-69964358D01*
X112329469Y-69995420D01*
X112320670Y-70025232D01*
X112304734Y-70051918D01*
X112282662Y-70073803D01*
X112255840Y-70089511D01*
X112225955Y-70098055D01*
X112207080Y-70099500D01*
X110829025Y-70099500D01*
X110802804Y-70100736D01*
X110802792Y-70100737D01*
X110740605Y-70110586D01*
X110740601Y-70110587D01*
X110680135Y-70128155D01*
X110680120Y-70128160D01*
X110622328Y-70153168D01*
X110622327Y-70153169D01*
X110568122Y-70185226D01*
X110568116Y-70185230D01*
X110518352Y-70223832D01*
X110473832Y-70268352D01*
X110435230Y-70318116D01*
X110435226Y-70318122D01*
X110403169Y-70372327D01*
X110403168Y-70372328D01*
X110378160Y-70430120D01*
X110378155Y-70430135D01*
X110360587Y-70490601D01*
X110360586Y-70490605D01*
X110350735Y-70552803D01*
X110350735Y-70552808D01*
X110349500Y-70579004D01*
X110349500Y-72420974D01*
X110350736Y-72447195D01*
X110350737Y-72447207D01*
X110360586Y-72509394D01*
X110360587Y-72509398D01*
X110378155Y-72569864D01*
X110378160Y-72569879D01*
X110403168Y-72627671D01*
X110403169Y-72627672D01*
X110435227Y-72681879D01*
X110453325Y-72705211D01*
X110473832Y-72731647D01*
X110518352Y-72776167D01*
X110518356Y-72776170D01*
X110518359Y-72776173D01*
X110568121Y-72814773D01*
X110622328Y-72846831D01*
X110680126Y-72871842D01*
X110711219Y-72880875D01*
X110740601Y-72889412D01*
X110740605Y-72889413D01*
X110802805Y-72899264D01*
X110804528Y-72899345D01*
X110829011Y-72900500D01*
X112670988Y-72900499D01*
X112697194Y-72899264D01*
X112697207Y-72899262D01*
X112759394Y-72889413D01*
X112759398Y-72889412D01*
X112774088Y-72885143D01*
X112819874Y-72871842D01*
X112877672Y-72846831D01*
X112931879Y-72814773D01*
X112981641Y-72776173D01*
X113026173Y-72731641D01*
X113064773Y-72681879D01*
X113096831Y-72627672D01*
X113121842Y-72569874D01*
X113121847Y-72569856D01*
X113123163Y-72566203D01*
X113123625Y-72566369D01*
X113133642Y-72543221D01*
X113152693Y-72518661D01*
X113177253Y-72499610D01*
X113205779Y-72487265D01*
X113236479Y-72482403D01*
X113267424Y-72485328D01*
X113296669Y-72495857D01*
X113322377Y-72513328D01*
X113328055Y-72518661D01*
X113335066Y-72525672D01*
X113410669Y-72591183D01*
X113490754Y-72651133D01*
X113490758Y-72651135D01*
X113490764Y-72651140D01*
X113538592Y-72681877D01*
X113574911Y-72705218D01*
X113662712Y-72753161D01*
X113753710Y-72794718D01*
X113847441Y-72829678D01*
X113943426Y-72857862D01*
X113943434Y-72857863D01*
X113943435Y-72857864D01*
X114041171Y-72879126D01*
X114041178Y-72879127D01*
X114140198Y-72893363D01*
X114239981Y-72900500D01*
X114340018Y-72900500D01*
X114340019Y-72900500D01*
X114439802Y-72893363D01*
X114538822Y-72879127D01*
X114538823Y-72879126D01*
X114538828Y-72879126D01*
X114600896Y-72865623D01*
X114636574Y-72857862D01*
X114732559Y-72829678D01*
X114826290Y-72794718D01*
X114917288Y-72753161D01*
X115005089Y-72705218D01*
X115089246Y-72651133D01*
X115169331Y-72591183D01*
X115239031Y-72530786D01*
X115264888Y-72513537D01*
X115294222Y-72503259D01*
X115320234Y-72500500D01*
X117016685Y-72500500D01*
X117047523Y-72504396D01*
X117076422Y-72515838D01*
X117101569Y-72534108D01*
X117121382Y-72558057D01*
X117130487Y-72575255D01*
X117153168Y-72627671D01*
X117153169Y-72627672D01*
X117185227Y-72681879D01*
X117203325Y-72705211D01*
X117223832Y-72731647D01*
X117268352Y-72776167D01*
X117268356Y-72776170D01*
X117268359Y-72776173D01*
X117318121Y-72814773D01*
X117372328Y-72846831D01*
X117430126Y-72871842D01*
X117461219Y-72880875D01*
X117490601Y-72889412D01*
X117490605Y-72889413D01*
X117552805Y-72899264D01*
X117554528Y-72899345D01*
X117579011Y-72900500D01*
X119420988Y-72900499D01*
X119447194Y-72899264D01*
X119447207Y-72899262D01*
X119509394Y-72889413D01*
X119509398Y-72889412D01*
X119524088Y-72885143D01*
X119569874Y-72871842D01*
X119627672Y-72846831D01*
X119681879Y-72814773D01*
X119731641Y-72776173D01*
X119776173Y-72731641D01*
X119814773Y-72681879D01*
X119846831Y-72627672D01*
X119871842Y-72569874D01*
X119871847Y-72569856D01*
X119873163Y-72566203D01*
X119873625Y-72566369D01*
X119883642Y-72543221D01*
X119902693Y-72518661D01*
X119927253Y-72499610D01*
X119955779Y-72487265D01*
X119986479Y-72482403D01*
X120017424Y-72485328D01*
X120046669Y-72495857D01*
X120072377Y-72513328D01*
X120078055Y-72518661D01*
X120085066Y-72525672D01*
X120160669Y-72591183D01*
X120240754Y-72651133D01*
X120240758Y-72651135D01*
X120240764Y-72651140D01*
X120288592Y-72681877D01*
X120324911Y-72705218D01*
X120412712Y-72753161D01*
X120503710Y-72794718D01*
X120597441Y-72829678D01*
X120693426Y-72857862D01*
X120693434Y-72857863D01*
X120693435Y-72857864D01*
X120791171Y-72879126D01*
X120791178Y-72879127D01*
X120890198Y-72893363D01*
X120989981Y-72900500D01*
X121090018Y-72900500D01*
X121090019Y-72900500D01*
X121189802Y-72893363D01*
X121288822Y-72879127D01*
X121288823Y-72879126D01*
X121288828Y-72879126D01*
X121350896Y-72865623D01*
X121386574Y-72857862D01*
X121482559Y-72829678D01*
X121576290Y-72794718D01*
X121667288Y-72753161D01*
X121755089Y-72705218D01*
X121839246Y-72651133D01*
X121919331Y-72591183D01*
X121994934Y-72525672D01*
X122065672Y-72454934D01*
X122131183Y-72379331D01*
X122191133Y-72299246D01*
X122245218Y-72215089D01*
X122293161Y-72127288D01*
X122334718Y-72036290D01*
X122369678Y-71942559D01*
X122397862Y-71846574D01*
X122419127Y-71748822D01*
X122433363Y-71649802D01*
X122440500Y-71550019D01*
X122440500Y-71449981D01*
X122433363Y-71350198D01*
X122419127Y-71251178D01*
X122419126Y-71251171D01*
X122397864Y-71153435D01*
X122397863Y-71153434D01*
X122397862Y-71153426D01*
X122369678Y-71057441D01*
X122344981Y-70991226D01*
X122337854Y-70960972D01*
X122338475Y-70929895D01*
X122346805Y-70899950D01*
X122362320Y-70873016D01*
X122384047Y-70850788D01*
X122410618Y-70834661D01*
X122440365Y-70825648D01*
X122471420Y-70824317D01*
X122501829Y-70830750D01*
X122529684Y-70844544D01*
X122548843Y-70860211D01*
X125463181Y-73774548D01*
X125482232Y-73799108D01*
X125494576Y-73827634D01*
X125499439Y-73858334D01*
X125499500Y-73862229D01*
X125499500Y-75435500D01*
X125495604Y-75466338D01*
X125484162Y-75495237D01*
X125465892Y-75520384D01*
X125441943Y-75540197D01*
X125413818Y-75553431D01*
X125383286Y-75559255D01*
X125375503Y-75559500D01*
X125329026Y-75559500D01*
X125302804Y-75560736D01*
X125302792Y-75560737D01*
X125240605Y-75570586D01*
X125240601Y-75570587D01*
X125180135Y-75588155D01*
X125180120Y-75588160D01*
X125122328Y-75613168D01*
X125122327Y-75613169D01*
X125068122Y-75645226D01*
X125068116Y-75645230D01*
X125018352Y-75683832D01*
X124973832Y-75728352D01*
X124935230Y-75778116D01*
X124935226Y-75778122D01*
X124903169Y-75832327D01*
X124903168Y-75832328D01*
X124878160Y-75890120D01*
X124878155Y-75890135D01*
X124860587Y-75950601D01*
X124860586Y-75950605D01*
X124850735Y-76012803D01*
X124850735Y-76012808D01*
X124849500Y-76039004D01*
X124849500Y-77880974D01*
X124850736Y-77907195D01*
X124850737Y-77907207D01*
X124860586Y-77969394D01*
X124860587Y-77969398D01*
X124878155Y-78029864D01*
X124878160Y-78029879D01*
X124903168Y-78087671D01*
X124903169Y-78087672D01*
X124935227Y-78141879D01*
X124971245Y-78188313D01*
X124973832Y-78191647D01*
X125018352Y-78236167D01*
X125018356Y-78236170D01*
X125018359Y-78236173D01*
X125068121Y-78274773D01*
X125122328Y-78306831D01*
X125180126Y-78331842D01*
X125180138Y-78331845D01*
X125183797Y-78333163D01*
X125183630Y-78333624D01*
X125206794Y-78343651D01*
X125231351Y-78362706D01*
X125250398Y-78387268D01*
X125262738Y-78415796D01*
X125267596Y-78446497D01*
X125264667Y-78477441D01*
X125254134Y-78506685D01*
X125236659Y-78532390D01*
X125231343Y-78538050D01*
X125224345Y-78545048D01*
X125224319Y-78545076D01*
X125158816Y-78620670D01*
X125098859Y-78700764D01*
X125044788Y-78784900D01*
X125044780Y-78784913D01*
X124996840Y-78872708D01*
X124969995Y-78931492D01*
X124955282Y-78963710D01*
X124941118Y-79001683D01*
X124920322Y-79057440D01*
X124892135Y-79153435D01*
X124870873Y-79251171D01*
X124856637Y-79350194D01*
X124856637Y-79350197D01*
X124849500Y-79449981D01*
X124849500Y-79550018D01*
X124856637Y-79649802D01*
X124856637Y-79649805D01*
X124870873Y-79748828D01*
X124892135Y-79846564D01*
X124892138Y-79846574D01*
X124920322Y-79942559D01*
X124955282Y-80036290D01*
X124961921Y-80050827D01*
X124996840Y-80127291D01*
X125044780Y-80215086D01*
X125044788Y-80215099D01*
X125098859Y-80299235D01*
X125098865Y-80299243D01*
X125098867Y-80299246D01*
X125158817Y-80379331D01*
X125158820Y-80379335D01*
X125158822Y-80379337D01*
X125158823Y-80379338D01*
X125219212Y-80449030D01*
X125236463Y-80474886D01*
X125246741Y-80504220D01*
X125249500Y-80530233D01*
X125249500Y-82256684D01*
X125245604Y-82287522D01*
X125234162Y-82316421D01*
X125215892Y-82341568D01*
X125191943Y-82361381D01*
X125174747Y-82370485D01*
X125122331Y-82393167D01*
X125122327Y-82393169D01*
X125068122Y-82425226D01*
X125068116Y-82425230D01*
X125018352Y-82463832D01*
X124973832Y-82508352D01*
X124935230Y-82558116D01*
X124935226Y-82558122D01*
X124903169Y-82612327D01*
X124903168Y-82612328D01*
X124878160Y-82670120D01*
X124878155Y-82670135D01*
X124860587Y-82730601D01*
X124860586Y-82730605D01*
X124850735Y-82792803D01*
X124850735Y-82792808D01*
X124849500Y-82819004D01*
X124849500Y-84660974D01*
X124850736Y-84687195D01*
X124850737Y-84687207D01*
X124860586Y-84749394D01*
X124860587Y-84749398D01*
X124878155Y-84809864D01*
X124878160Y-84809879D01*
X124903168Y-84867671D01*
X124903169Y-84867672D01*
X124935226Y-84921877D01*
X124935230Y-84921883D01*
X124973832Y-84971647D01*
X125018352Y-85016167D01*
X125018356Y-85016170D01*
X125018359Y-85016173D01*
X125068121Y-85054773D01*
X125122328Y-85086831D01*
X125180126Y-85111842D01*
X125180138Y-85111845D01*
X125183797Y-85113163D01*
X125183630Y-85113624D01*
X125206794Y-85123651D01*
X125231351Y-85142706D01*
X125250398Y-85167268D01*
X125262738Y-85195796D01*
X125267596Y-85226497D01*
X125264667Y-85257441D01*
X125254134Y-85286685D01*
X125236659Y-85312390D01*
X125231343Y-85318050D01*
X125224345Y-85325048D01*
X125224319Y-85325076D01*
X125158816Y-85400670D01*
X125098859Y-85480764D01*
X125044788Y-85564900D01*
X125044780Y-85564913D01*
X124996840Y-85652708D01*
X124955283Y-85743708D01*
X124920322Y-85837440D01*
X124892135Y-85933435D01*
X124870873Y-86031171D01*
X124856637Y-86130194D01*
X124856637Y-86130197D01*
X124849500Y-86229981D01*
X124849500Y-86330018D01*
X124856637Y-86429802D01*
X124856637Y-86429805D01*
X124870873Y-86528828D01*
X124892135Y-86626564D01*
X124892138Y-86626574D01*
X124920322Y-86722559D01*
X124955282Y-86816290D01*
X124967719Y-86843523D01*
X124996840Y-86907291D01*
X125044780Y-86995086D01*
X125044788Y-86995099D01*
X125098859Y-87079235D01*
X125098865Y-87079243D01*
X125098867Y-87079246D01*
X125158817Y-87159331D01*
X125224328Y-87234934D01*
X125295066Y-87305672D01*
X125370669Y-87371183D01*
X125450754Y-87431133D01*
X125450758Y-87431135D01*
X125450764Y-87431140D01*
X125534900Y-87485211D01*
X125534911Y-87485218D01*
X125622712Y-87533161D01*
X125713710Y-87574718D01*
X125807441Y-87609678D01*
X125903426Y-87637862D01*
X125903434Y-87637863D01*
X125903435Y-87637864D01*
X126001171Y-87659126D01*
X126001178Y-87659127D01*
X126100198Y-87673363D01*
X126199981Y-87680500D01*
X126300018Y-87680500D01*
X126300019Y-87680500D01*
X126399802Y-87673363D01*
X126498822Y-87659127D01*
X126498823Y-87659126D01*
X126498828Y-87659126D01*
X126560896Y-87645623D01*
X126596574Y-87637862D01*
X126692559Y-87609678D01*
X126786290Y-87574718D01*
X126877288Y-87533161D01*
X126965089Y-87485218D01*
X127049246Y-87431133D01*
X127129331Y-87371183D01*
X127204934Y-87305672D01*
X127275672Y-87234934D01*
X127341183Y-87159331D01*
X127401133Y-87079246D01*
X127455218Y-86995089D01*
X127503161Y-86907288D01*
X127544718Y-86816290D01*
X127579678Y-86722559D01*
X127607862Y-86626574D01*
X127629127Y-86528822D01*
X127643363Y-86429802D01*
X127650500Y-86330019D01*
X127650500Y-86229981D01*
X127643363Y-86130198D01*
X127629127Y-86031178D01*
X127629126Y-86031171D01*
X127607864Y-85933435D01*
X127607863Y-85933434D01*
X127607862Y-85933426D01*
X127579678Y-85837441D01*
X127544718Y-85743710D01*
X127503161Y-85652712D01*
X127455218Y-85564911D01*
X127439817Y-85540947D01*
X127401140Y-85480764D01*
X127401133Y-85480754D01*
X127341183Y-85400669D01*
X127275672Y-85325066D01*
X127268661Y-85318055D01*
X127249610Y-85293495D01*
X127237266Y-85264969D01*
X127232403Y-85234269D01*
X127235328Y-85203324D01*
X127245857Y-85174079D01*
X127263328Y-85148371D01*
X127286644Y-85127816D01*
X127314338Y-85113705D01*
X127318018Y-85112509D01*
X127319856Y-85111847D01*
X127319874Y-85111842D01*
X127377672Y-85086831D01*
X127431879Y-85054773D01*
X127481641Y-85016173D01*
X127526173Y-84971641D01*
X127564773Y-84921879D01*
X127596831Y-84867672D01*
X127621842Y-84809874D01*
X127639412Y-84749397D01*
X127639413Y-84749394D01*
X127649264Y-84687196D01*
X127649264Y-84687191D01*
X127649828Y-84675226D01*
X127650500Y-84660989D01*
X127650499Y-82819012D01*
X127649264Y-82792806D01*
X127646918Y-82777992D01*
X127639413Y-82730605D01*
X127639412Y-82730601D01*
X127630875Y-82701219D01*
X127621842Y-82670126D01*
X127596831Y-82612328D01*
X127564773Y-82558121D01*
X127526173Y-82508359D01*
X127526170Y-82508356D01*
X127526167Y-82508352D01*
X127481647Y-82463832D01*
X127431883Y-82425230D01*
X127431877Y-82425226D01*
X127377672Y-82393169D01*
X127377668Y-82393167D01*
X127325253Y-82370485D01*
X127298499Y-82354663D01*
X127276521Y-82332684D01*
X127260698Y-82305930D01*
X127252027Y-82276081D01*
X127250500Y-82256684D01*
X127250500Y-80530233D01*
X127254396Y-80499395D01*
X127265838Y-80470496D01*
X127280788Y-80449030D01*
X127295651Y-80431877D01*
X127341183Y-80379331D01*
X127401133Y-80299246D01*
X127455218Y-80215089D01*
X127503161Y-80127288D01*
X127544718Y-80036290D01*
X127579678Y-79942559D01*
X127607862Y-79846574D01*
X127629127Y-79748822D01*
X127643363Y-79649802D01*
X127650500Y-79550019D01*
X127650500Y-79449981D01*
X127643363Y-79350198D01*
X127629127Y-79251178D01*
X127629126Y-79251171D01*
X127607864Y-79153435D01*
X127607863Y-79153434D01*
X127607862Y-79153426D01*
X127579678Y-79057441D01*
X127544718Y-78963710D01*
X127503161Y-78872712D01*
X127455218Y-78784911D01*
X127448605Y-78774621D01*
X127401140Y-78700764D01*
X127401133Y-78700754D01*
X127341183Y-78620669D01*
X127275672Y-78545066D01*
X127268661Y-78538055D01*
X127249610Y-78513495D01*
X127237266Y-78484969D01*
X127232403Y-78454269D01*
X127235328Y-78423324D01*
X127245857Y-78394079D01*
X127263328Y-78368371D01*
X127286644Y-78347816D01*
X127314338Y-78333705D01*
X127318018Y-78332509D01*
X127319856Y-78331847D01*
X127319874Y-78331842D01*
X127377672Y-78306831D01*
X127431879Y-78274773D01*
X127481641Y-78236173D01*
X127526173Y-78191641D01*
X127564773Y-78141879D01*
X127596831Y-78087672D01*
X127621842Y-78029874D01*
X127639412Y-77969397D01*
X127639413Y-77969394D01*
X127649264Y-77907196D01*
X127649264Y-77907191D01*
X127649454Y-77903168D01*
X127650500Y-77880989D01*
X127650499Y-76039012D01*
X127649264Y-76012806D01*
X127642181Y-75968085D01*
X127639413Y-75950605D01*
X127639412Y-75950601D01*
X127627835Y-75910754D01*
X127621842Y-75890126D01*
X127596831Y-75832328D01*
X127564773Y-75778121D01*
X127526173Y-75728359D01*
X127526170Y-75728356D01*
X127526167Y-75728352D01*
X127481647Y-75683832D01*
X127431883Y-75645230D01*
X127431877Y-75645226D01*
X127387220Y-75618816D01*
X127377672Y-75613169D01*
X127377671Y-75613168D01*
X127319879Y-75588160D01*
X127319877Y-75588159D01*
X127319874Y-75588158D01*
X127319864Y-75588155D01*
X127259398Y-75570587D01*
X127259394Y-75570586D01*
X127197194Y-75560735D01*
X127170995Y-75559500D01*
X127170989Y-75559500D01*
X127124500Y-75559500D01*
X127093662Y-75555604D01*
X127064763Y-75544162D01*
X127039616Y-75525892D01*
X127019803Y-75501943D01*
X127006569Y-75473818D01*
X127000745Y-75443286D01*
X127000500Y-75435500D01*
X127000500Y-73463134D01*
X127000500Y-73463130D01*
X126993272Y-73389746D01*
X126978886Y-73317423D01*
X126957481Y-73246859D01*
X126929262Y-73178733D01*
X126894502Y-73113701D01*
X126869943Y-73076946D01*
X126853534Y-73052388D01*
X126806754Y-72995387D01*
X126806753Y-72995386D01*
X126806749Y-72995381D01*
X122004617Y-68193249D01*
X122004598Y-68193232D01*
X121947622Y-68146474D01*
X121947607Y-68146463D01*
X121886305Y-68105502D01*
X121886304Y-68105501D01*
X121886299Y-68105498D01*
X121821267Y-68070738D01*
X121753141Y-68042519D01*
X121753142Y-68042519D01*
X121753139Y-68042518D01*
X121707390Y-68028641D01*
X121682577Y-68021114D01*
X121682574Y-68021113D01*
X121682573Y-68021113D01*
X121682571Y-68021112D01*
X121610255Y-68006728D01*
X121598023Y-68005523D01*
X121536870Y-67999500D01*
X121536865Y-67999500D01*
X121124500Y-67999500D01*
X121093662Y-67995604D01*
X121064763Y-67984162D01*
X121039616Y-67965892D01*
X121019803Y-67941943D01*
X121006569Y-67913818D01*
X121000745Y-67883286D01*
X121000500Y-67875500D01*
X121000500Y-66499052D01*
X120998430Y-66445611D01*
X120998429Y-66445606D01*
X120998429Y-66445593D01*
X120987406Y-66355453D01*
X120968460Y-66266640D01*
X120941739Y-66179849D01*
X120907451Y-66095759D01*
X120865866Y-66015029D01*
X120817308Y-65938290D01*
X120817296Y-65938274D01*
X120762158Y-65866140D01*
X120762157Y-65866139D01*
X120735970Y-65837526D01*
X120700849Y-65799151D01*
X120651039Y-65753565D01*
X120633860Y-65737842D01*
X120633859Y-65737841D01*
X120561725Y-65682703D01*
X120561716Y-65682696D01*
X120484971Y-65634134D01*
X120404241Y-65592549D01*
X120320151Y-65558261D01*
X120320143Y-65558258D01*
X120233369Y-65531542D01*
X120233347Y-65531536D01*
X120144552Y-65512594D01*
X120069430Y-65503408D01*
X120054407Y-65501571D01*
X120054405Y-65501570D01*
X120054388Y-65501569D01*
X120000947Y-65499500D01*
X120000944Y-65499500D01*
X117499056Y-65499500D01*
X117499053Y-65499500D01*
X117445611Y-65501569D01*
X117445593Y-65501571D01*
X117355447Y-65512594D01*
X117355446Y-65512594D01*
X117266652Y-65531536D01*
X117266630Y-65531542D01*
X117179856Y-65558258D01*
X117179848Y-65558261D01*
X117095763Y-65592547D01*
X117015028Y-65634134D01*
X116938283Y-65682696D01*
X116938274Y-65682703D01*
X116866140Y-65737841D01*
X116866139Y-65737842D01*
X116799151Y-65799151D01*
X116737842Y-65866139D01*
X116737841Y-65866140D01*
X116682703Y-65938274D01*
X116682696Y-65938283D01*
X116634134Y-66015028D01*
X116592547Y-66095763D01*
X116558261Y-66179848D01*
X116558258Y-66179856D01*
X116531542Y-66266630D01*
X116531536Y-66266652D01*
X116512594Y-66355446D01*
X116512594Y-66355447D01*
X116501571Y-66445593D01*
X116501569Y-66445611D01*
X116499500Y-66499052D01*
X116499500Y-69000947D01*
X116501569Y-69054388D01*
X116501571Y-69054406D01*
X116512594Y-69144552D01*
X116512594Y-69144553D01*
X116531536Y-69233347D01*
X116531542Y-69233369D01*
X116558258Y-69320143D01*
X116558261Y-69320151D01*
X116592549Y-69404241D01*
X116634134Y-69484971D01*
X116669063Y-69540172D01*
X116682696Y-69561716D01*
X116682703Y-69561725D01*
X116737841Y-69633859D01*
X116737842Y-69633860D01*
X116767007Y-69665726D01*
X116799151Y-69700849D01*
X116831543Y-69730494D01*
X116866139Y-69762157D01*
X116866140Y-69762158D01*
X116870854Y-69765761D01*
X116938290Y-69817308D01*
X117015029Y-69865866D01*
X117095759Y-69907451D01*
X117179849Y-69941739D01*
X117237407Y-69959459D01*
X117253316Y-69964358D01*
X117266640Y-69968460D01*
X117266648Y-69968461D01*
X117269297Y-69969151D01*
X117269192Y-69969554D01*
X117294464Y-69978358D01*
X117320352Y-69995562D01*
X117341148Y-70018663D01*
X117355545Y-70046210D01*
X117362640Y-70076472D01*
X117361986Y-70107548D01*
X117353624Y-70137485D01*
X117338080Y-70164401D01*
X117316330Y-70186607D01*
X117315327Y-70187393D01*
X117270095Y-70222481D01*
X117268349Y-70223835D01*
X117223832Y-70268352D01*
X117185230Y-70318116D01*
X117185226Y-70318122D01*
X117153169Y-70372327D01*
X117153168Y-70372328D01*
X117130487Y-70424745D01*
X117114665Y-70451499D01*
X117092687Y-70473478D01*
X117065933Y-70489301D01*
X117036084Y-70497973D01*
X117016685Y-70499500D01*
X115320234Y-70499500D01*
X115289396Y-70495604D01*
X115260497Y-70484162D01*
X115239031Y-70469213D01*
X115218588Y-70451499D01*
X115169331Y-70408817D01*
X115089246Y-70348867D01*
X115089243Y-70348865D01*
X115089235Y-70348859D01*
X115005099Y-70294788D01*
X115005086Y-70294780D01*
X114917283Y-70246836D01*
X114917276Y-70246832D01*
X114896389Y-70237294D01*
X114869956Y-70220940D01*
X114848421Y-70198527D01*
X114833137Y-70171462D01*
X114825063Y-70141446D01*
X114824708Y-70110365D01*
X114832094Y-70080173D01*
X114846756Y-70052765D01*
X114867773Y-70029866D01*
X114893825Y-70012912D01*
X114923275Y-70002970D01*
X114947900Y-70000500D01*
X115250947Y-70000500D01*
X115304388Y-69998430D01*
X115304391Y-69998429D01*
X115304407Y-69998429D01*
X115394547Y-69987406D01*
X115394552Y-69987405D01*
X115394553Y-69987405D01*
X115483347Y-69968463D01*
X115483350Y-69968461D01*
X115483360Y-69968460D01*
X115570151Y-69941739D01*
X115654241Y-69907451D01*
X115734971Y-69865866D01*
X115811710Y-69817308D01*
X115883858Y-69762159D01*
X115950849Y-69700849D01*
X116012159Y-69633858D01*
X116067308Y-69561710D01*
X116115866Y-69484971D01*
X116157451Y-69404241D01*
X116191739Y-69320151D01*
X116218460Y-69233360D01*
X116226878Y-69193898D01*
X116237405Y-69144553D01*
X116237405Y-69144552D01*
X116238294Y-69137285D01*
X116248429Y-69054407D01*
X116250500Y-69000944D01*
X116250500Y-66499056D01*
X116248429Y-66445593D01*
X116237406Y-66355453D01*
X116218460Y-66266640D01*
X116191739Y-66179849D01*
X116157451Y-66095759D01*
X116115866Y-66015029D01*
X116067308Y-65938290D01*
X116067296Y-65938274D01*
X116012158Y-65866140D01*
X116012157Y-65866139D01*
X115985970Y-65837526D01*
X115950849Y-65799151D01*
X115901039Y-65753565D01*
X115883860Y-65737842D01*
X115883859Y-65737841D01*
X115811725Y-65682703D01*
X115811716Y-65682696D01*
X115734971Y-65634134D01*
X115654241Y-65592549D01*
X115570151Y-65558261D01*
X115570143Y-65558258D01*
X115483369Y-65531542D01*
X115483347Y-65531536D01*
X115394552Y-65512594D01*
X115319430Y-65503408D01*
X115304407Y-65501571D01*
X115304405Y-65501570D01*
X115304388Y-65501569D01*
X115250947Y-65499500D01*
X115250944Y-65499500D01*
X112749056Y-65499500D01*
X112749053Y-65499500D01*
X112695611Y-65501569D01*
X112695593Y-65501571D01*
X112605447Y-65512594D01*
X112605446Y-65512594D01*
X112516652Y-65531536D01*
X112516630Y-65531542D01*
X112429856Y-65558258D01*
X112429848Y-65558261D01*
X112345763Y-65592547D01*
X112265028Y-65634134D01*
X112188283Y-65682696D01*
X112188274Y-65682703D01*
X112116140Y-65737841D01*
X112116139Y-65737842D01*
X112049151Y-65799151D01*
X111987842Y-65866139D01*
X111987841Y-65866140D01*
X111932703Y-65938274D01*
X111932696Y-65938283D01*
X111884134Y-66015028D01*
X111842547Y-66095763D01*
X111808261Y-66179848D01*
X111808258Y-66179856D01*
X111781542Y-66266630D01*
X111781536Y-66266652D01*
X111762594Y-66355446D01*
X111762594Y-66355447D01*
X111751571Y-66445593D01*
X111751569Y-66445611D01*
X111749500Y-66499052D01*
X111749500Y-66875500D01*
X111745604Y-66906338D01*
X111734162Y-66935237D01*
X111715892Y-66960384D01*
X111691943Y-66980197D01*
X111663818Y-66993431D01*
X111633286Y-66999255D01*
X111625500Y-66999500D01*
X111163130Y-66999500D01*
X111101976Y-67005523D01*
X111089745Y-67006728D01*
X111089744Y-67006728D01*
X111017428Y-67021112D01*
X111017426Y-67021113D01*
X110946860Y-67042518D01*
X110878733Y-67070738D01*
X110878732Y-67070738D01*
X110813704Y-67105495D01*
X110776946Y-67130055D01*
X110776946Y-67130056D01*
X110764748Y-67138206D01*
X110752381Y-67146470D01*
X110695382Y-67193249D01*
X108770396Y-69118234D01*
X108745836Y-69137285D01*
X108717310Y-69149629D01*
X108693527Y-69154081D01*
X108670283Y-69156115D01*
X108670270Y-69156117D01*
X108584251Y-69171284D01*
X108584244Y-69171285D01*
X108539020Y-69183403D01*
X108499857Y-69193897D01*
X108499854Y-69193898D01*
X108499853Y-69193898D01*
X108417747Y-69223783D01*
X108338589Y-69260695D01*
X108338582Y-69260698D01*
X108262915Y-69304386D01*
X108191353Y-69354493D01*
X108124424Y-69410653D01*
X108062653Y-69472424D01*
X108006493Y-69539353D01*
X107956386Y-69610915D01*
X107912698Y-69686582D01*
X107912695Y-69686589D01*
X107875783Y-69765747D01*
X107875778Y-69765761D01*
X107845897Y-69847857D01*
X107840616Y-69867567D01*
X107823285Y-69932244D01*
X107823284Y-69932251D01*
X107808117Y-70018271D01*
X107808114Y-70018288D01*
X107800500Y-70105315D01*
X103367746Y-70105315D01*
X103459274Y-70001319D01*
X103461017Y-69999381D01*
X103706273Y-69732363D01*
X103707980Y-69730544D01*
X103958870Y-69468769D01*
X103960619Y-69466983D01*
X104216983Y-69210619D01*
X104218769Y-69208870D01*
X104480544Y-68957980D01*
X104482363Y-68956273D01*
X104749393Y-68711005D01*
X104751338Y-68709258D01*
X105023495Y-68469728D01*
X105025291Y-68468181D01*
X105302573Y-68234398D01*
X105304481Y-68232824D01*
X105586668Y-68004972D01*
X105588488Y-68003535D01*
X105875417Y-67781749D01*
X105877429Y-67780228D01*
X106168952Y-67564619D01*
X106170961Y-67563166D01*
X106467024Y-67353772D01*
X106469024Y-67352390D01*
X106769423Y-67149354D01*
X106771550Y-67147949D01*
X107076191Y-66951337D01*
X107078312Y-66950000D01*
X107387060Y-66759896D01*
X107389222Y-66758597D01*
X107701919Y-66575099D01*
X107704088Y-66573856D01*
X108020639Y-66397020D01*
X108022825Y-66395830D01*
X108343078Y-66225741D01*
X108345257Y-66224614D01*
X108669038Y-66061367D01*
X108671289Y-66060262D01*
X108998422Y-65903943D01*
X109000732Y-65902870D01*
X109331142Y-65753516D01*
X109333332Y-65752553D01*
X109666866Y-65610232D01*
X109669244Y-65609248D01*
X110005617Y-65474082D01*
X110007922Y-65473183D01*
X110347196Y-65345147D01*
X110349583Y-65344276D01*
X110691385Y-65223509D01*
X110693872Y-65222661D01*
X110756993Y-65201855D01*
X111038077Y-65109204D01*
X111040544Y-65108419D01*
X111387244Y-65002243D01*
X111389606Y-65001547D01*
X111738519Y-64902744D01*
X111740894Y-64902099D01*
X112091835Y-64810721D01*
X112094184Y-64810136D01*
X112446962Y-64726233D01*
X112449386Y-64725683D01*
X112803871Y-64649286D01*
X112806280Y-64648794D01*
X113162335Y-64579932D01*
X113164741Y-64579494D01*
X113522120Y-64518215D01*
X113524527Y-64517828D01*
X113883195Y-64464138D01*
X113885637Y-64463799D01*
X114245337Y-64417737D01*
X114247806Y-64417448D01*
X114608301Y-64379042D01*
X114610857Y-64378797D01*
X114972019Y-64348059D01*
X114974620Y-64347864D01*
X115336501Y-64324789D01*
X115338941Y-64324660D01*
X115701154Y-64309273D01*
X115703732Y-64309190D01*
X116066138Y-64301496D01*
X116068770Y-64301469D01*
X116431230Y-64301469D01*
X116433861Y-64301496D01*
G37*
%TD.AperFunction*%
%TD*%
M02*
