%TF.GenerationSoftware,KiCad,Pcbnew,9.0.1*%
%TF.CreationDate,2025-06-19T23:09:26+02:00*%
%TF.ProjectId,Night-Gogle,4e696768-742d-4476-9f67-6c652e6b6963,rev?*%
%TF.SameCoordinates,Original*%
%TF.FileFunction,Paste,Top*%
%TF.FilePolarity,Positive*%
%FSLAX46Y46*%
G04 Gerber Fmt 4.6, Leading zero omitted, Abs format (unit mm)*
G04 Created by KiCad (PCBNEW 9.0.1) date 2025-06-19 23:09:26*
%MOMM*%
%LPD*%
G01*
G04 APERTURE LIST*
G04 Aperture macros list*
%AMRoundRect*
0 Rectangle with rounded corners*
0 $1 Rounding radius*
0 $2 $3 $4 $5 $6 $7 $8 $9 X,Y pos of 4 corners*
0 Add a 4 corners polygon primitive as box body*
4,1,4,$2,$3,$4,$5,$6,$7,$8,$9,$2,$3,0*
0 Add four circle primitives for the rounded corners*
1,1,$1+$1,$2,$3*
1,1,$1+$1,$4,$5*
1,1,$1+$1,$6,$7*
1,1,$1+$1,$8,$9*
0 Add four rect primitives between the rounded corners*
20,1,$1+$1,$2,$3,$4,$5,0*
20,1,$1+$1,$4,$5,$6,$7,0*
20,1,$1+$1,$6,$7,$8,$9,0*
20,1,$1+$1,$8,$9,$2,$3,0*%
G04 Aperture macros list end*
%ADD10C,0.010000*%
%ADD11RoundRect,0.250000X-0.350000X-0.650000X0.350000X-0.650000X0.350000X0.650000X-0.350000X0.650000X0*%
%ADD12RoundRect,0.150000X-0.150000X-0.625000X0.150000X-0.625000X0.150000X0.625000X-0.150000X0.625000X0*%
%ADD13RoundRect,0.132500X0.397500X-1.757500X0.397500X1.757500X-0.397500X1.757500X-0.397500X-1.757500X0*%
%ADD14RoundRect,0.250000X-0.350000X-0.450000X0.350000X-0.450000X0.350000X0.450000X-0.350000X0.450000X0*%
%ADD15RoundRect,0.250000X-0.625000X0.400000X-0.625000X-0.400000X0.625000X-0.400000X0.625000X0.400000X0*%
%ADD16RoundRect,0.250000X0.625000X-0.400000X0.625000X0.400000X-0.625000X0.400000X-0.625000X-0.400000X0*%
%ADD17RoundRect,0.250000X0.400000X0.625000X-0.400000X0.625000X-0.400000X-0.625000X0.400000X-0.625000X0*%
%ADD18RoundRect,0.250000X-0.400000X-0.625000X0.400000X-0.625000X0.400000X0.625000X-0.400000X0.625000X0*%
%ADD19RoundRect,0.250000X0.450000X-0.350000X0.450000X0.350000X-0.450000X0.350000X-0.450000X-0.350000X0*%
G04 APERTURE END LIST*
D10*
%TO.C,U1*%
X94900000Y-56640000D02*
X93650000Y-56640000D01*
X93650000Y-55120000D01*
X94900000Y-55120000D01*
X94900000Y-56640000D01*
G36*
X94900000Y-56640000D02*
G01*
X93650000Y-56640000D01*
X93650000Y-55120000D01*
X94900000Y-55120000D01*
X94900000Y-56640000D01*
G37*
X94900000Y-54010000D02*
X93650000Y-54010000D01*
X93650000Y-52490000D01*
X94900000Y-52490000D01*
X94900000Y-54010000D01*
G36*
X94900000Y-54010000D02*
G01*
X93650000Y-54010000D01*
X93650000Y-52490000D01*
X94900000Y-52490000D01*
X94900000Y-54010000D01*
G37*
X94900000Y-51380000D02*
X93650000Y-51380000D01*
X93650000Y-49860000D01*
X94900000Y-49860000D01*
X94900000Y-51380000D01*
G36*
X94900000Y-51380000D02*
G01*
X93650000Y-51380000D01*
X93650000Y-49860000D01*
X94900000Y-49860000D01*
X94900000Y-51380000D01*
G37*
X93090000Y-56640000D02*
X91840000Y-56640000D01*
X91840000Y-55120000D01*
X93090000Y-55120000D01*
X93090000Y-56640000D01*
G36*
X93090000Y-56640000D02*
G01*
X91840000Y-56640000D01*
X91840000Y-55120000D01*
X93090000Y-55120000D01*
X93090000Y-56640000D01*
G37*
X93090000Y-54010000D02*
X91840000Y-54010000D01*
X91840000Y-52490000D01*
X93090000Y-52490000D01*
X93090000Y-54010000D01*
G36*
X93090000Y-54010000D02*
G01*
X91840000Y-54010000D01*
X91840000Y-52490000D01*
X93090000Y-52490000D01*
X93090000Y-54010000D01*
G37*
X93090000Y-51380000D02*
X91840000Y-51380000D01*
X91840000Y-49860000D01*
X93090000Y-49860000D01*
X93090000Y-51380000D01*
G36*
X93090000Y-51380000D02*
G01*
X91840000Y-51380000D01*
X91840000Y-49860000D01*
X93090000Y-49860000D01*
X93090000Y-51380000D01*
G37*
X91280000Y-56640000D02*
X90030000Y-56640000D01*
X90030000Y-55120000D01*
X91280000Y-55120000D01*
X91280000Y-56640000D01*
G36*
X91280000Y-56640000D02*
G01*
X90030000Y-56640000D01*
X90030000Y-55120000D01*
X91280000Y-55120000D01*
X91280000Y-56640000D01*
G37*
X91280000Y-54010000D02*
X90030000Y-54010000D01*
X90030000Y-52490000D01*
X91280000Y-52490000D01*
X91280000Y-54010000D01*
G36*
X91280000Y-54010000D02*
G01*
X90030000Y-54010000D01*
X90030000Y-52490000D01*
X91280000Y-52490000D01*
X91280000Y-54010000D01*
G37*
X91280000Y-51380000D02*
X90030000Y-51380000D01*
X90030000Y-49860000D01*
X91280000Y-49860000D01*
X91280000Y-51380000D01*
G36*
X91280000Y-51380000D02*
G01*
X90030000Y-51380000D01*
X90030000Y-49860000D01*
X91280000Y-49860000D01*
X91280000Y-51380000D01*
G37*
X89470000Y-56640000D02*
X88220000Y-56640000D01*
X88220000Y-55120000D01*
X89470000Y-55120000D01*
X89470000Y-56640000D01*
G36*
X89470000Y-56640000D02*
G01*
X88220000Y-56640000D01*
X88220000Y-55120000D01*
X89470000Y-55120000D01*
X89470000Y-56640000D01*
G37*
X89470000Y-54010000D02*
X88220000Y-54010000D01*
X88220000Y-52490000D01*
X89470000Y-52490000D01*
X89470000Y-54010000D01*
G36*
X89470000Y-54010000D02*
G01*
X88220000Y-54010000D01*
X88220000Y-52490000D01*
X89470000Y-52490000D01*
X89470000Y-54010000D01*
G37*
X89470000Y-51380000D02*
X88220000Y-51380000D01*
X88220000Y-49860000D01*
X89470000Y-49860000D01*
X89470000Y-51380000D01*
G36*
X89470000Y-51380000D02*
G01*
X88220000Y-51380000D01*
X88220000Y-49860000D01*
X89470000Y-49860000D01*
X89470000Y-51380000D01*
G37*
X87660000Y-56640000D02*
X86410000Y-56640000D01*
X86410000Y-55120000D01*
X87660000Y-55120000D01*
X87660000Y-56640000D01*
G36*
X87660000Y-56640000D02*
G01*
X86410000Y-56640000D01*
X86410000Y-55120000D01*
X87660000Y-55120000D01*
X87660000Y-56640000D01*
G37*
X87660000Y-54010000D02*
X86410000Y-54010000D01*
X86410000Y-52490000D01*
X87660000Y-52490000D01*
X87660000Y-54010000D01*
G36*
X87660000Y-54010000D02*
G01*
X86410000Y-54010000D01*
X86410000Y-52490000D01*
X87660000Y-52490000D01*
X87660000Y-54010000D01*
G37*
X87660000Y-51380000D02*
X86410000Y-51380000D01*
X86410000Y-49860000D01*
X87660000Y-49860000D01*
X87660000Y-51380000D01*
G36*
X87660000Y-51380000D02*
G01*
X86410000Y-51380000D01*
X86410000Y-49860000D01*
X87660000Y-49860000D01*
X87660000Y-51380000D01*
G37*
X85850000Y-56640000D02*
X84600000Y-56640000D01*
X84600000Y-55120000D01*
X85850000Y-55120000D01*
X85850000Y-56640000D01*
G36*
X85850000Y-56640000D02*
G01*
X84600000Y-56640000D01*
X84600000Y-55120000D01*
X85850000Y-55120000D01*
X85850000Y-56640000D01*
G37*
X85850000Y-54010000D02*
X84600000Y-54010000D01*
X84600000Y-52490000D01*
X85850000Y-52490000D01*
X85850000Y-54010000D01*
G36*
X85850000Y-54010000D02*
G01*
X84600000Y-54010000D01*
X84600000Y-52490000D01*
X85850000Y-52490000D01*
X85850000Y-54010000D01*
G37*
X85850000Y-51380000D02*
X84600000Y-51380000D01*
X84600000Y-49860000D01*
X85850000Y-49860000D01*
X85850000Y-51380000D01*
G36*
X85850000Y-51380000D02*
G01*
X84600000Y-51380000D01*
X84600000Y-49860000D01*
X85850000Y-49860000D01*
X85850000Y-51380000D01*
G37*
%TD*%
D11*
%TO.C,J1*%
X69300000Y-54875000D03*
X61700000Y-54875000D03*
D12*
X68000000Y-51000000D03*
X67000000Y-51000000D03*
X66000000Y-51000000D03*
X65000000Y-51000000D03*
X64000000Y-51000000D03*
X63000000Y-51000000D03*
%TD*%
D13*
%TO.C,U1*%
X92290000Y-64000000D03*
X87210000Y-64000000D03*
%TD*%
D14*
%TO.C,R6*%
X88750000Y-65000000D03*
X90750000Y-65000000D03*
%TD*%
D15*
%TO.C,R4*%
X108250000Y-89200000D03*
X108250000Y-92300000D03*
%TD*%
D16*
%TO.C,R5*%
X124250000Y-73800000D03*
X124250000Y-70700000D03*
%TD*%
D17*
%TO.C,R2*%
X108550000Y-73500000D03*
X105450000Y-73500000D03*
%TD*%
D18*
%TO.C,R3*%
X123950000Y-89500000D03*
X127050000Y-89500000D03*
%TD*%
D19*
%TO.C,R1*%
X85000000Y-65350000D03*
X85000000Y-63350000D03*
%TD*%
M02*
