%TF.GenerationSoftware,KiCad,Pcbnew,9.0.1*%
%TF.CreationDate,2025-06-19T23:09:26+02:00*%
%TF.ProjectId,Night-Gogle,4e696768-742d-4476-9f67-6c652e6b6963,rev?*%
%TF.SameCoordinates,Original*%
%TF.FileFunction,Soldermask,Top*%
%TF.FilePolarity,Negative*%
%FSLAX46Y46*%
G04 Gerber Fmt 4.6, Leading zero omitted, Abs format (unit mm)*
G04 Created by KiCad (PCBNEW 9.0.1) date 2025-06-19 23:09:26*
%MOMM*%
%LPD*%
G01*
G04 APERTURE LIST*
G04 Aperture macros list*
%AMRoundRect*
0 Rectangle with rounded corners*
0 $1 Rounding radius*
0 $2 $3 $4 $5 $6 $7 $8 $9 X,Y pos of 4 corners*
0 Add a 4 corners polygon primitive as box body*
4,1,4,$2,$3,$4,$5,$6,$7,$8,$9,$2,$3,0*
0 Add four circle primitives for the rounded corners*
1,1,$1+$1,$2,$3*
1,1,$1+$1,$4,$5*
1,1,$1+$1,$6,$7*
1,1,$1+$1,$8,$9*
0 Add four rect primitives between the rounded corners*
20,1,$1+$1,$2,$3,$4,$5,0*
20,1,$1+$1,$4,$5,$6,$7,0*
20,1,$1+$1,$6,$7,$8,$9,0*
20,1,$1+$1,$8,$9,$2,$3,0*%
G04 Aperture macros list end*
%ADD10RoundRect,0.250000X-0.350000X-0.650000X0.350000X-0.650000X0.350000X0.650000X-0.350000X0.650000X0*%
%ADD11RoundRect,0.150000X-0.150000X-0.625000X0.150000X-0.625000X0.150000X0.625000X-0.150000X0.625000X0*%
%ADD12RoundRect,0.102000X5.420000X-3.940000X5.420000X3.940000X-5.420000X3.940000X-5.420000X-3.940000X0*%
%ADD13RoundRect,0.158000X0.474000X-1.834000X0.474000X1.834000X-0.474000X1.834000X-0.474000X-1.834000X0*%
%ADD14RoundRect,0.240600X0.961400X-0.561400X0.961400X0.561400X-0.961400X0.561400X-0.961400X-0.561400X0*%
%ADD15RoundRect,0.250000X-0.350000X-0.450000X0.350000X-0.450000X0.350000X0.450000X-0.350000X0.450000X0*%
%ADD16R,1.800000X1.800000*%
%ADD17C,1.800000*%
%ADD18RoundRect,0.250000X-0.625000X0.400000X-0.625000X-0.400000X0.625000X-0.400000X0.625000X0.400000X0*%
%ADD19RoundRect,0.250000X0.625000X-0.400000X0.625000X0.400000X-0.625000X0.400000X-0.625000X-0.400000X0*%
%ADD20RoundRect,0.525000X-1.225000X1.225000X-1.225000X-1.225000X1.225000X-1.225000X1.225000X1.225000X0*%
%ADD21RoundRect,0.525000X-1.225000X-1.225000X1.225000X-1.225000X1.225000X1.225000X-1.225000X1.225000X0*%
%ADD22RoundRect,0.250000X0.400000X0.625000X-0.400000X0.625000X-0.400000X-0.625000X0.400000X-0.625000X0*%
%ADD23RoundRect,0.250000X-0.400000X-0.625000X0.400000X-0.625000X0.400000X0.625000X-0.400000X0.625000X0*%
%ADD24O,5.754000X2.979000*%
%ADD25C,2.979000*%
%ADD26RoundRect,0.250000X0.450000X-0.350000X0.450000X0.350000X-0.450000X0.350000X-0.450000X-0.350000X0*%
%ADD27O,3.048800X1.626400*%
G04 APERTURE END LIST*
D10*
%TO.C,J1*%
X69300000Y-54875000D03*
X61700000Y-54875000D03*
D11*
X68000000Y-51000000D03*
X67000000Y-51000000D03*
X66000000Y-51000000D03*
X65000000Y-51000000D03*
X64000000Y-51000000D03*
X63000000Y-51000000D03*
%TD*%
D12*
%TO.C,U1*%
X89750000Y-53250000D03*
D13*
X92290000Y-64000000D03*
X87210000Y-64000000D03*
%TD*%
D14*
%TO.C,SW1*%
X63750000Y-68000000D03*
X73250000Y-68000000D03*
X63750000Y-72500000D03*
X73250000Y-72500000D03*
%TD*%
D15*
%TO.C,R6*%
X88750000Y-65000000D03*
X90750000Y-65000000D03*
%TD*%
D16*
%TO.C,D2*%
X106250000Y-79250000D03*
D17*
X106250000Y-76710000D03*
%TD*%
D16*
%TO.C,D7*%
X118500000Y-71500000D03*
D17*
X121040000Y-71500000D03*
%TD*%
D18*
%TO.C,R4*%
X108250000Y-89200000D03*
X108250000Y-92300000D03*
%TD*%
D19*
%TO.C,R5*%
X124250000Y-73800000D03*
X124250000Y-70700000D03*
%TD*%
D16*
%TO.C,D6*%
X120780000Y-91500000D03*
D17*
X118240000Y-91500000D03*
%TD*%
D16*
%TO.C,D1*%
X106250000Y-85990000D03*
D17*
X106250000Y-83450000D03*
%TD*%
D20*
%TO.C,VIN1*%
X56750000Y-82750000D03*
%TD*%
D21*
%TO.C,GND2*%
X93000000Y-69600000D03*
%TD*%
D16*
%TO.C,D3*%
X126250000Y-83740000D03*
D17*
X126250000Y-86280000D03*
%TD*%
D22*
%TO.C,R2*%
X108550000Y-73500000D03*
X105450000Y-73500000D03*
%TD*%
D23*
%TO.C,R3*%
X123950000Y-89500000D03*
X127050000Y-89500000D03*
%TD*%
D24*
%TO.C,SW2*%
X64025000Y-87200000D03*
X64025000Y-82500000D03*
X64025000Y-77800000D03*
D25*
X73555000Y-89105000D03*
X73555000Y-75895000D03*
%TD*%
D16*
%TO.C,D4*%
X126250000Y-76960000D03*
D17*
X126250000Y-79500000D03*
%TD*%
D21*
%TO.C,IR-LED3*%
X86500000Y-69600000D03*
%TD*%
D20*
%TO.C,GND1*%
X56750000Y-88250000D03*
%TD*%
D26*
%TO.C,R1*%
X85000000Y-65350000D03*
X85000000Y-63350000D03*
%TD*%
D16*
%TO.C,D5*%
X114000000Y-91500000D03*
D17*
X111460000Y-91500000D03*
%TD*%
D16*
%TO.C,D8*%
X111750000Y-71500000D03*
D17*
X114290000Y-71500000D03*
%TD*%
D20*
%TO.C,IR-LED1*%
X56750000Y-77000000D03*
%TD*%
D27*
%TO.C,MCU1*%
X76930000Y-54020000D03*
X76930000Y-56560000D03*
X76930000Y-59100000D03*
X76930000Y-61640000D03*
X76930000Y-64180000D03*
X76930000Y-66720000D03*
X76930000Y-69260000D03*
X76930000Y-71800000D03*
X54070000Y-71800000D03*
X54070000Y-69260000D03*
X54070000Y-66720000D03*
X54070000Y-64180000D03*
X54070000Y-61640000D03*
X54070000Y-59100000D03*
X54070000Y-56560000D03*
X54070000Y-54020000D03*
%TD*%
M02*
