M48
; DRILL file {KiCad 9.0.1} date 2025-06-19T23:09:22+0200
; FORMAT={-:-/ absolute / metric / decimal}
; #@! TF.CreationDate,2025-06-19T23:09:22+02:00
; #@! TF.GenerationSoftware,Kicad,Pcbnew,9.0.1
; #@! TF.FileFunction,Plated,1,2,PTH
FMAT,2
METRIC
; #@! TA.AperFunction,Plated,PTH,ViaDrill
T1C0.500
; #@! TA.AperFunction,Plated,PTH,ComponentDrill
T2C0.900
; #@! TA.AperFunction,Plated,PTH,ComponentDrill
T3C1.000
; #@! TA.AperFunction,Plated,PTH,ComponentDrill
T4C1.850
%
G90
G05
T1
X63.0Y-49.75
X63.75Y-68.0
X64.0Y-49.0
X65.0Y-49.75
X66.0Y-49.0
X67.0Y-49.75
X73.25Y-68.0
X108.801Y-70.149
T2
X106.25Y-76.71
X106.25Y-79.25
X106.25Y-83.45
X106.25Y-85.99
X111.46Y-91.5
X111.75Y-71.5
X114.0Y-91.5
X114.29Y-71.5
X118.24Y-91.5
X118.5Y-71.5
X120.78Y-91.5
X121.04Y-71.5
X126.25Y-76.96
X126.25Y-79.5
X126.25Y-83.74
X126.25Y-86.28
T3
X54.07Y-54.02
X54.07Y-56.56
X54.07Y-59.1
X54.07Y-61.64
X54.07Y-64.18
X54.07Y-66.72
X54.07Y-69.26
X54.07Y-71.8
X76.93Y-54.02
X76.93Y-56.56
X76.93Y-59.1
X76.93Y-61.64
X76.93Y-64.18
X76.93Y-66.72
X76.93Y-69.26
X76.93Y-71.8
T4
X64.025Y-77.8
X64.025Y-82.5
X64.025Y-87.2
X73.555Y-75.895
X73.555Y-89.105
M30
